SplineFontDB: 3.2
FontName: Myna-Regular
FullName: Myna Regular
FamilyName: Myna
Weight: Regular
Copyright: Copyright (c) 2025 Irfan Ali
Version: 2.0
ItalicAngle: 0
UnderlinePosition: -100
UnderlineWidth: 50
Ascent: 750
Descent: 250
InvalidEm: 0
sfntRevision: 0x000209ba
LayerCount: 2
Layer: 0 0 "Back" 1
Layer: 1 0 "Fore" 0
XUID: [1021 748 -90522492 5160351]
UniqueID: 4192369
BaseHoriz: 2 'ideo' 'romn'
BaseScript: 'DFLT' 1  -170 0
BaseScript: 'cyrl' 1  -170 0
BaseScript: 'grek' 1  -170 0
BaseScript: 'latn' 1  -170 0
StyleMap: 0x0040
FSType: 0
OS2Version: 3
OS2_WeightWidthSlopeOnly: 0
OS2_UseTypoMetrics: 0
CreationTime: 1610046839
ModificationTime: 1777210031
PfmFamily: 17
TTFWeight: 400
TTFWidth: 5
LineGap: 0
VLineGap: 0
Panose: 2 11 5 9 3 4 3 2 2 4
OS2TypoAscent: 750
OS2TypoAOffset: 0
OS2TypoDescent: -250
OS2TypoDOffset: 0
OS2TypoLinegap: 0
OS2WinAscent: 984
OS2WinAOffset: 0
OS2WinDescent: 273
OS2WinDOffset: 0
HheadAscent: 984
HheadAOffset: 0
HheadDescent: -273
HheadDOffset: 0
OS2SubXSize: 650
OS2SubYSize: 600
OS2SubXOff: 0
OS2SubYOff: 75
OS2SupXSize: 650
OS2SupYSize: 600
OS2SupXOff: 0
OS2SupYOff: 350
OS2StrikeYSize: 50
OS2StrikeYPos: 291
OS2CapHeight: 660
OS2XHeight: 486
OS2Vendor: 'IRFN'
OS2CodePages: 6000019f.00000000
OS2UnicodeRanges: 200002f7.02003803.00000000.00000000
Lookup: 6 0 0 "'ccmp' Glyph Composition/Decomposition lookup 0" { "'ccmp' Glyph Composition/Decomposition lookup 0 contextual 0"  "'ccmp' Glyph Composition/Decomposition lookup 0 contextual 1"  "'ccmp' Glyph Composition/Decomposition lookup 0 contextual 2"  } ['ccmp' ('DFLT' <'dflt' > 'cyrl' <'SRB ' 'dflt' > 'grek' <'dflt' > 'latn' <'ATH ' 'NSM ' 'SKS ' 'dflt' > ) ]

StartChar: .notdef
Encoding: 1114112 -1 0
Width: 486
GlyphClass: 1
Flags: MW
LayerCount: 2
Fore
SplineSet
242.999023438 -1.767578125 m 0
 220.309570312 -1.767578125 200.993164062 5.74609375 185.05078125 20.76953125 c 0
 169.10546875 35.7919921875 161.134765625 54.0361328125 161.134765625 75.4990234375 c 0
 161.134765625 96.9609375 169.10546875 115.051757812 185.05078125 129.768554688 c 0
 200.993164062 144.485351562 220.309570312 151.844726562 242.999023438 151.844726562 c 0
 266.30078125 151.844726562 285.771484375 144.485351562 301.408203125 129.768554688 c 0
 317.045898438 115.051757812 324.865234375 96.9609375 324.865234375 75.4990234375 c 0
 324.865234375 54.0361328125 317.045898438 35.7919921875 301.408203125 20.76953125 c 0
 285.771484375 5.74609375 266.30078125 -1.767578125 242.999023438 -1.767578125 c 0
EndSplineSet
EndChar

StartChar: exclam
Encoding: 33 33 2
Width: 486
GlyphClass: 2
Flags: MW
LayerCount: 2
Fore
SplineSet
283.3828125 724 m 1
 280.68359375 220 l 1
 203.575195312 220 l 1
 200.279296875 724 l 1
 283.3828125 724 l 1
243 116.6328125 m 0
 281.310546875 116.6328125 308.815429688 83.8876953125 308.815429688 43.50390625 c 0
 308.815429688 2.02734375 281.310546875 -29.626953125 243 -29.626953125 c 0
 205.671875 -29.626953125 177.184570312 2.02734375 177.184570312 43.50390625 c 0
 177.184570312 83.8876953125 205.671875 116.6328125 243 116.6328125 c 0
EndSplineSet
EndChar

StartChar: quotedbl
Encoding: 34 34 3
Width: 486
GlyphClass: 2
Flags: MW
LayerCount: 2
Fore
SplineSet
187.29296875 463 m 1
 104.276367188 463 l 1
 104.276367188 740 l 1
 187.29296875 740 l 1
 187.29296875 463 l 1
381.723632812 463 m 1
 298.708984375 463 l 1
 298.708984375 740 l 1
 381.723632812 740 l 1
 381.723632812 463 l 1
EndSplineSet
EndChar

StartChar: numbersign
Encoding: 35 35 4
Width: 486
GlyphClass: 2
Flags: HMW
LayerCount: 2
Fore
SplineSet
91.82421875 160 m 1
 0 160 l 5
 0 220 l 5
 98.5302734375 220 l 1
 119.125976562 431 l 1
 0 431 l 5
 0 493 l 5
 124.780273438 493 l 1
 145.7734375 707 l 1
 214.87109375 707 l 1
 192.811523438 493 l 1
 330.284179688 493 l 1
 351.28125 707 l 1
 421.411132812 707 l 1
 400.407226562 493 l 1
 486 493 l 1
 486 431 l 1
 393.685546875 431 l 1
 372.064453125 220 l 1
 486 220 l 1
 486 160 l 1
 366.390625 160 l 1
 343.3046875 -69 l 1
 274.201171875 -69 l 1
 297.3203125 160 l 1
 158.796875 160 l 1
 136.749023438 -69 l 1
 69.7705078125 -69 l 1
 91.82421875 160 l 1
324.61328125 431 m 1
 186.095703125 431 l 1
 165.501953125 220 l 1
 302.990234375 220 l 1
 324.61328125 431 l 1
EndSplineSet
EndChar

StartChar: dollar
Encoding: 36 36 5
Width: 486
GlyphClass: 2
Flags: HMW
LayerCount: 2
Fore
SplineSet
292 797 m 5
 292 676.194335938 l 5
 360.806640625 668.53125 403.701171875 635.008789062 439.409179688 599.5703125 c 1
 394.990234375 548.8046875 l 1
 361.889648438 582.328125 335.548828125 603.401367188 292 609.146484375 c 5
 292 391.725585938 l 5
 379.099609375 360.1171875 447.25 306.48046875 447.25 188.669921875 c 0
 447.25 97.677734375 402.616210938 16.2822265625 292 0 c 5
 292 -120 l 5
 219 -120 l 1
 219 0 l 1
 137.125976562 4.791015625 77.0751953125 45.955078125 38.75 87.140625 c 1
 82.30078125 140.77734375 l 1
 118.8828125 100.55078125 161.303710938 70.8583984375 218.7890625 66.0712890625 c 1
 218.7890625 330.424804688 l 1
 116.8828125 367.780273438 61.3974609375 424.291015625 61.3974609375 513.3671875 c 0
 61.3974609375 589.991210938 111.657226562 664.701171875 218.7890625 676.194335938 c 1
 218.771484375 797 l 1
 292 797 l 5
218.7890625 607.23046875 m 1
 171.754882812 598.610351562 138.915039062 568.918945312 138.915039062 514.322265625 c 0
 138.915039062 469.306640625 155.206054688 440.572265625 218.7890625 412.797851562 c 1
 218.7890625 607.23046875 l 1
292 308.395507812 m 5
 292 69.9013671875 l 5
 349.485351562 82.3525390625 367.98828125 121.623046875 367.98828125 187.7109375 c 0
 367.98828125 241.348632812 357.325195312 277.74609375 292 308.395507812 c 5
EndSplineSet
EndChar

StartChar: percent
Encoding: 37 37 6
Width: 486
GlyphClass: 2
Flags: MW
LayerCount: 2
Fore
SplineSet
18.814453125 17.40234375 m 1
 407.024414062 670.092773438 l 1
 457.465820312 631.8125 l 1
 69.255859375 -20.8779296875 l 1
 18.814453125 17.40234375 l 1
10.0791015625 509.354492188 m 0
 10.0791015625 593.668945312 55.38671875 666.75 133.650390625 666.75 c 0
 212.727539062 666.75 257.220703125 593.63671875 257.220703125 509.354492188 c 0
 257.220703125 427.930664062 212.80078125 351.959960938 133.650390625 351.959960938 c 0
 55.314453125 351.959960938 10.0791015625 427.897460938 10.0791015625 509.354492188 c 0
185.040039062 509.354492188 m 0
 185.040039062 576.032226562 162.877929688 599.549804688 133.650390625 599.549804688 c 0
 104.565429688 599.549804688 81.4501953125 572.231445312 81.4501953125 509.354492188 c 0
 81.4501953125 450.081054688 104.009765625 418.21484375 133.650390625 418.21484375 c 0
 162.759765625 418.21484375 185.040039062 443.551757812 185.040039062 509.354492188 c 0
228.779296875 147.419921875 m 0
 228.779296875 230.8125 274.098632812 303.870117188 352.349609375 303.870117188 c 0
 431.416015625 303.870117188 475.920898438 230.779296875 475.920898438 147.419921875 c 0
 475.920898438 65.07421875 431.51171875 -10.919921875 352.349609375 -10.919921875 c 0
 274.002929688 -10.919921875 228.779296875 65.04296875 228.779296875 147.419921875 c 0
403.739257812 147.419921875 m 0
 403.739257812 214.043945312 381.6484375 236.669921875 352.349609375 236.669921875 c 0
 323.099609375 236.669921875 300.150390625 212.098632812 300.150390625 147.419921875 c 0
 300.150390625 87.166015625 322.727539062 55.3349609375 352.349609375 55.3349609375 c 0
 381.44140625 55.3349609375 403.739257812 80.63671875 403.739257812 147.419921875 c 0
EndSplineSet
EndChar

StartChar: ampersand
Encoding: 38 38 7
Width: 486
GlyphClass: 2
Flags: MW
LayerCount: 2
Fore
SplineSet
331.60546875 64.1884765625 m 1
 291.953125 17.240234375 244.43359375 -12.599609375 183.384765625 -12.599609375 c 0
 84.982421875 -12.599609375 16.857421875 68.65234375 16.857421875 180.904296875 c 0
 16.857421875 270.743164062 65.38671875 328.619140625 117.4140625 376.90625 c 1
 94.99609375 432.071289062 82.12890625 487.21875 82.12890625 535.833984375 c 0
 82.12890625 627.70703125 130.595703125 701.400390625 205.69140625 701.400390625 c 0
 275.53515625 701.400390625 315.20703125 643.330078125 315.20703125 561.700195312 c 0
 315.20703125 473.3671875 255.912109375 415.658203125 199.990234375 361.856445312 c 1
 233.306640625 296.250976562 278.4921875 232.54296875 325.416015625 180.8046875 c 1
 354.67578125 234.999023438 375.8359375 300.357421875 391.228515625 376.46875 c 1
 463.568359375 376.46875 l 1
 443.390625 285.905273438 416.044921875 202.248046875 376.0859375 129.16015625 c 1
 409.59765625 97.171875 438.8125 78.1064453125 469.142578125 66.1669921875 c 1
 447.478515625 -14.0478515625 l 1
 409.056640625 0.71484375 372.373046875 24.8759765625 331.60546875 64.1884765625 c 1
172.05078125 422.140625 m 1
 216.126953125 462.670898438 250.673828125 502.559570312 250.673828125 558.599609375 c 0
 250.673828125 597.720703125 238.23828125 628.950195312 205.69140625 628.950195312 c 0
 171.57421875 628.950195312 149.96875 590.19140625 149.96875 534.450195312 c 0
 149.96875 499.51171875 157.96875 461.435546875 172.05078125 422.140625 c 1
92.134765625 189 m 1
 92.134765625 114.995117188 136.384765625 67.2001953125 191.646484375 67.2001953125 c 0
 222.58984375 67.2001953125 253.37109375 85.73828125 280.19921875 116.494140625 c 1
 230.42578125 173.40625 183.896484375 242.475585938 147.6796875 313.8203125 c 1
 115.388671875 276.728515625 100.994140625 208.912109375 92.134765625 189 c 1
EndSplineSet
EndChar

StartChar: quotesingle
Encoding: 39 39 8
Width: 486
GlyphClass: 2
Flags: MW
LayerCount: 2
Fore
SplineSet
284.5078125 463 m 5
 201.4921875 463 l 5
 201.4921875 740 l 5
 284.5078125 740 l 5
 284.5078125 463 l 5
EndSplineSet
EndChar

StartChar: parenleft
Encoding: 40 40 9
Width: 486
GlyphClass: 2
Flags: MW
LayerCount: 2
Fore
SplineSet
174.733398438 304.038085938 m 0
 174.733398438 146.540039062 258.110351562 6.67578125 381.673828125 -66.412109375 c 1
 361.298828125 -139.428710938 l 1
 359.823242188 -138.666015625 358.34765625 -137.904296875 356.873046875 -137.141601562 c 0
 199.98828125 -56.8251953125 98.53515625 114.177734375 98.53515625 300.872070312 c 0
 98.53515625 488.631835938 201.87109375 666.991210938 362.64453125 748.384765625 c 0
 364.10546875 749.129882812 365.565429688 749.875976562 367.025390625 750.62109375 c 1
 387.46484375 679.715820312 l 2
 386.55859375 679.19140625 385.654296875 678.666992188 384.75 678.142578125 c 0
 256.598632812 604.673828125 174.733398438 458.528320312 174.733398438 304.038085938 c 0
EndSplineSet
EndChar

StartChar: parenright
Encoding: 41 41 10
Width: 486
GlyphClass: 2
Flags: MW
LayerCount: 2
Fore
SplineSet
311.266601562 307.206054688 m 0
 311.266601562 464.704101562 227.888671875 604.568359375 104.326171875 677.65625 c 1
 124.700195312 750.672851562 l 1
 126.17578125 749.91015625 127.651367188 749.1484375 129.125976562 748.385742188 c 0
 286.010742188 668.069335938 387.46484375 497.06640625 387.46484375 310.372070312 c 0
 387.46484375 122.612304688 284.12890625 -55.7470703125 123.35546875 -137.139648438 c 0
 121.895507812 -137.885742188 120.435546875 -138.6328125 118.9765625 -139.37890625 c 1
 98.53515625 -68.4716796875 l 2
 99.439453125 -67.947265625 100.345703125 -67.4228515625 101.25 -66.8984375 c 0
 229.401367188 6.5703125 311.266601562 152.715820312 311.266601562 307.206054688 c 0
EndSplineSet
EndChar

StartChar: asterisk
Encoding: 42 42 11
Width: 486
GlyphClass: 2
Flags: MW
LayerCount: 2
Fore
SplineSet
209.086914062 373.806640625 m 1
 217.109375 561 l 1
 268.890625 561 l 1
 276.913085938 373.806640625 l 1
 425.796875 428.2890625 l 1
 443.025390625 373.252929688 l 1
 298.293945312 303.766601562 l 1
 394.931640625 139.721679688 l 1
 350.048828125 104.1015625 l 1
 243 261.701171875 l 1
 135.951171875 104.1015625 l 1
 91.068359375 139.721679688 l 1
 187.706054688 303.766601562 l 1
 42.974609375 373.252929688 l 1
 60.203125 428.2890625 l 1
 209.086914062 373.806640625 l 1
EndSplineSet
EndChar

StartChar: plus
Encoding: 43 43 12
Width: 486
GlyphClass: 2
Flags: MW
LayerCount: 2
Fore
SplineSet
210.330078125 81.400390625 m 5
 210.330078125 295.900390625 l 5
 30.150390625 295.900390625 l 5
 30.150390625 364.099609375 l 5
 210.330078125 364.099609375 l 5
 210.330078125 578.599609375 l 5
 275.669921875 578.599609375 l 5
 275.669921875 364.099609375 l 5
 455.849609375 364.099609375 l 5
 455.849609375 295.900390625 l 5
 275.669921875 295.900390625 l 5
 275.669921875 81.400390625 l 5
 210.330078125 81.400390625 l 5
EndSplineSet
EndChar

StartChar: comma
Encoding: 44 44 13
Width: 486
GlyphClass: 2
Flags: MW
LayerCount: 2
Fore
SplineSet
229.725585938 170.81640625 m 5
 306.776367188 157.208007812 l 5
 256.274414062 -134.33203125 l 5
 179.223632812 -120.724609375 l 5
 229.725585938 170.81640625 l 5
EndSplineSet
EndChar

StartChar: hyphen
Encoding: 45 45 14
Width: 486
GlyphClass: 2
Flags: MW
LayerCount: 2
Fore
SplineSet
30.150390625 295.900390625 m 5
 30.150390625 364.099609375 l 5
 455.849609375 364.099609375 l 5
 455.849609375 295.900390625 l 5
 30.150390625 295.900390625 l 5
EndSplineSet
EndChar

StartChar: period
Encoding: 46 46 15
Width: 486
GlyphClass: 2
Flags: MW
LayerCount: 2
Fore
SplineSet
171.512695312 81.919921875 m 4
 171.512695312 121.795898438 203.733398438 154.694335938 243 154.694335938 c 4
 282.267578125 154.694335938 314.487304688 121.795898438 314.487304688 81.919921875 c 4
 314.487304688 42.0439453125 282.267578125 9.1455078125 243 9.1455078125 c 4
 203.733398438 9.1455078125 171.512695312 42.0439453125 171.512695312 81.919921875 c 4
EndSplineSet
EndChar

StartChar: slash
Encoding: 47 47 16
Width: 486
GlyphClass: 2
Flags: MW
LayerCount: 2
Fore
SplineSet
103.975585938 -102 m 5
 36.96484375 -65.7001953125 l 5
 382.834960938 728.099609375 l 5
 449.03515625 690 l 5
 103.975585938 -102 l 5
EndSplineSet
EndChar

StartChar: zero
Encoding: 48 48 17
Width: 486
GlyphClass: 2
Flags: MW
LayerCount: 2
Fore
SplineSet
243 -12 m 0
 127.98046875 -12 57.5107421875 113 57.5107421875 332 c 0
 57.5107421875 553 127.98046875 669 243 669 c 0
 358.01953125 669 428.489257812 553 428.489257812 332 c 0
 428.489257812 113 358.01953125 -12 243 -12 c 0
243 59 m 0
 318.360351562 59 363.967773438 172.936523438 363.967773438 331.6328125 c 0
 363.967773438 356.1015625 362.903320312 379.380859375 360.831054688 401.263671875 c 1
 140.928710938 171.248046875 l 1
 161.452148438 101.708007812 196.861328125 59 243 59 c 0
124.650390625 256.93359375 m 1
 345.396484375 487.831054688 l 1
 325.380859375 558.573242188 289.96875 601 242.999023438 601 c 0
 167.638671875 601 120.903320312 491.782226562 120.903320312 331.6328125 c 0
 120.903320312 305.40625 122.1796875 280.40234375 124.650390625 256.93359375 c 1
EndSplineSet
EndChar

StartChar: one
Encoding: 49 49 18
Width: 486
GlyphClass: 2
Flags: MW
LayerCount: 2
Fore
SplineSet
300.196289062 650.6328125 m 5
 300.196289062 64.732421875 l 5
 422.66796875 64.732421875 l 5
 422.66796875 0 l 5
 84.5947265625 0 l 5
 84.5947265625 64.732421875 l 5
 228.75390625 64.732421875 l 5
 228.75390625 564.637695312 l 5
 94.375 473.916992188 l 5
 63.33203125 530.6171875 l 5
 237.684570312 650.6328125 l 5
 300.196289062 650.6328125 l 5
EndSplineSet
EndChar

StartChar: two
Encoding: 50 50 19
Width: 486
GlyphClass: 2
Flags: MW
LayerCount: 2
Fore
SplineSet
331.451171875 637.40234375 m 4
 358.100585938 621.65234375 378.513671875 600.075195312 392.688476562 572.669921875 c 4
 406.862304688 545.264648438 413.951171875 514.237304688 413.951171875 479.587890625 c 4
 413.951171875 439.58203125 405.586914062 400.6796875 388.860351562 362.879882812 c 4
 372.133789062 325.080078125 345.272460938 283.5 308.276367188 238.139648438 c 4
 271.279296875 192.779296875 219.044921875 135.922851562 151.571289062 67.5673828125 c 5
 427.557617188 67.5673828125 l 5
 418.627929688 0 l 5
 70.3486328125 0 l 5
 70.3486328125 64.732421875 l 5
 147.177734375 146.631835938 204.018554688 210.418945312 240.874023438 256.095703125 c 4
 277.729492188 301.770507812 303.244140625 340.908203125 317.418945312 373.510742188 c 4
 331.59375 406.114257812 338.681640625 440.52734375 338.681640625 476.751953125 c 4
 338.681640625 513.607421875 329.396484375 542.508789062 310.828125 563.456054688 c 4
 292.2578125 584.404296875 266.672851562 594.876953125 234.069335938 594.876953125 c 4
 206.002929688 594.876953125 182.685546875 589.600585938 164.116210938 579.048828125 c 4
 145.546875 568.49609375 126.764648438 550.619140625 107.770507812 525.419921875 c 5
 58.4423828125 567.9453125 l 5
 81.9716796875 599.759765625 107.983398438 623.227539062 136.474609375 638.34765625 c 4
 164.966796875 653.466796875 198.631835938 661.02734375 237.471679688 661.02734375 c 4
 273.4765625 661.02734375 304.801757812 653.15234375 331.451171875 637.40234375 c 4
EndSplineSet
EndChar

StartChar: three
Encoding: 51 51 20
Width: 486
GlyphClass: 2
Flags: MW
LayerCount: 2
Fore
SplineSet
330.6015625 639.056640625 m 4
 357.958007812 624.408203125 379.008789062 604.720703125 393.751953125 579.994140625 c 4
 408.493164062 555.266601562 415.864257812 528.09765625 415.864257812 498.487304688 c 4
 415.864257812 472.97265625 410.690429688 449.426757812 400.342773438 427.848632812 c 4
 389.994140625 406.271484375 376.103515625 388.474609375 358.66796875 374.456054688 c 4
 341.232421875 360.438476562 322.16796875 351.224609375 301.471679688 346.814453125 c 5
 325.286132812 344.610351562 347.2578125 337.12890625 367.385742188 324.37109375 c 4
 387.513671875 311.614257812 403.744140625 293.580078125 416.077148438 270.270507812 c 4
 428.409179688 246.959960938 434.575195312 219.397460938 434.575195312 187.583007812 c 4
 434.575195312 150.09765625 425.999023438 116.314453125 408.84765625 86.2314453125 c 4
 391.696289062 56.1484375 367.739257812 32.4453125 336.98046875 15.1201171875 c 4
 306.220703125 -2.2060546875 270.99609375 -10.8671875 231.305664062 -10.8671875 c 4
 196.71875 -10.8671875 163.407226562 -3.623046875 131.372070312 10.8671875 c 4
 99.3369140625 25.357421875 72.6875 47.0927734375 51.4248046875 76.072265625 c 5
 99.478515625 119.541992188 l 5
 115.637695312 98.4375 135.198242188 82.373046875 158.163085938 71.34765625 c 4
 181.126953125 60.322265625 204.939453125 54.810546875 229.604492188 54.810546875 c 4
 256.537109375 54.810546875 279.784179688 60.1650390625 299.345703125 70.875 c 4
 318.907226562 81.5849609375 333.862304688 96.94140625 344.209960938 116.943359375 c 4
 354.556640625 136.946289062 359.731445312 160.493164062 359.731445312 187.583007812 c 4
 359.731445312 269.797851562 319.333007812 310.904296875 238.53515625 310.904296875 c 6
 189.206054688 310.904296875 l 5
 198.13671875 373.748046875 l 5
 232.581054688 373.748046875 l 6
 252.142578125 373.748046875 270.428710938 377.920898438 287.439453125 386.268554688 c 4
 304.44921875 394.616210938 318.126953125 407.374023438 328.475585938 424.541015625 c 4
 338.822265625 441.708984375 343.997070312 462.577148438 343.997070312 487.147460938 c 4
 343.997070312 510.45703125 339.106445312 530.380859375 329.325195312 546.918945312 c 4
 319.544921875 563.456054688 306.291015625 576.056640625 289.565429688 584.71875 c 4
 272.838867188 593.380859375 254.127929688 597.712890625 233.432617188 597.712890625 c 4
 208.767578125 597.712890625 186.938476562 592.908203125 167.943359375 583.301757812 c 4
 148.948242188 573.693359375 129.38671875 558.495117188 109.258789062 537.705078125 c 5
 69.7109375 586.373046875 l 5
 117.338867188 636.142578125 172.762695312 661.02734375 235.983398438 661.02734375 c 4
 271.704101562 661.02734375 303.244140625 653.704101562 330.6015625 639.056640625 c 4
EndSplineSet
EndChar

StartChar: four
Encoding: 52 52 21
Width: 486
GlyphClass: 2
Flags: MW
LayerCount: 2
Fore
SplineSet
361.432617188 221.602539062 m 5
 437.126953125 221.602539062 l 5
 437.126953125 158.287109375 l 5
 361.432617188 158.287109375 l 5
 361.432617188 0 l 5
 292.541015625 0 l 5
 292.116210938 158.287109375 l 5
 48.873046875 158.287109375 l 5
 48.873046875 215.932617188 l 5
 220.673828125 661.02734375 l 5
 280.208984375 633.150390625 l 5
 124.567382812 221.602539062 l 5
 292.966796875 221.602539062 l 5
 301.897460938 406.349609375 l 5
 361.432617188 406.349609375 l 5
 361.432617188 221.602539062 l 5
EndSplineSet
EndChar

StartChar: five
Encoding: 53 53 22
Width: 486
GlyphClass: 2
Flags: MW
LayerCount: 2
Fore
SplineSet
407.784179688 650.6328125 m 1
 397.153320312 587.317382812 l 1
 165.817382812 587.317382812 l 1
 165.817382812 382.251953125 l 1
 183.110351562 392.647460938 199.6953125 399.892578125 215.571289062 403.987304688 c 0
 231.447265625 408.083007812 248.598632812 410.129882812 267.026367188 410.129882812 c 0
 299.061523438 410.129882812 327.127929688 402.09765625 351.2265625 386.033203125 c 0
 375.32421875 369.966796875 393.963867188 346.579101562 407.146484375 315.866210938 c 0
 420.330078125 285.154296875 426.920898438 248.53515625 426.920898438 206.009765625 c 0
 426.920898438 162.85546875 418.76953125 124.897460938 402.46875 92.1376953125 c 0
 386.16796875 59.376953125 363.0625 34.0205078125 333.153320312 16.064453125 c 0
 303.244140625 -1.8896484375 268.444335938 -10.8671875 228.75390625 -10.8671875 c 0
 194.734375 -10.8671875 163.903320312 -4.173828125 136.26171875 9.2138671875 c 0
 108.620117188 22.6005859375 82.8935546875 42.052734375 59.0791015625 67.5673828125 c 1
 103.3046875 114.817382812 l 1
 120.881835938 94.3427734375 140.017578125 79.22265625 160.713867188 69.4580078125 c 0
 181.41015625 59.6923828125 204.373046875 54.810546875 229.604492188 54.810546875 c 0
 268.444335938 54.810546875 298.56640625 67.8828125 319.970703125 94.02734375 c 0
 341.374023438 120.172851562 352.076171875 158.287109375 352.076171875 208.373046875 c 0
 352.076171875 257.512695312 342.5078125 292.950195312 323.372070312 314.685546875 c 0
 304.236328125 336.419921875 278.650390625 347.287109375 246.615234375 347.287109375 c 0
 230.454101562 347.287109375 215.92578125 345.633789062 203.026367188 342.326171875 c 0
 190.126953125 339.018554688 174.1796875 333.427734375 155.185546875 325.552734375 c 1
 97.77734375 325.552734375 l 1
 97.77734375 650.6328125 l 1
 407.784179688 650.6328125 l 1
EndSplineSet
EndChar

StartChar: six
Encoding: 54 54 23
Width: 486
GlyphClass: 2
Flags: MW
LayerCount: 2
Fore
SplineSet
350.375976562 400.916015625 m 0
 375.46484375 385.638671875 395.380859375 362.643554688 410.123046875 331.931640625 c 0
 424.865234375 301.21875 432.236328125 263.498046875 432.236328125 218.767578125 c 0
 432.236328125 172.147460938 424.0859375 131.512695312 407.784179688 96.8623046875 c 0
 391.483398438 62.212890625 369.299804688 35.5947265625 341.232421875 17.009765625 c 0
 313.166992188 -1.5751953125 282.124023438 -10.8671875 248.102539062 -10.8671875 c 0
 179.779296875 -10.8671875 130.30859375 16.6943359375 99.6904296875 71.8203125 c 0
 69.0732421875 126.9453125 53.763671875 205.537109375 53.763671875 307.59765625 c 0
 53.763671875 379.102539062 62.41015625 441.47265625 79.7041015625 494.708007812 c 0
 96.998046875 547.943359375 122.015625 588.970703125 154.760742188 617.793945312 c 0
 187.504882812 646.616210938 226.415039062 661.02734375 271.4921875 661.02734375 c 0
 314.583007812 661.02734375 353.139648438 648.427734375 387.16015625 623.227539062 c 1
 359.092773438 569.362304688 l 1
 332.161132812 587.6328125 302.53515625 596.767578125 270.215820312 596.767578125 c 0
 240.732421875 596.767578125 215.288085938 586.135742188 193.883789062 564.873046875 c 0
 172.479492188 543.611328125 155.96484375 513.450195312 144.341796875 474.389648438 c 0
 132.71875 435.330078125 126.338867188 389.182617188 125.205078125 335.947265625 c 1
 143.6328125 366.1875 164.469726562 388.395507812 187.717773438 402.5703125 c 0
 210.96484375 416.745117188 237.1875 423.833007812 266.388671875 423.833007812 c 0
 297.290039062 423.833007812 325.286132812 416.193359375 350.375976562 400.916015625 c 0
330.6015625 96.626953125 m 0
 349.595703125 125.448242188 359.092773438 165.532226562 359.092773438 216.876953125 c 0
 359.092773438 267.591796875 350.091796875 303.896484375 332.08984375 325.7890625 c 0
 314.088867188 347.681640625 288.501953125 358.626953125 255.33203125 358.626953125 c 0
 228.399414062 358.626953125 203.947265625 350.4375 181.9765625 334.057617188 c 0
 160.004882812 317.677734375 141.365234375 295.155273438 126.056640625 266.490234375 c 1
 127.190429688 217.03515625 132.080078125 176.71484375 140.727539062 145.529296875 c 0
 149.374023438 114.345703125 162.415039062 91.1923828125 179.850585938 76.072265625 c 0
 197.28515625 60.9521484375 219.89453125 53.392578125 247.677734375 53.392578125 c 0
 283.965820312 53.392578125 311.606445312 67.8037109375 330.6015625 96.626953125 c 0
EndSplineSet
EndChar

StartChar: seven
Encoding: 55 55 24
Width: 486
GlyphClass: 2
Flags: MW
LayerCount: 2
Fore
SplineSet
416.2890625 589.6796875 m 1
 182.827148438 -8.9775390625 l 1
 116.063476562 13.7021484375 l 1
 344.421875 584.482421875 l 1
 69.7109375 584.482421875 l 1
 69.7109375 650.6328125 l 1
 416.2890625 650.6328125 l 1
 416.2890625 589.6796875 l 1
EndSplineSet
EndChar

StartChar: eight
Encoding: 56 56 25
Width: 486
GlyphClass: 2
Flags: MW
LayerCount: 2
Fore
SplineSet
393.326171875 415.091796875 m 0
 376.45703125 391.939453125 351.013671875 369.966796875 316.993164062 349.177734375 c 1
 356.400390625 331.22265625 387.16015625 307.361328125 409.2734375 277.59375 c 0
 431.385742188 247.826171875 442.442382812 213.412109375 442.442382812 174.352539062 c 0
 442.442382812 139.072265625 434.220703125 107.336914062 417.77734375 79.1435546875 c 0
 401.334960938 50.9501953125 377.9453125 28.9013671875 347.611328125 12.994140625 c 0
 317.27734375 -2.9140625 281.838867188 -10.8671875 241.298828125 -10.8671875 c 0
 200.474609375 -10.8671875 165.1796875 -2.8349609375 135.412109375 13.2294921875 c 0
 105.64453125 29.294921875 82.8935546875 51.2666015625 67.1591796875 79.1435546875 c 0
 51.4248046875 107.021484375 43.5576171875 138.28515625 43.5576171875 172.935546875 c 0
 43.5576171875 246.014648438 82.6806640625 302.556640625 160.926757812 342.5625 c 1
 128.891601562 359.572265625 105.290039062 379.732421875 90.1220703125 403.041992188 c 0
 74.955078125 426.352539062 67.3720703125 455.805664062 67.3720703125 491.400390625 c 0
 67.3720703125 528.884765625 76.23046875 560.384765625 93.9501953125 585.900390625 c 0
 111.668945312 611.415039062 134.064453125 630.314453125 161.139648438 642.599609375 c 0
 188.213867188 654.884765625 215.5 661.02734375 243 661.02734375 c 0
 273.05078125 661.02734375 301.400390625 655.041992188 328.049804688 643.072265625 c 0
 354.69921875 631.102539062 376.45703125 612.674804688 393.326171875 587.790039062 c 0
 410.194335938 562.904296875 418.627929688 532.192382812 418.627929688 495.65234375 c 0
 418.627929688 465.09765625 410.194335938 438.244140625 393.326171875 415.091796875 c 0
152.634765625 433.283203125 m 0
 162.415039062 419.107421875 175.59765625 407.767578125 192.182617188 399.262695312 c 0
 208.767578125 390.7578125 233.502929688 380.677734375 266.388671875 369.022460938 c 1
 285.666015625 380.9921875 301.1171875 392.647460938 312.741210938 403.987304688 c 0
 324.364257812 415.327148438 333.153320312 428.084960938 339.106445312 442.259765625 c 0
 345.060546875 456.435546875 348.037109375 473.287109375 348.037109375 492.817382812 c 0
 348.037109375 525.892578125 338.822265625 551.958984375 320.395507812 571.016601562 c 0
 301.96875 590.073242188 276.168945312 599.602539062 243 599.602539062 c 0
 209.831054688 599.602539062 184.03125 589.995117188 165.604492188 570.779296875 c 0
 147.177734375 551.564453125 137.962890625 524.790039062 137.962890625 490.455078125 c 0
 137.962890625 466.514648438 142.853515625 447.458007812 152.634765625 433.283203125 c 0
348.461914062 240.501953125 m 0
 335.98828125 257.512695312 319.7578125 271.21484375 299.771484375 281.610351562 c 0
 279.784179688 292.004882812 249.9453125 304.762695312 210.255859375 319.8828125 c 1
 182.473632812 305.708007812 160.2890625 287.043945312 143.704101562 263.891601562 c 0
 127.120117188 240.739257812 118.826171875 210.262695312 118.826171875 172.462890625 c 0
 118.826171875 134.977539062 129.24609375 105.760742188 150.083007812 84.814453125 c 0
 170.919921875 63.8662109375 201.18359375 53.392578125 240.874023438 53.392578125 c 0
 267.5234375 53.392578125 290.34375 58.58984375 309.338867188 68.9853515625 c 0
 328.333007812 79.3798828125 342.721679688 93.6337890625 352.501953125 111.74609375 c 0
 362.282226562 129.858398438 367.173828125 150.412109375 367.173828125 173.408203125 c 0
 367.173828125 201.126953125 360.935546875 223.4921875 348.461914062 240.501953125 c 0
EndSplineSet
EndChar

StartChar: nine
Encoding: 57 57 26
Width: 486
GlyphClass: 2
Flags: MW
LayerCount: 2
Fore
SplineSet
348.037109375 627.952148438 m 0
 376.528320312 606.533203125 397.861328125 575.977539062 412.036132812 536.287109375 c 0
 426.211914062 496.59765625 433.298828125 449.189453125 433.298828125 394.064453125 c 0
 433.298828125 307.439453125 422.66796875 238.060546875 401.405273438 185.928710938 c 0
 380.142578125 133.795898438 347.469726562 92.373046875 303.385742188 61.6611328125 c 0
 259.30078125 30.9482421875 198.560546875 3.779296875 121.166015625 -19.845703125 c 1
 104.581054688 40.634765625 l 1
 160.713867188 57.9599609375 206.641601562 78.1982421875 242.362304688 101.3515625 c 0
 278.083007812 124.50390625 305.51171875 153.405273438 324.6484375 188.0546875 c 0
 343.784179688 222.705078125 354.627929688 265.387695312 357.1796875 316.102539062 c 1
 319.190429688 264.443359375 273.546875 238.612304688 220.249023438 238.612304688 c 0
 187.646484375 238.612304688 158.729492188 246.959960938 133.498046875 263.654296875 c 0
 108.266601562 280.349609375 88.4921875 304.369140625 74.17578125 335.7109375 c 0
 59.8583984375 367.053710938 52.701171875 403.987304688 52.701171875 446.512695312 c 0
 52.701171875 491.556640625 60.9931640625 530.145507812 77.5771484375 562.275390625 c 0
 94.162109375 594.404296875 116.842773438 618.739257812 145.618164062 635.276367188 c 0
 174.393554688 651.814453125 206.641601562 660.083007812 242.362304688 660.083007812 c 0
 284.321289062 660.083007812 319.544921875 649.373046875 348.037109375 627.952148438 c 0
301.258789062 323.426757812 m 0
 321.245117188 337.758789062 340.453125 358.78515625 358.879882812 386.504882812 c 1
 358.314453125 437.219726562 353.77734375 477.854492188 345.272460938 508.41015625 c 0
 336.766601562 538.96484375 324.081054688 561.172851562 307.212890625 575.033203125 c 0
 290.34375 588.892578125 268.727539062 595.822265625 242.362304688 595.822265625 c 0
 204.373046875 595.822265625 175.59765625 582.908203125 156.036132812 557.077148438 c 0
 136.474609375 531.248046875 126.694335938 493.447265625 126.694335938 443.677734375 c 0
 126.694335938 395.482421875 135.908203125 359.80859375 154.334960938 336.65625 c 0
 172.762695312 313.50390625 199.12890625 301.927734375 233.432617188 301.927734375 c 0
 258.6640625 301.927734375 281.272460938 309.09375 301.258789062 323.426757812 c 0
EndSplineSet
EndChar

StartChar: colon
Encoding: 58 58 27
Width: 486
GlyphClass: 2
Flags: MW
LayerCount: 2
Fore
SplineSet
171.512695312 375.739257812 m 0
 171.512695312 415.615234375 203.733398438 448.513671875 243 448.513671875 c 0
 282.267578125 448.513671875 314.487304688 415.615234375 314.487304688 375.739257812 c 0
 314.487304688 335.86328125 282.267578125 302.965820312 243 302.965820312 c 0
 203.733398438 302.965820312 171.512695312 335.86328125 171.512695312 375.739257812 c 0
243 155.194335938 m 0
 282.267578125 155.194335938 314.487304688 122.296875 314.487304688 82.4208984375 c 0
 314.487304688 42.544921875 282.267578125 9.646484375 243 9.646484375 c 0
 203.733398438 9.646484375 171.512695312 42.544921875 171.512695312 82.4208984375 c 0
 171.512695312 122.296875 203.733398438 155.194335938 243 155.194335938 c 0
EndSplineSet
EndChar

StartChar: semicolon
Encoding: 59 59 28
Width: 486
GlyphClass: 2
Flags: MW
LayerCount: 2
Fore
SplineSet
215.354492188 179.166015625 m 5
 292.405273438 165.55859375 l 5
 241.904296875 -125.982421875 l 5
 164.854492188 -112.375 l 5
 215.354492188 179.166015625 l 5
171.513671875 375.774414062 m 4
 171.513671875 415.650390625 203.732421875 448.548828125 243 448.548828125 c 4
 282.268554688 448.548828125 314.486328125 415.650390625 314.486328125 375.774414062 c 4
 314.486328125 335.8984375 282.268554688 303 243 303 c 4
 203.732421875 303 171.513671875 335.8984375 171.513671875 375.774414062 c 4
EndSplineSet
EndChar

StartChar: less
Encoding: 60 60 29
Width: 486
GlyphClass: 2
Flags: MW
LayerCount: 2
Fore
SplineSet
440.404296875 66.498046875 m 1
 390.578125 11.400390625 l 1
 85.595703125 330.40234375 l 1
 390.59765625 649.426757812 l 1
 440.388671875 593.673828125 l 1
 187.11328125 330.3984375 l 1
 440.404296875 66.498046875 l 1
EndSplineSet
EndChar

StartChar: equal
Encoding: 61 61 30
Width: 486
GlyphClass: 2
Flags: MW
LayerCount: 2
Fore
SplineSet
461.3671875 410.126953125 m 5
 24.6328125 410.126953125 l 5
 24.6328125 482.448242188 l 5
 461.3671875 482.448242188 l 5
 461.3671875 410.126953125 l 5
461.3671875 177.551757812 m 5
 24.6328125 177.551757812 l 5
 24.6328125 249.873046875 l 5
 461.3671875 249.873046875 l 5
 461.3671875 177.551757812 l 5
EndSplineSet
EndChar

StartChar: greater
Encoding: 62 62 31
Width: 486
GlyphClass: 2
Flags: MW
LayerCount: 2
Fore
SplineSet
400.698242188 330.40234375 m 5
 95.736328125 11.4228515625 l 5
 45.3017578125 66.4755859375 l 5
 298.61328125 330.3984375 l 5
 45.318359375 593.6953125 l 5
 95.716796875 649.404296875 l 5
 400.698242188 330.40234375 l 5
EndSplineSet
EndChar

StartChar: question
Encoding: 63 63 32
Width: 486
GlyphClass: 2
Flags: MW
LayerCount: 2
Fore
SplineSet
250 713 m 4
 365.072265625 713 434.384765625 632.594726562 434.384765625 550.474609375 c 4
 434.384765625 384.155273438 266 373.29296875 266 221.344726562 c 6
 266 218 l 5
 187.4140625 218 l 5
 187.4140625 226.541992188 l 6
 187.4140625 394.323242188 352.0546875 427.813476562 352.0546875 545.27734375 c 4
 352.0546875 604.529296875 304.342773438 638.83203125 241.661132812 638.83203125 c 4
 197.689453125 638.83203125 148.106445312 614.923828125 108.813476562 561.91015625 c 5
 53.615234375 608.6875 l 5
 107.876953125 679.372070312 175.155273438 713 250 713 c 4
227.5625 110.806640625 m 4
 264.049804688 110.806640625 290.245117188 79.62109375 290.245117188 41.16015625 c 4
 290.245117188 1.658203125 264.049804688 -28.48828125 227.5625 -28.48828125 c 4
 192.012695312 -28.48828125 164.8828125 1.658203125 164.8828125 41.16015625 c 4
 164.8828125 79.62109375 192.012695312 110.806640625 227.5625 110.806640625 c 4
EndSplineSet
EndChar

StartChar: at
Encoding: 64 64 33
Width: 486
GlyphClass: 2
Flags: MW
LayerCount: 2
Fore
SplineSet
436.677734375 -32.5078125 m 2
 389.75390625 -70.046875 341.491210938 -90.05859375 281.758789062 -90.05859375 c 0
 137.817382812 -90.05859375 17.0859375 52.611328125 17.0859375 315.543945312 c 0
 17.0859375 576.505859375 133.508789062 712 283.541015625 712 c 0
 409.6015625 712 468.9140625 603.346679688 468.9140625 464.024414062 c 2
 468.9140625 155.852539062 l 1
 415.874023438 155.852539062 l 1
 409.967773438 211.885742188 l 1
 382.971679688 175.26171875 338.5078125 143.609375 292.451171875 143.609375 c 0
 226.921875 143.609375 173.010742188 196.862304688 173.010742188 282.248046875 c 0
 173.010742188 389.794921875 259.358398438 439.3671875 408.236328125 461.044921875 c 1
 408.236328125 470.76953125 l 2
 408.236328125 567.188476562 370.299804688 644.97265625 279.9765625 644.97265625 c 0
 176.462890625 644.97265625 82.21875 535.119140625 82.21875 312.4921875 c 0
 82.21875 96.822265625 171.224609375 -23.029296875 283.541015625 -23.029296875 c 0
 336.142578125 -23.029296875 372.404296875 -7.013671875 406.491210938 22.27734375 c 2
 410.411132812 25.6455078125 l 1
 440.205078125 -29.6865234375 l 1
 436.677734375 -32.5078125 l 2
402.890625 398.166015625 m 1
 283.576171875 378.399414062 240.818359375 343.15625 240.818359375 285.743164062 c 0
 240.818359375 240.28515625 265.936523438 213.723632812 307.598632812 213.723632812 c 0
 337.4453125 213.723632812 370.73046875 234.720703125 402.890625 276.389648438 c 1
 402.890625 398.166015625 l 1
EndSplineSet
EndChar

StartChar: A
Encoding: 65 65 34
Width: 486
GlyphClass: 2
Flags: MW
LayerCount: 2
Fore
SplineSet
245.219726562 586 m 5
 243.383789062 586 l 5
 226.325195312 510.508789062 209.258789062 438.958984375 190.573242188 366.41796875 c 6
 165.631835938 268 l 5
 322.981445312 268 l 5
 296.198242188 373.6796875 268.741210938 476.786132812 245.219726562 586 c 5
25.9208984375 0 m 5
 206.145507812 656 l 5
 284.096679688 656 l 5
 464.306640625 0 l 5
 391.129882812 0 l 5
 340.6015625 199 l 5
 148.008789062 199 l 5
 96.6650390625 0 l 5
 25.9208984375 0 l 5
EndSplineSet
EndChar

StartChar: B
Encoding: 66 66 35
Width: 486
GlyphClass: 2
Flags: MW
LayerCount: 2
Fore
SplineSet
244.108398438 0 m 2
 80.189453125 0 l 1
 80.189453125 656 l 1
 231.75 656 l 2
 342.2890625 656 416.700195312 610.865234375 416.700195312 495.489257812 c 0
 416.700195312 430.563476562 386.712890625 372.439453125 323.291015625 352.172851562 c 1
 323.291015625 349.7734375 l 1
 401.196289062 334.565429688 446.669921875 282.331054688 446.669921875 192.413085938 c 0
 446.669921875 63.154296875 365.069335938 0 244.108398438 0 c 2
223.650390625 584 m 2
 149.219726562 584 l 1
 149.219726562 381 l 1
 220.41015625 381 l 2
 312.231445312 381 348.48046875 416.448242188 348.48046875 488.470703125 c 0
 348.48046875 558.374023438 306.58984375 584 223.650390625 584 c 2
234.221679688 309 m 2
 149.220703125 309 l 1
 149.220703125 72 l 1
 234.22265625 72 l 2
 326.271484375 72 378.450195312 108.536132812 378.450195312 196.474609375 c 0
 378.450195312 276.388671875 328.810546875 309 234.221679688 309 c 2
EndSplineSet
EndChar

StartChar: C
Encoding: 67 67 36
Width: 486
GlyphClass: 2
Flags: MW
LayerCount: 2
Fore
SplineSet
452.594726562 84.01953125 m 1
 410.216796875 23.65234375 358.176757812 -12 286.442382812 -12 c 0
 153.349609375 -12 52.650390625 114.303710938 52.650390625 328 c 0
 52.650390625 538.712890625 152.55078125 668 292.985351562 668 c 0
 357.440429688 668 408.556640625 629.415039062 439.63671875 587.005859375 c 1
 400.43359375 532.427734375 l 1
 372.809570312 568.537109375 338.231445312 593 292.985351562 593 c 0
 190.629882812 593 124.110351562 492.147460938 124.110351562 329.9921875 c 0
 124.110351562 165.833007812 190.641601562 63 292.984375 63 c 0
 342.256835938 63 379.287109375 89.5078125 413.359375 136.580078125 c 1
 452.594726562 84.01953125 l 1
EndSplineSet
EndChar

StartChar: D
Encoding: 68 68 37
Width: 486
GlyphClass: 2
Flags: MW
LayerCount: 2
Fore
SplineSet
205.872070312 0 m 2
 70.4697265625 0 l 1
 70.4697265625 656 l 1
 202.58984375 656 l 2
 364.524414062 656 451.530273438 538.703125 451.530273438 330.991210938 c 0
 451.530273438 122.3046875 364.553710938 0 205.872070312 0 c 2
197.73046875 586 m 2
 139.5 586 l 1
 139.5 70 l 1
 197.73046875 70 l 2
 320.090820312 70 380.0703125 165.879882812 380.0703125 330.98828125 c 0
 380.0703125 495.080078125 320.1171875 586 197.73046875 586 c 2
EndSplineSet
EndChar

StartChar: E
Encoding: 69 69 38
Width: 486
GlyphClass: 2
Flags: MW
LayerCount: 2
Fore
SplineSet
432.900390625 0 m 5
 92.33984375 0 l 5
 92.33984375 656 l 5
 424.799804688 656 l 5
 424.799804688 584 l 5
 162.1796875 584 l 5
 162.1796875 381 l 5
 384.299804688 381 l 5
 384.299804688 308 l 5
 162.1796875 308 l 5
 162.1796875 71 l 5
 432.900390625 71 l 5
 432.900390625 0 l 5
EndSplineSet
EndChar

StartChar: F
Encoding: 70 70 39
Width: 486
GlyphClass: 2
Flags: MW
LayerCount: 2
Fore
SplineSet
177.5703125 0 m 1
 107.73046875 0 l 1
 107.73046875 656 l 1
 437.760742188 656 l 1
 437.760742188 584 l 1
 177.5703125 584 l 1
 177.5703125 365 l 1
 398.0703125 365 l 1
 398.0703125 293 l 1
 177.5703125 293 l 1
 177.5703125 0 l 1
EndSplineSet
EndChar

StartChar: G
Encoding: 71 71 40
Width: 486
GlyphClass: 2
Flags: MW
LayerCount: 2
Fore
SplineSet
435.330078125 64.4072265625 m 1
 401.856445312 22.193359375 345.009765625 -12 275.135742188 -12 c 0
 139.571289062 -12 42.9287109375 114.321289062 42.9287109375 328 c 0
 42.9287109375 539.700195312 141.202148438 668 280.864257812 668 c 0
 352.591796875 668 398.858398438 626.39453125 429.114257812 587.021484375 c 1
 389.899414062 532.42578125 l 1
 363.82421875 566.629882812 332.647460938 593 280.864257812 593 c 0
 180.934570312 593 115.19921875 492.16015625 115.19921875 329.9921875 c 0
 115.19921875 165.78515625 174.409179688 63 279.228515625 63 c 0
 316.514648438 63 351.092773438 77.751953125 371.16015625 101.211914062 c 1
 371.16015625 270 l 1
 264.407226562 270 l 1
 264.407226562 341 l 1
 435.330078125 341 l 1
 435.330078125 64.4072265625 l 1
EndSplineSet
EndChar

StartChar: H
Encoding: 72 72 41
Width: 486
GlyphClass: 2
Flags: MW
LayerCount: 2
Fore
SplineSet
133.830078125 0 m 1
 63.9892578125 0 l 1
 63.9892578125 656 l 1
 133.830078125 656 l 1
 133.830078125 382 l 1
 355.76953125 382 l 1
 355.76953125 656 l 1
 425.610351562 656 l 1
 425.610351562 0 l 1
 355.76953125 0 l 1
 355.76953125 308 l 1
 133.830078125 308 l 1
 133.830078125 0 l 1
EndSplineSet
EndChar

StartChar: I
Encoding: 73 73 42
Width: 486
GlyphClass: 2
Flags: MW
LayerCount: 2
Fore
SplineSet
412.650390625 0 m 1
 76.9501953125 0 l 1
 76.9501953125 71 l 1
 209.346679688 71 l 1
 209.346679688 584 l 1
 76.9501953125 584 l 1
 76.9501953125 656 l 1
 412.650390625 656 l 1
 412.650390625 584 l 1
 280.252929688 584 l 1
 280.252929688 71 l 1
 412.650390625 71 l 1
 412.650390625 0 l 1
EndSplineSet
EndChar

StartChar: J
Encoding: 74 74 43
Width: 486
GlyphClass: 2
Flags: MW
LayerCount: 2
Fore
SplineSet
403.125976562 210.334960938 m 2
 403.125976562 88.4384765625 359.108398438 -12 225.423828125 -12 c 0
 164.830078125 -12 102.318359375 22.62109375 65.6103515625 98.1513671875 c 1
 109.000976562 150.690429688 l 1
 138.984375 91.6650390625 181.600585938 63 223.779296875 63 c 0
 300.405273438 63 334.095703125 110.08984375 334.095703125 217.408203125 c 2
 334.095703125 585 l 1
 109.545898438 585 l 1
 109.545898438 657 l 1
 403.125976562 657 l 1
 403.125976562 210.334960938 l 2
EndSplineSet
EndChar

StartChar: K
Encoding: 75 75 44
Width: 486
GlyphClass: 2
Flags: MW
LayerCount: 2
Fore
SplineSet
149.219726562 0 m 5
 79.3798828125 0 l 5
 79.3798828125 656 l 5
 149.219726562 656 l 5
 149.219726562 327 l 5
 150.309570312 327 l 5
 375.662109375 656 l 5
 454.86328125 656 l 5
 284.916992188 406.66015625 l 5
 473.97265625 0 l 5
 395.803710938 0 l 5
 240.419921875 343.108398438 l 5
 149.219726562 209.666015625 l 5
 149.219726562 0 l 5
EndSplineSet
EndChar

StartChar: L
Encoding: 76 76 45
Width: 486
GlyphClass: 2
Flags: MW
LayerCount: 2
Fore
SplineSet
441.810546875 0 m 1
 108.540039062 0 l 1
 108.540039062 656 l 1
 176.760742188 656 l 1
 176.760742188 71 l 1
 441.810546875 71 l 1
 441.810546875 0 l 1
EndSplineSet
EndChar

StartChar: M
Encoding: 77 77 46
Width: 486
GlyphClass: 2
Flags: MW
LayerCount: 2
Fore
SplineSet
364.6796875 0 m 1
 364.6796875 327.825195312 l 2
 364.6796875 391.603515625 371.939453125 489.200195312 375.958984375 558 c 1
 375.184570312 558 l 1
 345.359375 431.143554688 l 1
 268.338867188 173.37890625 l 1
 217.987304688 173.37890625 l 1
 142.590820312 431.196289062 l 1
 112.083984375 557.599609375 l 1
 116.932617188 501.28515625 123.298828125 391.098632812 123.298828125 327.825195312 c 2
 123.298828125 0 l 1
 58.3193359375 0 l 1
 58.3193359375 656 l 1
 142.510742188 656 l 1
 217.891601562 375.990234375 l 1
 243.859375 271 l 1
 245.733398438 271 l 1
 270.897460938 376.013671875 l 1
 347.08984375 656 l 1
 431.280273438 656 l 1
 431.280273438 0 l 1
 364.6796875 0 l 1
EndSplineSet
EndChar

StartChar: N
Encoding: 78 78 47
Width: 486
GlyphClass: 2
Flags: MW
LayerCount: 2
Fore
SplineSet
175.3046875 411.110351562 m 1
 175.3046875 411.110351562 124.229492188 546 124.147460938 546 c 1
 126.599609375 479.74609375 133.01953125 410.267578125 133.01953125 342.744140625 c 2
 133.01953125 0 l 1
 66.419921875 0 l 1
 66.419921875 656 l 1
 142.416992188 656 l 1
 314.21484375 244.889648438 l 1
 314.21484375 244.889648438 365.370117188 110 365.451171875 110 c 1
 362.921875 176.37109375 356.580078125 248.362304688 356.580078125 316.244140625 c 2
 356.580078125 656 l 1
 423.1796875 656 l 1
 423.1796875 0 l 1
 347.102539062 0 l 1
 175.3046875 411.110351562 l 1
EndSplineSet
EndChar

StartChar: O
Encoding: 79 79 48
Width: 486
GlyphClass: 2
Flags: MW
LayerCount: 2
Fore
SplineSet
306.431640625 659.55859375 m 0
 364.49609375 634.162109375 399.151367188 578.850585938 419.98046875 512.28125 c 0
 432.265625 471.5078125 439.571289062 422.581054688 440.134765625 371.275390625 c 2
 440.134765625 296.09765625 l 2
 439.876953125 272.591796875 438.130859375 248.857421875 434.900390625 224.89453125 c 0
 424.659179688 148.978515625 398.7734375 84.5576171875 356.91796875 42.71875 c 0
 330.006835938 15.8466796875 293.431640625 -3.677734375 243.588867188 -3.677734375 c 0
 220.14453125 -3.677734375 199.005859375 0.4560546875 180.162109375 8.7080078125 c 0
 141.516601562 25.685546875 113.263671875 55.7978515625 92.740234375 93.4560546875 c 0
 64.15625 145.884765625 46.7568359375 215.133789062 45.865234375 296.1015625 c 2
 45.865234375 371.284179688 l 2
 46.4345703125 422.936523438 53.654296875 471.09375 66.408203125 511.856445312 c 0
 79.966796875 556.860351562 101.063476562 596.596679688 129.471679688 625.58203125 c 0
 156.387695312 652.455078125 192.961914062 671.982421875 242.803710938 671.982421875 c 0
 266.250976562 671.982421875 287.453125 667.8359375 306.431640625 659.55859375 c 0
288.918945312 78.88671875 m 0
 328.512695312 100.107421875 348.8515625 144.203125 360.724609375 195.856445312 c 0
 367.294921875 225.936523438 370.274414062 261.233398438 370.850585938 296.112304688 c 2
 370.850585938 372.169921875 l 2
 369.560546875 450.24609375 355.767578125 518.091796875 321.578125 561.112304688 c 0
 303.806640625 582.752929688 279.05078125 599.01953125 242.805664062 599.01953125 c 0
 225.947265625 599.01953125 211.024414062 595.524414062 198.063476562 588.505859375 c 0
 171.58203125 574.171875 153.147460938 549.995117188 140.869140625 519.904296875 c 0
 124.391601562 479.5 115.708984375 428.096679688 114.766601562 372.188476562 c 2
 114.766601562 296.130859375 l 2
 115.3515625 261.399414062 119.09375 226.061523438 126.059570312 196.306640625 c 0
 133.91015625 162.150390625 146.275390625 129.862304688 164.828125 107.177734375 c 0
 182.491210938 85.1083984375 207.181640625 68.375 243.592773438 68.375 c 0
 260.7109375 68.375 275.828125 71.87109375 288.918945312 78.88671875 c 0
EndSplineSet
EndChar

StartChar: P
Encoding: 80 80 49
Width: 486
GlyphClass: 2
Flags: MW
LayerCount: 2
Fore
SplineSet
151.650390625 0 m 1
 82.6201171875 0 l 1
 82.6201171875 656 l 1
 243.900390625 656 l 2
 363.403320312 656 443.4296875 606.770507812 443.4296875 462.487304688 c 0
 443.4296875 324.235351562 362.68359375 259 243.900390625 259 c 2
 151.650390625 259 l 1
 151.650390625 0 l 1
235.799804688 587 m 2
 151.650390625 587 l 1
 151.650390625 329 l 1
 235.799804688 329 l 2
 330.32421875 329 373.58984375 370.392578125 373.58984375 462.482421875 c 0
 373.58984375 556.490234375 328.77734375 587 235.799804688 587 c 2
EndSplineSet
EndChar

StartChar: Q
Encoding: 81 81 50
Width: 486
GlyphClass: 2
Flags: MW
LayerCount: 2
Fore
SplineSet
354.001953125 627.686523438 m 0
 383.109375 598.500976562 404.666015625 557.03125 418.620117188 511.225585938 c 0
 430.911132812 469.315429688 438.604492188 418.567382812 439.163085938 366.100585938 c 2
 439.163085938 308.118164062 l 2
 438.279296875 224.112304688 421.21875 153.047851562 392.09375 98.6181640625 c 0
 381.182617188 78.2255859375 368.099609375 60.794921875 352.858398438 45.775390625 c 1
 450.400390625 -48.9599609375 l 1
 402.349609375 -102.506835938 l 1
 290.262695312 8.091796875 l 1
 274.717773438 2.859375 257.34765625 -0.20703125 237.513671875 -0.20703125 c 0
 213.30859375 -0.20703125 191.607421875 4.078125 172.391601562 12.62890625 c 0
 132.982421875 30.212890625 103.756835938 61.009765625 82.8330078125 99.6416015625 c 0
 53.59375 153.634765625 36.07421875 224.673828125 35.18359375 308.178710938 c 2
 35.18359375 366.149414062 l 2
 35.74609375 418.943359375 43.3525390625 468.915039062 56.111328125 510.794921875 c 0
 70.1953125 557.01171875 91.2685546875 598.078125 120.732421875 627.6953125 c 0
 148.284179688 655.26953125 185.947265625 675.453125 237.120117188 675.453125 c 0
 288.500976562 675.453125 325.935546875 655.19921875 354.001953125 627.686523438 c 0
285.138671875 82.580078125 m 0
 326.219726562 104.227539062 347.458007812 149.329101562 359.362304688 202.95703125 c 0
 365.97265625 234.857421875 368.9140625 271.466796875 369.48828125 308.18359375 c 2
 369.48828125 367.041015625 l 2
 369.228515625 383.662109375 368.385742188 400.978515625 366.958007812 418.953125 c 0
 362.307617188 477.557617188 347.299804688 529.208984375 319.725585938 563.678710938 c 0
 301.227539062 586.1953125 275.095703125 602.490234375 237.119140625 602.490234375 c 0
 219.240234375 602.490234375 203.548828125 598.921875 190.079101562 591.754882812 c 0
 162.626953125 577.1484375 143.727539062 552.4140625 131.15234375 521.3359375 c 0
 114.26171875 479.551757812 104.85546875 426.0234375 104.85546875 367.041015625 c 2
 104.85546875 308.201171875 l 2
 104.85546875 291.868164062 105.700195312 274.7109375 107.385742188 256.7265625 c 0
 112.8125 198.807617188 127.756835938 146.110351562 155.298828125 111.563476562 c 0
 173.5703125 88.7529296875 199.71875 71.8466796875 237.513671875 71.8466796875 c 0
 255.65625 71.8466796875 271.538085938 75.4140625 285.138671875 82.580078125 c 0
EndSplineSet
EndChar

StartChar: R
Encoding: 82 82 51
Width: 486
GlyphClass: 2
Flags: MW
LayerCount: 2
Fore
SplineSet
150.030273438 0 m 1
 81 0 l 1
 81 656 l 1
 247.9296875 656 l 2
 356.80078125 656 435.330078125 607.797851562 435.330078125 471.5625 c 0
 435.330078125 369.973632812 388.516601562 308.813476562 316.209960938 285.509765625 c 1
 452.120117188 0 l 1
 373.130859375 0 l 1
 244.110351562 276 l 1
 150.030273438 276 l 1
 150.030273438 0 l 1
238.130859375 587 m 2
 150.030273438 587 l 1
 150.030273438 346 l 1
 238.130859375 346 l 2
 321.08203125 346 366.244140625 387.407226562 366.244140625 471.479492188 c 0
 366.244140625 556.474609375 321.192382812 587 238.130859375 587 c 2
EndSplineSet
EndChar

StartChar: S
Encoding: 83 83 52
Width: 486
GlyphClass: 2
Flags: MW
LayerCount: 2
Fore
SplineSet
438.841796875 175.380859375 m 0
 438.841796875 71.1435546875 367.083984375 -12 249.150390625 -12 c 0
 169.836914062 -12 102.372070312 26.5673828125 54.26953125 85.9521484375 c 1
 95.890625 145.557617188 l 1
 135.641601562 96.4833984375 190.734375 63 252.424804688 63 c 0
 325.78125 63 368.19140625 105.521484375 368.19140625 165.66015625 c 0
 368.19140625 235 326.197265625 255.075195312 272.497070312 283.37109375 c 2
 195.567382812 324.219726562 l 2
 141.65234375 350.181640625 79.6513671875 397.311523438 79.6513671875 493.576171875 c 0
 79.6513671875 593.86328125 153.048828125 668 255.69921875 668 c 0
 323.551757812 668 382.07421875 634.465820312 421.280273438 586.064453125 c 1
 384.592773438 530.477539062 l 1
 349.663085938 568.5859375 309.2109375 593 253.243164062 593 c 0
 191.346679688 593 150.301757812 556.45703125 150.301757812 498.313476562 c 0
 150.301757812 436.212890625 200.189453125 414.526367188 245.450195312 390.5703125 c 2
 320.75390625 350.712890625 l 2
 386.58203125 317.766601562 438.841796875 272.580078125 438.841796875 175.380859375 c 0
EndSplineSet
EndChar

StartChar: T
Encoding: 84 84 53
Width: 486
GlyphClass: 2
Flags: MW
LayerCount: 2
Fore
SplineSet
455.580078125 584 m 1
 280.028320312 584 l 1
 280.620117188 0 l 1
 210.780273438 0 l 1
 209.571289062 584 l 1
 34.01953125 584 l 1
 34.01953125 656 l 1
 455.580078125 656 l 1
 455.580078125 584 l 1
EndSplineSet
EndChar

StartChar: U
Encoding: 85 85 54
Width: 486
GlyphClass: 2
Flags: MW
LayerCount: 2
Fore
SplineSet
425.610351562 248.220703125 m 6
 425.610351562 60.4375 350.677734375 -12 245.606445312 -12 c 4
 139.724609375 -12 63.9892578125 60.4296875 63.9892578125 248.220703125 c 6
 63.9892578125 656 l 5
 133.830078125 656 l 5
 133.830078125 246.381835938 l 6
 133.830078125 111.096679688 181.7265625 63 245.606445312 63 c 4
 309.491210938 63 358.200195312 111.10546875 358.200195312 246.381835938 c 6
 358.200195312 656 l 5
 425.610351562 656 l 5
 425.610351562 248.220703125 l 6
EndSplineSet
EndChar

StartChar: V
Encoding: 86 86 55
Width: 486
GlyphClass: 2
Flags: MW
LayerCount: 2
Fore
SplineSet
205.268554688 0 m 1
 34.8291015625 656 l 1
 107.994140625 656 l 1
 194.596679688 302.499023438 l 2
 212.979492188 226.306640625 226.168945312 163.940429688 245.7734375 87 c 1
 247.66015625 87 l 1
 267.061523438 163.126953125 281.604492188 227.826171875 298.836914062 302.500976562 c 2
 384.623046875 656 l 1
 455.357421875 656 l 1
 285.719726562 0 l 1
 205.268554688 0 l 1
EndSplineSet
EndChar

StartChar: W
Encoding: 87 87 56
Width: 486
GlyphClass: 2
Flags: MW
LayerCount: 2
Fore
SplineSet
89.3466796875 0 m 5
 8.099609375 657 l 5
 86.0810546875 657 l 5
 125.046875 245.5625 l 6
 129.70703125 193.00390625 133.125976562 158.91796875 135.543945312 95 c 5
 136.348632812 95 l 5
 145.993164062 159.448242188 151.66796875 191.456054688 162.154296875 245.23046875 c 6
 214.879882812 490 l 5
 281.483398438 490 l 5
 332.567382812 245.227539062 l 6
 343.864257812 191.43359375 348.737304688 159.436523438 358.374023438 95 c 5
 359.999023438 95 l 5
 363.208007812 159.135742188 364.837890625 191.001953125 369.674804688 244.568359375 c 6
 407.016601562 657 l 5
 481.7578125 657 l 5
 403.759765625 0 l 5
 318.005859375 0 l 5
 265.357421875 264.086914062 l 6
 257.2109375 303.71484375 250.640625 341.387695312 245.760742188 381 c 5
 244.881835938 381 l 5
 239.193359375 341.1484375 234.287109375 303.784179688 226.126953125 264.092773438 c 6
 173.4765625 0 l 5
 89.3466796875 0 l 5
EndSplineSet
EndChar

StartChar: X
Encoding: 88 88 57
Width: 486
GlyphClass: 2
Flags: MW
LayerCount: 2
Fore
SplineSet
117.059570312 0 m 1
 43.7392578125 0 l 1
 203.532226562 338.966796875 l 1
 54.2705078125 656 l 1
 130.83203125 656 l 1
 206.178710938 487.453125 l 2
 219.991210938 457.595703125 232.185546875 430.708984375 249.197265625 393 c 1
 251.30078125 393 l 1
 265.874023438 430.681640625 276.44921875 457.572265625 289.450195312 487.43359375 c 2
 363.16796875 656 l 1
 436.486328125 656 l 1
 287.208007812 334.984375 l 1
 447.034179688 0 l 1
 370.467773438 0 l 1
 327.231445312 94.7568359375 285.48046875 185.9453125 242.384765625 282 c 1
 240.283203125 282 l 1
 224.872070312 242.2578125 211.060546875 209.400390625 197.2578125 177.5546875 c 2
 117.059570312 0 l 1
EndSplineSet
EndChar

StartChar: Y
Encoding: 89 89 58
Width: 486
GlyphClass: 2
Flags: MW
LayerCount: 2
Fore
SplineSet
280.454101562 234.063476562 m 1
 280.454101562 0 l 1
 210.16796875 0 l 1
 210.16796875 234.063476562 l 1
 30.779296875 656 l 1
 104.0546875 656 l 1
 140.102539062 568.895507812 176.568359375 482.650390625 211.334960938 394.24609375 c 0
 222.413085938 366.073242188 233.651367188 337.498046875 245.892578125 308 c 1
 247.98046875 308 l 1
 268.7890625 360.010742188 289.897460938 409.817382812 310.510742188 461.40234375 c 2
 388.190429688 656 l 1
 459.852539062 656 l 1
 280.454101562 234.063476562 l 1
EndSplineSet
EndChar

StartChar: Z
Encoding: 90 90 59
Width: 486
GlyphClass: 2
Flags: MW
LayerCount: 2
Fore
SplineSet
440.189453125 0 m 1
 52.650390625 0 l 1
 52.650390625 51.107421875 l 1
 350.203125 585 l 1
 78.5703125 585 l 1
 78.5703125 657 l 1
 436.139648438 657 l 1
 436.139648438 605.716796875 l 1
 137.78125 71 l 1
 440.189453125 71 l 1
 440.189453125 0 l 1
EndSplineSet
EndChar

StartChar: bracketleft
Encoding: 91 91 60
Width: 486
GlyphClass: 2
Flags: MW
LayerCount: 2
Fore
SplineSet
187.411132812 735.169921875 m 1
 418.900390625 735.169921875 l 1
 418.900390625 668 l 1
 253.260742188 668 l 1
 253.260742188 -61 l 1
 418.900390625 -61 l 1
 418.900390625 -130.169921875 l 1
 187.099609375 -130.169921875 l 1
 187.411132812 735.169921875 l 1
EndSplineSet
EndChar

StartChar: backslash
Encoding: 92 92 61
Width: 486
GlyphClass: 2
Flags: MW
LayerCount: 2
Fore
SplineSet
103.975585938 728.099609375 m 1
 449.03515625 -63.900390625 l 1
 382.834960938 -102 l 1
 36.96484375 691.799804688 l 1
 103.975585938 728.099609375 l 1
EndSplineSet
EndChar

StartChar: bracketright
Encoding: 93 93 62
Width: 486
GlyphClass: 2
Flags: MW
LayerCount: 2
Fore
SplineSet
298.588867188 735.169921875 m 1
 298.900390625 -130.169921875 l 1
 67.099609375 -130.169921875 l 1
 67.099609375 -61 l 1
 232.739257812 -61 l 1
 232.739257812 668 l 1
 67.099609375 668 l 1
 67.099609375 735.169921875 l 1
 298.588867188 735.169921875 l 1
EndSplineSet
EndChar

StartChar: asciicircum
Encoding: 94 94 63
Width: 486
GlyphClass: 2
Flags: MW
LayerCount: 2
Fore
SplineSet
118.515625 419.069335938 m 1
 59.236328125 444.240234375 l 1
 240.627929688 712.729492188 l 1
 266.712890625 712.729492188 l 1
 426.763671875 445.290039062 l 1
 363.927734375 419.069335938 l 1
 248.928710938 602.606445312 l 1
 118.515625 419.069335938 l 1
EndSplineSet
EndChar

StartChar: underscore
Encoding: 95 95 64
Width: 486
GlyphClass: 2
Flags: MW
LayerCount: 2
Fore
SplineSet
48.599609375 -140 m 5
 48.599609375 -69 l 5
 437.400390625 -69 l 5
 437.400390625 -140 l 5
 48.599609375 -140 l 5
EndSplineSet
EndChar

StartChar: grave
Encoding: 96 96 65
Width: 486
GlyphClass: 2
Flags: MW
LayerCount: 2
Fore
SplineSet
351.053710938 539.619140625 m 1
 292.799804688 487.171875 l 1
 107.461914062 693.033203125 l 1
 165.715820312 745.479492188 l 1
 351.053710938 539.619140625 l 1
EndSplineSet
EndChar

StartChar: a
Encoding: 97 97 66
Width: 496
GlyphClass: 2
Flags: HW
LayerCount: 2
Fore
SplineSet
353.244140625 213.216796875 m 1
 330.534179688 220.555664062 299.446211012 225.099609375 267.362540511 225.099609375 c 0
 234.708004332 225.099609375 204.196253251 220.159179688 182.955078125 208.466796875 c 0
 162.176757812 196.662109375 144.52734375 177.329101562 144.52734375 144.778320312 c 0
 144.52734375 113.426757812 154.591796875 90.994140625 174.78125 78.5654296875 c 0
 194.89420091 66.3466796875 222.633175841 60.3603515625 257.39685682 60.3603515625 c 0
 293.315521393 60.3603515625 326.768554688 62.798828125 353.244140625 67.923828125 c 1
 353.244140625 70.2734375 353.244140625 213.393554688 353.244140625 213.216796875 c 1
115.66796875 478.794921875 m 1
 140.90625 489.611328125 191.875748638 498 250.562779133 498 c 0
 280.45065558 498 392.333984375 497.056640625 418.984375 389.513671875 c 0
 424.646484375 366.665039062 427.48828125 341.69140625 427.48828125 314.594726562 c 2
 427.48828125 313.899414062 426.391601562 9.44921875 426.391601562 7.16015625 c 1
 330.623046875 -10.732421875 301.301524466 -12 260.387785211 -12 c 0
 164.67578125 -12 111.784179688 13.8232421875 84.400390625 65.3056640625 c 0
 73.86328125 85.123046875 68.51171875 110.559570312 68.51171875 141.776367188 c 0
 68.51171875 169.421875 73.9853515625 192.538085938 84.8349609375 211.326171875 c 0
 106.46484375 248.791992188 141.353515625 272.33984375 186.619140625 282.880859375 c 0
 209.992578687 288.112304688 233.614184917 290.728515625 257.39685682 290.728515625 c 0
 290.805751216 290.728515625 323.379882812 285.9921875 353.33984375 278.421875 c 1
 353.33984375 278.421875 354.333984375 310.342773438 354.333984375 310.700195312 c 1
 354.333984375 388.68359375 318.775390625 428.932617188 243.58394622 428.932617188 c 0
 198.167503931 428.932617188 159.469726562 424.223632812 124.5546875 415 c 1
 124.5546875 416.78515625 115.66796875 477.3828125 115.66796875 478.794921875 c 1
EndSplineSet
EndChar

StartChar: b
Encoding: 98 98 67
Width: 486
GlyphClass: 2
Flags: MW
LayerCount: 2
Fore
SplineSet
169.708007812 478.879882812 m 4
 186.794921875 485.208984375 205.921875 488.407226562 227.130859375 488.407226562 c 4
 288.163085938 488.407226562 331.172851562 459.012695312 359.37109375 418.90234375 c 4
 389.360351562 376.243164062 407.041992188 314.233398438 407.041992188 238.265625 c 4
 407.041992188 159.087890625 385.592773438 97.00390625 351.703125 55.27734375 c 4
 319.391601562 15.4912109375 270.704101562 -11.8779296875 205.822265625 -11.8779296875 c 4
 172.073242188 -11.8779296875 142.073242188 -9.109375 115.84765625 -3.6123046875 c 4
 91.111328125 1.572265625 70.9892578125 6.7548828125 55.55859375 11.8857421875 c 5
 55.3125 712 l 5
 123.299804688 712 l 5
 123.545898438 455.791015625 l 5
 136.765625 464.60546875 147.748046875 470.74609375 169.708007812 478.879882812 c 4
196.557617188 53.6455078125 m 4
 240.104492188 53.6455078125 274.845703125 68.6630859375 299.897460938 98.998046875 c 4
 325.034179688 129.436523438 337.200195312 174.556640625 337.200195312 233.590820312 c 4
 337.200195312 284.724609375 328.211914062 330.364257812 309.587890625 361.401367188 c 4
 291.353515625 391.793945312 262.056640625 413.536132812 217.8671875 413.536132812 c 4
 199.3515625 413.536132812 181.446289062 409.446289062 164.2421875 401.305664062 c 4
 146.244140625 392.786132812 133.583984375 384.04296875 123.545898438 373.685546875 c 5
 123.545898438 65.0712890625 l 5
 145.40234375 58.6806640625 170.53515625 53.6455078125 196.557617188 53.6455078125 c 4
EndSplineSet
EndChar

StartChar: c
Encoding: 99 99 68
Width: 486
GlyphClass: 2
Flags: MW
LayerCount: 2
Fore
SplineSet
432.618164062 64.8525390625 m 1
 388.618164062 16.56640625 334.099609375 -12 274.578125 -12 c 0
 149.745117188 -12 56.982421875 81.1328125 56.982421875 242.00390625 c 0
 56.982421875 404.901367188 157.860351562 498 278.674804688 498 c 0
 343.901367188 498 391.000976562 465.46484375 423.713867188 426.087890625 c 1
 389.484375 371.461914062 l 1
 357.0390625 406.51171875 323.076171875 428 281.130859375 428 c 0
 189.92578125 428 127.631835938 352.96484375 127.631835938 242.005859375 c 0
 127.631835938 132.03515625 188.287109375 58 279.493164062 58 c 0
 328.815429688 58 369.172851562 85.44921875 401.681640625 119.563476562 c 1
 432.618164062 64.8525390625 l 1
EndSplineSet
EndChar

StartChar: d
Encoding: 100 100 69
Width: 486
GlyphClass: 2
Flags: MW
LayerCount: 2
Fore
SplineSet
298.357421875 401.305664062 m 0
 281.151367188 409.446289062 263.248046875 413.536132812 244.733398438 413.536132812 c 0
 223.763671875 413.536132812 205.536132812 408.94140625 190.236328125 399.537109375 c 0
 144.896484375 371.671875 125.399414062 311.682617188 125.399414062 233.590820312 c 0
 125.399414062 177.262695312 137.2890625 133.073242188 161.685546875 101.684570312 c 0
 185.99609375 70.408203125 217.96484375 54.673828125 256.77734375 54.673828125 c 0
 288.53515625 54.673828125 318.06640625 58.208984375 339.053710938 65.2041015625 c 1
 339.053710938 373.685546875 l 1
 329.0234375 384.034179688 316.345703125 392.791015625 298.357421875 401.305664062 c 0
407.041992188 11.9208984375 m 1
 391.05859375 6.76953125 370.938476562 1.578125 346.733398438 -3.615234375 c 0
 321.147460938 -9.107421875 291.1484375 -11.8779296875 256.77734375 -11.8779296875 c 0
 191.869140625 -11.8779296875 143.229492188 15.4658203125 110.895507812 55.27734375 c 0
 77.0146484375 96.9912109375 55.55859375 159.100585938 55.55859375 238.265625 c 0
 55.55859375 351.60546875 93.10546875 432.583984375 160.077148438 470.021484375 c 0
 181.93359375 482.240234375 207.017578125 488.407226562 235.46875 488.407226562 c 0
 257.956054688 488.407226562 277.572265625 485.361328125 294.327148438 479.377929688 c 0
 311.375 473.290039062 323.984375 466.877929688 332.014648438 460.502929688 c 2
 339.053710938 454.915039062 l 1
 338.8125 712 l 1
 406.799804688 712 l 1
 407.041992188 11.9208984375 l 1
EndSplineSet
EndChar

StartChar: e
Encoding: 101 101 70
Width: 486
GlyphClass: 5
Flags: MW
LayerCount: 2
Fore
SplineSet
422.915039062 44.044921875 m 1
 383.568359375 11.66015625 333.065429688 -15 267.921875 -15 c 0
 147.220703125 -15 52.650390625 79.2041015625 52.650390625 240.994140625 c 0
 52.650390625 398.786132812 151.381835938 495 259 495 c 0
 374.431640625 495 438.75 403.564453125 438.75 266.724609375 c 0
 438.75 247.05078125 437.041015625 229.103515625 435.3359375 215.5 c 1
 122.69921875 215.5 l 1
 131.245117188 108.280273438 194.094726562 54 276.153320312 54 c 0
 324.270507812 54 361.61328125 72.6142578125 397.404296875 100.733398438 c 1
 422.915039062 44.044921875 l 1
375.208984375 282.5 m 1
 369.189453125 379.89453125 326.13671875 427 259 427 c 0
 194.303710937 427 136.936523438 375.856445312 124.408203125 282.5 c 1
 375.208984375 282.5 l 1
EndSplineSet
EndChar

StartChar: f
Encoding: 102 102 71
Width: 486
GlyphClass: 2
Flags: MW
LayerCount: 2
Fore
SplineSet
403.005859375 417 m 1
 236.724609375 417 l 1
 237.765625 0 l 1
 170.35546875 0 l 1
 168.603515625 417 l 1
 41.35546875 417 l 1
 40.92578125 486 l 1
 168.603515625 485.9609375 l 1
 168.603515625 526 l 2
 168.603515625 645.352539062 220.287109375 712 330.53515625 712 c 0
 369.900390625 712 407.60546875 702.66015625 445.07421875 683.553710938 c 1
 429.189453125 619.561523438 l 1
 396.775390625 637.569335938 371.416015625 643 337.083984375 643 c 0
 266.44140625 643 236.724609375 607.685546875 236.724609375 529 c 2
 236.724609375 486 l 1
 403.005859375 486 l 1
 403.005859375 417 l 1
EndSplineSet
EndChar

StartChar: g
Encoding: 103 103 72
Width: 486
GlyphClass: 5
Flags: MW
LayerCount: 2
Fore
SplineSet
100.833984375 -107.6796875 m 1
 135.020507812 -122.771484375 177.018554688 -132.56640625 222.560546875 -132.56640625 c 0
 308.5 -132.56640625 350.432617188 -94.244140625 350.432617188 6.203125 c 2
 350.432617188 32.1875 l 1
 337.235351562 23.6728515625 326.494140625 18.001953125 303.997070312 9.87109375 c 0
 286.921875 3.525390625 267.045898438 0.3046875 244.36328125 0.3046875 c 0
 190.309570312 0.3046875 148.448242188 23.07421875 118.584960938 58.0625 c 0
 84.3369140625 98.1796875 64.416015625 159.541992188 64.416015625 240.065429688 c 0
 64.416015625 316.516601562 85.0634765625 376.826171875 117.744140625 418.416015625 c 0
 150.2890625 459.834960938 197.997070312 488.529296875 261.622070312 488.529296875 c 0
 297.759765625 488.529296875 329.3203125 485.505859375 356.232421875 479.525390625 c 0
 381.893554688 473.732421875 403.686523438 468.104492188 421.583984375 462.659179688 c 1
 421.583984375 16.232421875 l 2
 421.583984375 -61.3134765625 404.245117188 -116.206054688 370.567382812 -149.682617188 c 0
 336.709960938 -182.81640625 286.80859375 -199.849609375 220.743164062 -199.849609375 c 0
 171.229492188 -199.849609375 125.92578125 -190.20703125 88.2265625 -175.84375 c 1
 100.833984375 -107.6796875 l 1
315.000976562 407.208984375 m 0
 301.911132812 409.780273438 284.473632812 411.022460938 262.529296875 411.022460938 c 0
 222.778320312 411.022460938 191.799804688 394.723632812 170.647460938 361.982421875 c 0
 148.412109375 329.499023438 137.494140625 286.599609375 137.494140625 233.760742188 c 0
 137.494140625 178.06640625 149.684570312 135.669921875 172.668945312 106.8515625 c 0
 190.674804688 83.0634765625 215.603515625 67.2041015625 250.719726562 67.2041015625 c 0
 269.904296875 67.2041015625 288.065429688 70.490234375 305.157226562 77.08203125 c 0
 323.607421875 84.0234375 338.106445312 92.015625 350.430664062 101.682617188 c 1
 350.430664062 397.879882812 l 1
 340.620117188 401.512695312 330.3828125 404.3515625 315.000976562 407.208984375 c 0
EndSplineSet
EndChar

StartChar: h
Encoding: 104 104 73
Width: 486
GlyphClass: 2
Flags: MW
LayerCount: 2
Fore
SplineSet
144.263671875 724 m 5
 144.51171875 476.681640625 l 5
 150.865234375 479.505859375 l 6
 173.986328125 489.783203125 208.162109375 497.346679688 239.75 497.346679688 c 4
 304.490234375 497.346679688 348.748046875 476.305664062 375.8046875 436.22265625 c 4
 401.68359375 397.881835938 412.470703125 342.224609375 412.470703125 275.448242188 c 6
 412.470703125 0 l 5
 342.701171875 0 l 5
 342.701171875 256.168945312 l 6
 342.701171875 317.967773438 335.126953125 362.299804688 318.775390625 389.172851562 c 4
 302.181640625 416.447265625 272.677734375 429.462890625 232.0390625 429.462890625 c 4
 215 429.462890625 198.4296875 427.459960938 182.345703125 423.447265625 c 4
 164.455078125 418.985351562 154.072265625 415.323242188 144.51171875 410.49609375 c 5
 144.51171875 0 l 5
 73.77734375 0 l 5
 73.529296875 724 l 5
 144.263671875 724 l 5
EndSplineSet
EndChar

StartChar: i
Encoding: 105 105 74
Width: 486
GlyphClass: 2
Flags: MW
LayerCount: 2
Fore
SplineSet
255.959960938 0 m 5
 255.959960938 417 l 5
 72.900390625 417 l 5
 72.900390625 486 l 5
 324.1796875 486 l 5
 324.1796875 0 l 5
 255.959960938 0 l 5
337.139648438 651 m 4
 337.139648438 611.506835938 313.256835938 586 282.780273438 586 c 4
 252.302734375 586 228.419921875 611.506835938 228.419921875 651 c 4
 228.419921875 689.489257812 252.290039062 716 282.780273438 716 c 4
 313.270507812 716 337.139648438 689.489257812 337.139648438 651 c 4
EndSplineSet
EndChar

StartChar: j
Encoding: 106 106 75
Width: 486
GlyphClass: 2
Flags: MW
LayerCount: 2
Fore
SplineSet
326.211914062 -11 m 2
 326.211914062 -131.266601562 287.828125 -217 158.40625 -217 c 0
 116.397460938 -217 76.4296875 -202.630859375 44.5498046875 -183.456054688 c 1
 67.0908203125 -120.586914062 l 1
 95.44921875 -137.591796875 127.278320312 -148 157.577148438 -148 c 0
 237.236328125 -148 257.9921875 -99.7880859375 257.9921875 -17 c 2
 257.9921875 417 l 1
 73.1318359375 417 l 1
 73.1318359375 486 l 1
 326.211914062 486 l 1
 326.211914062 -11 l 2
314.736328125 651 m 0
 314.736328125 611.506835938 290.854492188 586 260.376953125 586 c 0
 229.899414062 586 206 611.506835938 206 651 c 0
 206 689.489257812 229.88671875 716 260.376953125 716 c 0
 290.8671875 716 314.736328125 689.489257812 314.736328125 651 c 0
EndSplineSet
EndChar

StartChar: k
Encoding: 107 107 76
Width: 486
GlyphClass: 2
Flags: MW
LayerCount: 2
Fore
SplineSet
154.080078125 0 m 1
 85.8603515625 0 l 1
 85.8603515625 712 l 1
 154.080078125 712 l 1
 154.080078125 230 l 1
 156.040039062 230 l 1
 369.874023438 486 l 1
 448.622070312 486 l 1
 289.8046875 294.692382812 l 1
 469.327148438 0 l 1
 392.634765625 0 l 1
 246.9140625 244.377929688 l 1
 154.080078125 132.611328125 l 1
 154.080078125 0 l 1
EndSplineSet
EndChar

StartChar: l
Encoding: 108 108 77
Width: 486
GlyphClass: 2
Flags: MW
LayerCount: 2
Fore
SplineSet
394.799804688 -1.125 m 1
 181.080078125 -1.125 l 1
 181.078125 644.821289062 l 1
 34.7998046875 644.821289062 l 1
 34.7998046875 712.419921875 l 1
 248.521484375 712.419921875 l 1
 248.521484375 66.8798828125 l 1
 394.799804688 66.8798828125 l 1
 394.799804688 -1.125 l 1
EndSplineSet
EndChar

StartChar: m
Encoding: 109 109 78
Width: 486
GlyphClass: 2
Flags: MW
LayerCount: 2
Fore
SplineSet
385.737304688 0 m 1
 385.946289062 344.77734375 l 2
 385.946289062 370.435546875 380.4296875 390.782226562 368.631835938 405.1953125 c 0
 357.020507812 420.072265625 342.0390625 427.784179688 324.478515625 427.784179688 c 0
 315.560546875 427.784179688 306.4453125 425.129882812 297.172851562 420.0390625 c 0
 286.896484375 415.159179688 277.819335938 406.970703125 269.60546875 396.984375 c 1
 273.712890625 380.779296875 276.1484375 362.845703125 276.1484375 342.697265625 c 2
 275.940429688 0 l 1
 208.849609375 0 l 1
 210.055664062 344.409179688 l 2
 210.127929688 368.870117188 206.244140625 388.549804688 198.3359375 403.342773438 c 0
 189.796875 420.029296875 173.10546875 427.78515625 150.607421875 427.78515625 c 0
 135.594726562 427.78515625 117.502929688 422.895507812 100.258789062 415.892578125 c 1
 100.049804688 0 l 1
 33.955078125 0 l 1
 34.1630859375 472.127929688 l 1
 72.98828125 489.424804688 109.4453125 498 143.532226562 498 c 0
 184.530273438 498 217.771484375 485.071289062 239.163085938 463.064453125 c 2
 242.265625 459.873046875 l 1
 245.6640625 462.719726562 l 2
 273.927734375 486.387695312 303.796875 497.999023438 335.599609375 497.999023438 c 0
 371.330078125 497.999023438 397.884765625 480.64453125 416.426757812 456.581054688 c 0
 438.22265625 431.010742188 452.044921875 392.640625 452.044921875 342.696289062 c 2
 451.836914062 0 l 1
 385.737304688 0 l 1
EndSplineSet
EndChar

StartChar: n
Encoding: 110 110 79
Width: 486
GlyphClass: 2
Flags: MW
LayerCount: 2
Fore
SplineSet
364.255859375 449.563476562 m 4
 392.671875 417.658203125 407.4140625 365.755859375 407.4140625 292.919921875 c 6
 407.482421875 0 l 5
 339.73046875 0 l 5
 339.66015625 277.3203125 l 6
 339.66015625 308.8203125 337.1640625 334.536132812 332 354.614257812 c 4
 326.87890625 374.5390625 319.599609375 390.374023438 309.900390625 401.89453125 c 4
 292.384765625 422.6953125 266.576171875 432.080078125 232.201171875 432.080078125 c 4
 203.27734375 432.080078125 172.400390625 427.190429688 147.205078125 421.858398438 c 5
 147.2734375 0 l 5
 78.5859375 0 l 5
 78.517578125 475.145507812 l 5
 125.998046875 487.807617188 181.521484375 498 235.9453125 498 c 4
 293.23828125 498 335.72265625 481.600585938 364.255859375 449.563476562 c 4
EndSplineSet
EndChar

StartChar: o
Encoding: 111 111 80
Width: 486
GlyphClass: 2
Flags: MW
LayerCount: 2
Fore
SplineSet
441 242.00390625 m 0
 441 81.1865234375 349.927734375 -12 244.799804688 -12 c 0
 139.671875 -12 48.599609375 81.1865234375 48.599609375 242.00390625 c 0
 48.599609375 404.807617188 139.668945312 498 244.799804688 498 c 0
 349.931640625 498 441 404.807617188 441 242.00390625 c 0
119.25 242.005859375 m 0
 119.25 131.880859375 169.37890625 58 244.799804688 58 c 0
 320.220703125 58 370.349609375 131.880859375 370.349609375 242.005859375 c 0
 370.349609375 353.1328125 320.211914062 428 244.799804688 428 c 0
 169.387695312 428 119.25 353.1328125 119.25 242.005859375 c 0
EndSplineSet
EndChar

StartChar: p
Encoding: 112 112 81
Width: 486
GlyphClass: 2
Flags: MW
LayerCount: 2
Fore
SplineSet
311.115234375 360.690429688 m 4
 287.32421875 393.524414062 256.03515625 410.051757812 218.017578125 410.051757812 c 4
 183.197265625 410.051757812 158.80859375 407.266601562 135.568359375 397.879882812 c 5
 135.568359375 78.6337890625 l 5
 145.943359375 67.927734375 159.15234375 58.9853515625 177.388671875 50.53515625 c 4
 194.220703125 42.4541015625 211.724609375 38.3994140625 229.82421875 38.3994140625 c 4
 250.361328125 38.3994140625 268.19921875 43.1708984375 283.162109375 52.9248046875 c 4
 327.93359375 81.6591796875 348.50390625 142.7265625 348.50390625 223.154296875 c 4
 348.50390625 281.703125 336.142578125 327.759765625 311.115234375 360.690429688 c 4
371.958984375 40.5458984375 m 4
 342.615234375 -1.1552734375 298.80078125 -31.7685546875 238.912109375 -31.7685546875 c 4
 216.845703125 -31.7685546875 197.587890625 -28.599609375 181.1328125 -22.3662109375 c 4
 164.09375 -16.044921875 151.037109375 -9.046875 142.701171875 -1.7666015625 c 6
 135.568359375 4.4599609375 l 5
 135.568359375 -212.66015625 l 5
 64.416015625 -212.66015625 l 5
 64.416015625 462.751953125 l 5
 81.083984375 468.133789062 102.228515625 473.5546875 127.791015625 478.978515625 c 4
 154.75390625 484.619140625 184.912109375 487.458984375 218.017578125 487.458984375 c 4
 281.73046875 487.458984375 330.310546875 459.013671875 363.974609375 417.599609375 c 4
 399.24609375 374.216796875 421.583984375 309.622070312 421.583984375 227.298828125 c 4
 421.583984375 149.265625 402.916015625 84.5419921875 371.958984375 40.5458984375 c 4
EndSplineSet
EndChar

StartChar: q
Encoding: 113 113 82
Width: 486
GlyphClass: 2
Flags: MW
LayerCount: 2
Fore
SplineSet
167.137695312 92.509765625 m 0
 185.1640625 60.9580078125 213.818359375 38.400390625 257.081054688 38.400390625 c 0
 275.181640625 38.400390625 292.6875 42.455078125 309.518554688 50.5361328125 c 0
 327.8203125 58.990234375 341.010742188 67.919921875 351.393554688 78.6337890625 c 1
 351.393554688 397.879882812 l 1
 342.272460938 401.564453125 332.72265625 404.313476562 318.2734375 406.784179688 c 0
 305.969726562 408.98828125 289.611328125 410.052734375 268.890625 410.052734375 c 0
 230.869140625 410.052734375 199.444335938 393.528320312 175.354492188 360.715820312 c 0
 150.0234375 327.78515625 137.495117188 281.713867188 137.495117188 223.155273438 c 0
 137.495117188 169.987304688 147.771484375 124.788085938 167.137695312 92.509765625 c 0
122.025390625 417.599609375 m 0
 155.634765625 458.946289062 205.235351562 487.458984375 268.891601562 487.458984375 c 0
 301.373046875 487.458984375 330.885742188 484.44140625 357.176757812 478.458984375 c 0
 382.234375 472.671875 403.7109375 467.05078125 421.583984375 461.607421875 c 1
 421.583984375 -212.66015625 l 1
 350.162109375 -212.66015625 l 1
 350.431640625 3.533203125 l 1
 343.580078125 -1.5419921875 l 2
 334.452148438 -8.302734375 320.944335938 -15.1572265625 303.893554688 -21.8564453125 c 0
 287.432617188 -28.4375 268.811523438 -31.7685546875 247.99609375 -31.7685546875 c 0
 188.081054688 -31.7685546875 144.369140625 -1.181640625 115.004882812 40.5458984375 c 0
 84.080078125 84.498046875 64.416015625 149.315429688 64.416015625 227.298828125 c 0
 64.416015625 309.635742188 86.744140625 374.205078125 122.025390625 417.599609375 c 0
EndSplineSet
EndChar

StartChar: r
Encoding: 114 114 83
Width: 486
GlyphClass: 2
Flags: MW
LayerCount: 2
Fore
SplineSet
409.549804688 420.908203125 m 1
 374.475585938 431.451171875 350.380859375 434.37109375 309 434.37109375 c 0
 269.071289062 434.37109375 227.765625 427.485351562 187.275390625 415.345703125 c 1
 186.518554688 0 l 1
 118 0 l 1
 118.756835938 462.654296875 l 1
 181.603515625 486.229492188 245.002929688 498 309 498 c 0
 353.12109375 498 383.33984375 496.991210938 421.872070312 487.541992188 c 1
 409.549804688 420.908203125 l 1
EndSplineSet
EndChar

StartChar: s
Encoding: 115 115 84
Width: 486
GlyphClass: 2
Flags: MW
LayerCount: 2
Fore
SplineSet
431.024414062 133.345703125 m 0
 431.024414062 53.9951171875 368.0546875 -12 254.374023438 -12 c 0
 175.818359375 -12 106.701171875 23.4775390625 58.5751953125 64.765625 c 1
 90.3291015625 120.474609375 l 1
 135.82421875 80.35546875 188.474609375 54 262.568359375 54 c 0
 329.434570312 54 361.994140625 88.5927734375 361.994140625 128.6640625 c 0
 361.994140625 164.802734375 346.497070312 190.41015625 238.6015625 217.290039062 c 0
 135.651367188 243.188476562 83.1748046875 286.2265625 83.1748046875 359.623046875 c 0
 83.1748046875 437.950195312 139.662109375 498 248.638671875 498 c 0
 310.009765625 498 370.252929688 468.51171875 409.4765625 435.220703125 c 1
 376.0625 380.5625 l 1
 339.555664062 411.612304688 293.977539062 432 242.90234375 432 c 0
 175.181640625 432 152.204101562 399.491210938 152.204101562 363.309570312 c 0
 152.204101562 322.389648438 185.603515625 304.5859375 266.87890625 283.640625 c 0
 398.831054688 248.774414062 431.024414062 207.607421875 431.024414062 133.345703125 c 0
EndSplineSet
EndChar

StartChar: t
Encoding: 116 116 85
Width: 486
GlyphClass: 2
Flags: MW
LayerCount: 2
Fore
SplineSet
331 -12 m 0
 212.53125 -12 172.354492188 71.494140625 174.154296875 195.030273438 c 2
 177.40625 419.360351562 l 1
 43 419.360351562 l 1
 43 486.360351562 l 1
 177.834960938 486.360351562 l 1
 177.111328125 668 l 1
 241.911132812 668 l 1
 242.634765625 486.360351562 l 1
 442 486.360351562 l 1
 442 419.360351562 l 1
 242.206054688 419.360351562 l 1
 242.56640625 194 l 2
 242.709960938 104.401367188 266.759765625 57.0107421875 345.184570312 57.0107421875 c 0
 383.5625 57.0107421875 413.596679688 66.2802734375 442.796875 79.669921875 c 1
 457.81640625 17.8701171875 l 1
 421.10546875 1.390625 381.89453125 -12 331 -12 c 0
EndSplineSet
EndChar

StartChar: u
Encoding: 117 117 86
Width: 486
GlyphClass: 2
Flags: MW
LayerCount: 2
Fore
SplineSet
138.631835938 486 m 1
 138.631835938 227.138671875 l 2
 138.631835938 166.5078125 146.548828125 122.793945312 163.563476562 96.103515625 c 0
 180.721679688 69.1904296875 209.39453125 56.1748046875 248.06640625 56.1748046875 c 0
 264.708984375 56.1748046875 282.88671875 57.822265625 297.787109375 59.890625 c 0
 310.479492188 61.654296875 323.838867188 63.662109375 332.920898438 67.0244140625 c 1
 332.833007812 486.000976562 l 1
 402.297851562 486.000976562 l 1
 402.385742188 12.541015625 l 1
 385.958984375 7.9599609375 364.641601562 3.044921875 338.4921875 -2.1787109375 c 0
 310.790039062 -7.712890625 278.112304688 -10.5029296875 240.501953125 -10.5029296875 c 0
 207.536132812 -10.5029296875 180.422851562 -5.125 159.129882812 5.3515625 c 0
 137.685546875 15.904296875 120.379882812 30.771484375 106.990234375 50.046875 c 0
 80.6455078125 87.966796875 70.111328125 141.85546875 70.111328125 208.231445312 c 2
 70.111328125 486 l 1
 138.631835938 486 l 1
EndSplineSet
EndChar

StartChar: v
Encoding: 118 118 87
Width: 486
GlyphClass: 2
Flags: MW
LayerCount: 2
Fore
SplineSet
209.443359375 0 m 1
 40.91015625 486 l 1
 110.07421875 486 l 1
 202.607421875 210.665039062 l 2
 218.934570312 162.125 233.453125 114.576171875 247.1640625 69 c 1
 249.104492188 69 l 1
 263.458007812 116.767578125 275.833984375 162.483398438 292.0546875 210.663085938 c 2
 382.775390625 486 l 1
 448.689453125 486 l 1
 285.209960938 0 l 1
 209.443359375 0 l 1
EndSplineSet
EndChar

StartChar: w
Encoding: 119 119 88
Width: 486
GlyphClass: 2
Flags: MW
LayerCount: 2
Fore
SplineSet
95.353515625 0 m 5
 11.2109375 486 l 5
 76.302734375 486 l 5
 122.342773438 204 l 6
 129.486328125 158 135.04296875 116 139.806640625 70 c 5
 142.98046875 70 l 5
 147.744140625 116 156.475585938 159 165.208007812 204 c 6
 212.834960938 456 l 5
 277.926757812 456 l 5
 323.967773438 204 l 6
 332.69921875 158 343.01953125 116 347.78125 70 c 5
 350.95703125 70 l 5
 357.306640625 116 361.275390625 158 368.420898438 204 c 6
 414.4609375 486 l 5
 474.7890625 486 l 5
 392.234375 0 l 5
 308.091796875 0 l 5
 263.639648438 232 l 6
 257.288085938 266 250.9375 314 244.587890625 376 c 5
 241.412109375 376 l 5
 235.0625 314 228.711914062 266 222.360351562 232 c 6
 179.49609375 0 l 5
 95.353515625 0 l 5
EndSplineSet
EndChar

StartChar: x
Encoding: 120 120 89
Width: 486
GlyphClass: 2
Flags: MW
LayerCount: 2
Fore
SplineSet
124.900390625 0 m 1
 51.455078125 0 l 1
 202.486328125 251.96484375 l 1
 62.80078125 486 l 1
 138.7734375 486 l 1
 201.907226562 378.505859375 l 2
 215.697265625 352.665039062 231.91015625 323.854492188 248.1328125 297 c 1
 250.397460938 297 l 1
 265.020507812 323.873046875 281.247070312 353.70703125 295.03125 380.529296875 c 2
 354.879882812 486 l 1
 427.561523438 486 l 1
 286.279296875 245.006835938 l 1
 438.14453125 0 l 1
 363.063476562 0 l 1
 293.405273438 112.459960938 l 2
 277.16796875 140.311523438 258.510742188 172.1171875 241.452148438 200 c 1
 239.172851562 200 l 1
 222.696289062 170.73828125 207.927734375 142.418945312 190.462890625 112.459960938 c 2
 124.900390625 0 l 1
EndSplineSet
EndChar

StartChar: y
Encoding: 121 121 90
Width: 486
GlyphClass: 2
Flags: MW
LayerCount: 2
Fore
SplineSet
276.615234375 -37.5517578125 m 2
 247.087890625 -133.869140625 197.184570312 -209 105.32421875 -209 c 0
 84.771484375 -209 64.6083984375 -204.1484375 49.5595703125 -197.591796875 c 1
 64.763671875 -125.822265625 l 1
 75.82421875 -130.0234375 89.705078125 -134 102.893554688 -134 c 0
 155.903320312 -134 188.534179688 -91.90625 208.012695312 -32.34375 c 2
 219.858398438 2.4326171875 l 1
 33.9228515625 486 l 1
 108.500976562 486 l 1
 152.642578125 363.497070312 196.466796875 244.630859375 239.184570312 120.416015625 c 0
 244.07421875 106.19921875 248.918945312 92.109375 253.62890625 78.5380859375 c 1
 266.942382812 122.780273438 281.067382812 172.427734375 294.65234375 214.59765625 c 2
 381.684570312 486 l 1
 452.077148438 486 l 1
 276.615234375 -37.5517578125 l 2
EndSplineSet
EndChar

StartChar: z
Encoding: 122 122 91
Width: 486
GlyphClass: 2
Flags: MW
LayerCount: 2
Fore
SplineSet
432.900390625 0 m 1
 56.7001953125 0 l 1
 56.7001953125 45.1337890625 l 1
 327.2578125 417 l 1
 86.669921875 417 l 1
 86.669921875 486 l 1
 425.609375 486 l 1
 425.609375 440.865234375 l 1
 154.244140625 69 l 1
 432.900390625 69 l 1
 432.900390625 0 l 1
EndSplineSet
EndChar

StartChar: braceleft
Encoding: 123 123 92
Width: 486
GlyphClass: 2
Flags: MW
LayerCount: 2
Fore
SplineSet
64.3564453125 333.439453125 m 1
 144.75 333.439453125 l 2
 192.590820312 333.439453125 235.45703125 356.180664062 235.45703125 399.896484375 c 0
 235.45703125 414.180664062 231.180664062 429.424804688 222.385742188 445.65625 c 0
 213.38671875 462.263671875 203.155273438 479.53125 191.715820312 497.419921875 c 0
 180.561523438 515.569335938 171.03125 534.505859375 162.637695312 554.223632812 c 0
 154.102539062 574.275390625 149.805664062 594.739257812 149.805664062 615.537109375 c 0
 149.805664062 668.796875 178.944335938 706.474609375 218.110351562 726.805664062 c 0
 240.524414062 738.318359375 266.79296875 744 296.71484375 744 c 0
 313.861328125 744 332.825195312 742.2265625 353.82421875 738.70703125 c 0
 376.388671875 734.927734375 399.534179688 726.31640625 421.610351562 715.057617188 c 1
 399.295898438 655.407226562 l 1
 366.13671875 670.7265625 340.200195312 677.963867188 297.7578125 677.963867188 c 0
 253.046875 677.963867188 223.19921875 654.275390625 223.19921875 615.014648438 c 0
 223.19921875 600.662109375 227.491210938 584.658203125 236.330078125 567.037109375 c 0
 254.208007812 531.3984375 280.0703125 492.522460938 297.981445312 456.815429688 c 0
 306.677734375 438.319335938 311.041015625 420.75390625 311.041015625 404.123046875 c 0
 311.041015625 378.396484375 302.448242188 355.118164062 284.223632812 334.732421875 c 0
 269.166992188 318.172851562 250.751953125 305.9375 229.17578125 298.125 c 1
 251.319335938 290.700195312 269.94921875 278.47265625 284.8046875 261.553710938 c 0
 302.637695312 240.984375 311.041015625 217.723632812 311.041015625 192.16796875 c 0
 311.041015625 175.633789062 306.663085938 158.143554688 297.965820312 139.756835938 c 0
 280.05859375 104.271484375 254.203125 65.64453125 236.328125 30.2275390625 c 0
 227.490234375 12.71484375 223.19921875 -3.189453125 223.19921875 -17.4501953125 c 0
 223.19921875 -35.904296875 229.806640625 -50.6279296875 243.11328125 -62.3603515625 c 0
 256.327148438 -74.01171875 274.282226562 -80.0087890625 297.7578125 -80.0087890625 c 0
 339.216796875 -80.0087890625 366.176757812 -71.8125 399.342773438 -57.591796875 c 1
 421.643554688 -117.169921875 l 1
 385.745117188 -134.392578125 344.224609375 -146 296.71484375 -146 c 0
 234.239257812 -146 189.598632812 -119.359375 167.2421875 -82.638671875 c 0
 155.60546875 -63.2666015625 149.805664062 -41.4072265625 149.805664062 -17.2900390625 c 0
 149.805664062 3.5634765625 154.102539062 24.0810546875 162.639648438 44.185546875 c 0
 171.033203125 63.953125 180.575195312 82.9560546875 191.729492188 101.151367188 c 0
 203.168945312 119.084960938 213.388671875 136.377929688 222.387695312 153.026367188 c 0
 231.182617188 169.296875 235.45703125 184.575195312 235.45703125 198.890625 c 0
 235.45703125 242.787109375 192.428710938 265.501953125 144.75 265.501953125 c 2
 64.3564453125 265.501953125 l 1
 64.3564453125 333.439453125 l 1
EndSplineSet
EndChar

StartChar: bar
Encoding: 124 124 93
Width: 486
GlyphClass: 2
Flags: MW
LayerCount: 2
Fore
SplineSet
207.754882812 -226.575195312 m 1
 207.754882812 850.724609375 l 1
 278.245117188 850.724609375 l 1
 278.245117188 -226.575195312 l 1
 207.754882812 -226.575195312 l 1
EndSplineSet
Substitution2: "Single Substitution lookup 7 subtable" alt_bar
EndChar

StartChar: braceright
Encoding: 125 125 94
Width: 486
GlyphClass: 2
Flags: MW
LayerCount: 2
Fore
SplineSet
421.643554688 268.001953125 m 1
 341.25 268.001953125 l 2
 293.409179688 268.001953125 250.54296875 245.065429688 250.54296875 200.973632812 c 0
 250.54296875 186.56640625 254.818359375 171.19140625 263.61328125 154.8203125 c 0
 272.61328125 138.0703125 282.84375 120.654296875 294.284179688 102.612304688 c 0
 305.438476562 84.306640625 314.966796875 65.20703125 323.360351562 45.3203125 c 0
 331.897460938 25.095703125 336.194335938 4.4560546875 336.194335938 -16.5205078125 c 0
 336.194335938 -70.23828125 307.055664062 -108.239257812 267.888671875 -128.74609375 c 0
 245.475585938 -140.298828125 219.206054688 -146 189.28515625 -146 c 0
 172.138671875 -146 153.172851562 -144.227539062 132.17578125 -140.7109375 c 0
 109.611328125 -136.93359375 86.4638671875 -128.329101562 64.3896484375 -117.077148438 c 1
 86.7041015625 -57.466796875 l 1
 119.86328125 -72.7763671875 145.799804688 -80.0087890625 188.2421875 -80.0087890625 c 0
 232.953125 -80.0087890625 262.80078125 -56.3203125 262.80078125 -17.0595703125 c 0
 262.80078125 -2.7060546875 258.508789062 13.2978515625 249.668945312 30.91796875 c 0
 231.791015625 66.556640625 205.9296875 105.432617188 188.017578125 141.139648438 c 0
 179.322265625 159.635742188 174.958984375 177.202148438 174.958984375 193.83203125 c 0
 174.958984375 219.55859375 183.549804688 242.836914062 201.775390625 263.22265625 c 0
 216.83203125 279.782226562 235.247070312 292.017578125 256.82421875 299.830078125 c 1
 234.680664062 307.254882812 216.05078125 319.483398438 201.194335938 336.401367188 c 0
 183.362304688 356.970703125 174.958984375 380.231445312 174.958984375 405.787109375 c 0
 174.958984375 422.321289062 179.336914062 439.811523438 188.033203125 458.19921875 c 0
 205.94140625 493.68359375 231.796875 532.310546875 249.670898438 567.728515625 c 0
 258.509765625 585.240234375 262.80078125 601.14453125 262.80078125 615.405273438 c 0
 262.80078125 633.859375 256.192382812 648.583007812 242.88671875 660.315429688 c 0
 229.672851562 671.966796875 211.716796875 677.963867188 188.2421875 677.963867188 c 0
 146.78125 677.963867188 119.823242188 669.76171875 86.6572265625 655.532226562 c 1
 64.3564453125 715.150390625 l 1
 100.254882812 732.384765625 141.775390625 744 189.28515625 744 c 0
 251.759765625 744 296.400390625 717.58203125 318.7578125 681.168945312 c 0
 330.39453125 661.958984375 336.194335938 640.282226562 336.194335938 616.3671875 c 0
 336.194335938 595.6875 331.895507812 575.341796875 323.358398438 555.405273438 c 0
 314.96484375 535.802734375 305.424804688 516.958984375 294.26953125 498.916015625 c 0
 282.831054688 481.131835938 272.610351562 463.983398438 263.611328125 447.474609375 c 0
 254.817382812 431.33984375 250.54296875 416.189453125 250.54296875 401.993164062 c 0
 250.54296875 358.46484375 293.5703125 335.939453125 341.25 335.939453125 c 2
 421.643554688 335.939453125 l 1
 421.643554688 268.001953125 l 1
EndSplineSet
EndChar

StartChar: asciitilde
Encoding: 126 126 95
Width: 486
GlyphClass: 2
Flags: MW
LayerCount: 2
Fore
SplineSet
285.155273438 332.037109375 m 4
 287.6875 327.233398438 291.013671875 325.237304688 296.659179688 325.237304688 c 4
 299.921875 325.237304688 305.706054688 327.69921875 313.1953125 333.970703125 c 6
 441.327148438 440.41796875 l 5
 482.692382812 378.624023438 l 5
 361.999023438 273.909179688 l 6
 352.697265625 265.750976562 342.880859375 258.686523438 332.548828125 252.735351562 c 4
 321.626953125 246.439453125 308.295898438 243.424804688 292.770507812 243.424804688 c 4
 266.588867188 243.424804688 246.701171875 251.209960938 234.565429688 267.553710938 c 4
 223.063476562 283.038085938 213.815429688 303.678710938 206.518554688 329.649414062 c 4
 205.286132812 335.838867188 203.272460938 342.254882812 200.45703125 348.891601562 c 4
 198.1875 354.241210938 194.844726562 356.443359375 188.62109375 356.443359375 c 4
 184.859375 356.443359375 177.998046875 353.280273438 169.171875 345.540039062 c 6
 43.958984375 241.255859375 l 5
 2.59375 303.056640625 l 5
 123.252929688 407.743164062 l 6
 133.234375 416.66015625 143.604492188 423.950195312 154.356445312 429.577148438 c 4
 165.48046875 435.3984375 178.258789062 438.25390625 192.514648438 438.25390625 c 4
 218.15625 438.25390625 237.8671875 430.002929688 250.254882812 413.006835938 c 4
 261.923828125 397.00390625 272.000976562 375.34765625 278.732421875 348.930664062 c 4
 279.9453125 343.515625 282.065429688 337.90234375 285.155273438 332.037109375 c 4
EndSplineSet
EndChar

StartChar: exclamdown
Encoding: 161 161 97
Width: 486
GlyphClass: 2
Flags: MW
LayerCount: 2
Fore
SplineSet
202.279296875 -74 m 1
 204.978515625 431 l 1
 282.086914062 431 l 1
 285.3828125 -74 l 1
 202.279296875 -74 l 1
242.662109375 534.3671875 m 0
 204.3515625 534.3671875 176.846679688 567.112304688 176.846679688 607.49609375 c 0
 176.846679688 648.97265625 204.3515625 680.626953125 242.662109375 680.626953125 c 0
 279.990234375 680.626953125 308.477539062 648.97265625 308.477539062 607.49609375 c 0
 308.477539062 567.112304688 279.990234375 534.3671875 242.662109375 534.3671875 c 0
EndSplineSet
EndChar

StartChar: cent
Encoding: 162 162 98
Width: 486
GlyphClass: 2
Flags: MW
LayerCount: 2
Fore
SplineSet
256.349609375 -99.396484375 m 1
 191.400390625 -93 l 1
 265.650390625 572.396484375 l 5
 330.599609375 566 l 1
 256.349609375 -99.396484375 l 1
432.618164062 64.8525390625 m 1
 388.618164062 16.56640625 334.099609375 -12 274.578125 -12 c 0
 149.745117188 -12 56.982421875 81.1328125 56.982421875 242.00390625 c 0
 56.982421875 404.901367188 157.860351562 498 278.674804688 498 c 0
 343.901367188 498 391.000976562 465.46484375 423.713867188 426.087890625 c 1
 389.484375 371.461914062 l 1
 357.0390625 406.51171875 323.076171875 428 281.130859375 428 c 0
 189.92578125 428 127.631835938 352.96484375 127.631835938 242.005859375 c 0
 127.631835938 132.03515625 188.287109375 58 279.493164062 58 c 0
 328.815429688 58 369.172851562 85.44921875 401.681640625 119.563476562 c 1
 432.618164062 64.8525390625 l 1
EndSplineSet
EndChar

StartChar: sterling
Encoding: 163 163 99
Width: 486
GlyphClass: 2
Flags: MW
LayerCount: 2
Fore
SplineSet
42.490234375 313.33203125 m 1
 5.740234375 367.931640625 l 1
 299.345703125 582 l 1
 336.095703125 527.400390625 l 1
 42.490234375 313.33203125 l 1
452.446289062 0 m 1
 102.512695312 0 l 1
 102.512695312 701.700195312 l 1
 174.14453125 701.700195312 l 1
 174.14453125 74.849609375 l 1
 452.446289062 74.849609375 l 1
 452.446289062 0 l 1
EndSplineSet
EndChar

StartChar: currency
Encoding: 164 164 100
Width: 486
GlyphClass: 2
Flags: MW
LayerCount: 2
Fore
SplineSet
51.4326171875 328.798828125 m 0
 51.4326171875 383.600585938 63.7744140625 431.467773438 84.8505859375 468.934570312 c 1
 3.9599609375 572.41015625 l 1
 50.556640625 631.247070312 l 1
 135.447265625 522.829101562 l 1
 165.709960938 550.689453125 203.404296875 565.798828125 243 565.798828125 c 0
 281.700195312 565.798828125 319.373046875 550.658203125 350.521484375 522.791015625 c 1
 435.443359375 631.247070312 l 1
 482.048828125 572.399414062 l 1
 400.208984375 468.956054688 l 1
 422.232421875 431.466796875 434.567382812 383.5859375 434.567382812 328.798828125 c 0
 434.567382812 273.967773438 421.258789062 227.2578125 400.190429688 189.883789062 c 1
 482.057617188 87.6083984375 l 1
 435.46875 28.783203125 l 1
 349.647460938 135.939453125 l 1
 319.373046875 106.9296875 281.676757812 91.798828125 243 91.798828125 c 0
 203.353515625 91.798828125 166.524414062 106.969726562 135.423828125 135.965820312 c 1
 50.5439453125 28.7666015625 l 1
 3.9423828125 87.6083984375 l 1
 85.783203125 189.850585938 l 1
 63.77734375 227.284179688 51.4326171875 274.014648438 51.4326171875 328.798828125 c 0
243 170.999023438 m 0
 303.807617188 170.999023438 354.696289062 233.631835938 354.696289062 328.798828125 c 0
 354.696289062 423.965820312 303.807617188 486.598632812 243 486.598632812 c 0
 182.192382812 486.598632812 131.303710938 423.965820312 131.303710938 328.798828125 c 0
 131.303710938 233.631835938 182.192382812 170.999023438 243 170.999023438 c 0
EndSplineSet
EndChar

StartChar: yen
Encoding: 165 165 101
Width: 486
GlyphClass: 2
Flags: MW
LayerCount: 2
Fore
SplineSet
40.443359375 119.25 m 1
 40.443359375 184.349609375 l 1
 448.684570312 184.349609375 l 1
 448.684570312 119.25 l 1
 40.443359375 119.25 l 1
282.2109375 246.366210938 m 1
 282.2109375 0.599609375 l 1
 208.41015625 0 l 1
 208.41015625 246.366210938 l 1
 20.052734375 689.400390625 l 1
 96.9912109375 689.400390625 l 1
 134.841796875 597.940429688 173.130859375 507.3828125 209.635742188 414.55859375 c 0
 221.267578125 384.9765625 233.068359375 354.97265625 245.921875 324 c 1
 248.11328125 324 l 1
 269.962890625 378.611328125 292.126953125 430.908203125 313.770507812 485.072265625 c 2
 395.333984375 689.400390625 l 1
 470.579101562 689.400390625 l 1
 282.2109375 246.366210938 l 1
EndSplineSet
EndChar

StartChar: brokenbar
Encoding: 166 166 102
Width: 486
GlyphClass: 2
Flags: MW
LayerCount: 2
Fore
SplineSet
213.030273438 379 m 1
 213.030273438 850.724609375 l 1
 272.969726562 850.724609375 l 1
 272.969726562 379 l 1
 213.030273438 379 l 1
213.030273438 276 m 1
 272.969726562 276 l 1
 272.969726562 -226.575195312 l 1
 213.030273438 -226.575195312 l 1
 213.030273438 276 l 1
EndSplineSet
EndChar

StartChar: section
Encoding: 167 167 103
Width: 486
GlyphClass: 2
Flags: MW
LayerCount: 2
Fore
SplineSet
185.560546875 557 m 0
 185.560546875 451.669921875 414.790039062 469.173828125 414.790039062 284 c 0
 414.790039062 220.138671875 385.90234375 182.435546875 342.127929688 153.341796875 c 1
 356.900390625 132.2734375 365.379882812 106.31640625 365.379882812 73 c 0
 365.379882812 -7.203125 310.865234375 -66.5 232.469726562 -66.5 c 0
 195.955078125 -66.5 133.0234375 -55.9912109375 84.2265625 7.12109375 c 1
 127.995117188 55.7529296875 l 1
 151.106445312 29.666015625 180.407226562 2.5 232.469726562 2.5 c 0
 274.811523438 2.5 299.629882812 32.2255859375 299.629882812 69 c 0
 299.629882812 180.383789062 71.2099609375 156.78515625 71.2099609375 343 c 0
 71.2099609375 401.954101562 101.547851562 445.271484375 143.874023438 473.65234375 c 1
 129.07421875 494.686523438 119.810546875 520.63671875 119.810546875 554 c 0
 119.810546875 623.987304688 162.018554688 686.5 244.620117188 686.5 c 0
 298.795898438 686.5 343.24609375 660.870117188 378.212890625 627.4140625 c 1
 343.155273438 570.06640625 l 1
 321.530273438 590.482421875 290.286132812 617.5 247.860351562 617.5 c 0
 203.919921875 617.5 185.560546875 589.91796875 185.560546875 557 c 0
133.719726562 348 m 0
 133.719726562 286.676757812 183.681640625 260.184570312 238.491210938 231.35546875 c 0
 259.616210938 220.244140625 281.29296875 208.852539062 300.69140625 194.952148438 c 1
 334.190429688 213.518554688 352.280273438 234.547851562 352.280273438 278 c 0
 352.280273438 341.791992188 301.094726562 369.049804688 245.586914062 398.396484375 c 0
 225.408203125 409.065429688 204.803710938 419.950195312 186.228515625 432.989257812 c 1
 154.190429688 412.392578125 133.719726562 387.358398438 133.719726562 348 c 0
EndSplineSet
EndChar

StartChar: dieresis
Encoding: 168 168 104
Width: 486
GlyphClass: 2
Flags: MW
LayerCount: 2
Fore
SplineSet
148.715820312 573.799804688 m 4
 115.423828125 573.799804688 92.255859375 604.58984375 92.255859375 644 c 4
 92.255859375 682.196289062 115.373046875 714.200195312 148.715820312 714.200195312 c 4
 182.05859375 714.200195312 205.176757812 682.196289062 205.176757812 644 c 4
 205.176757812 604.58984375 182.008789062 573.799804688 148.715820312 573.799804688 c 4
337.284179688 573.799804688 m 4
 303.991210938 573.799804688 280.823242188 604.58984375 280.823242188 644 c 4
 280.823242188 682.196289062 303.94140625 714.200195312 337.284179688 714.200195312 c 4
 370.626953125 714.200195312 393.744140625 682.196289062 393.744140625 644 c 4
 393.744140625 604.58984375 370.576171875 573.799804688 337.284179688 573.799804688 c 4
EndSplineSet
EndChar

StartChar: copyright
Encoding: 169 169 105
Width: 486
GlyphClass: 2
Flags: MW
LayerCount: 2
Fore
SplineSet
486 302 m 0
 486 141.831054688 379.048828125 13.4013671875 242.010742188 13.4013671875 c 0
 105.911132812 13.4013671875 0 144.056640625 0 302 c 0
 0 461.03515625 106.896484375 590.499023438 243 590.499023438 c 0
 377.161132812 590.499023438 486 461.00390625 486 302 c 0
55.4697265625 301.400390625 m 0
 55.4697265625 175.526367188 140.520507812 75.69921875 243.989257812 75.69921875 c 0
 345.369140625 75.69921875 432.51171875 178.756835938 432.51171875 302.5 c 0
 432.51171875 426.202148438 347.395507812 529.30078125 243.989257812 529.30078125 c 0
 140.518554688 529.30078125 55.4697265625 429.470703125 55.4697265625 301.400390625 c 0
111.73828125 302.442382812 m 0
 111.73828125 398.885742188 172.484375 454.797851562 244.884765625 454.797851562 c 0
 270.08203125 454.797851562 303.7578125 446.515625 333.036132812 411.2734375 c 2
 337.193359375 406.268554688 l 1
 308.322265625 360.1953125 l 1
 290.081054688 379.899414062 273.693359375 397.6015625 246.259765625 397.6015625 c 0
 198.953125 397.6015625 169.298828125 357.927734375 169.298828125 302.443359375 c 0
 169.298828125 247.7578125 197.852539062 208.3984375 245.342773438 208.3984375 c 0
 277.05859375 208.3984375 297.520507812 229.87109375 315.62890625 248.874023438 c 1
 342.135742188 201.995117188 l 1
 328.588867188 187.127929688 295.853515625 151.202148438 242.588867188 151.202148438 c 0
 168.424804688 151.202148438 111.73828125 206.560546875 111.73828125 302.442382812 c 0
EndSplineSet
EndChar

StartChar: ordfeminine
Encoding: 170 170 106
Width: 486
GlyphClass: 2
Flags: MW
LayerCount: 2
Fore
SplineSet
214.244140625 382 m 1
 164.267578125 382 125.884765625 418.262695312 125.884765625 476.5 c 0
 125.884765625 548.053710938 183.146484375 585.48828125 303.169921875 597.750976562 c 1
 301.1171875 637.266601562 286.818359375 668 245.025390625 668 c 0
 205.890625 668 169.92578125 641.359375 158.203125 632.67578125 c 0
 158.203125 630.17578125 135.78125 677.788085938 135.78125 680.288085938 c 0
 157.775390625 696.581054688 202.44140625 724 253.935546875 724 c 0
 325.365234375 724 360.115234375 672.137695312 360.115234375 587.5 c 0
 360.115234375 585 360.115234375 387.5 360.115234375 390 c 1
 312.388671875 390 l 1
 312.388671875 387.5 309.275390625 424.008789062 309.275390625 426.508789062 c 1
 285.486328125 403.98046875 217.244140625 381.008789062 212.935546875 381.008789062 c 0
 212.794921875 381.008789062 212.72265625 381.034179688 212.72265625 381.083984375 c 0
 212.72265625 381.213867188 213.20703125 381.514648438 214.244140625 382 c 1
303.275390625 553.677734375 m 1
 212.970703125 542.522460938 181.10546875 518.915039062 181.10546875 482.5 c 0
 181.10546875 448.98046875 202.287109375 436 227.205078125 436 c 0
 254.31640625 436 277.814453125 450.172851562 303.275390625 474.563476562 c 1
 303.275390625 472.063476562 303.275390625 551.177734375 303.275390625 553.677734375 c 1
EndSplineSet
EndChar

StartChar: guillemotleft
Encoding: 171 171 107
Width: 486
GlyphClass: 2
Flags: MW
LayerCount: 2
Fore
SplineSet
52.4970703125 253 m 1
 52.4970703125 279.282226562 l 1
 205.5546875 443.752929688 l 1
 247.430664062 394.837890625 l 1
 127.611328125 265.005859375 l 1
 254.313476562 111.026367188 l 1
 211.352539062 63.29296875 l 1
 52.4970703125 252.088867188 l 1
 52.4970703125 253 l 1
232.676757812 252.092773438 m 1
 232.676757812 279.27734375 l 1
 384.737304688 443.759765625 l 1
 426.620117188 394.837890625 l 1
 306.801757812 265.005859375 l 1
 433.502929688 111.026367188 l 1
 390.536132812 63.2861328125 l 1
 232.676757812 252.092773438 l 1
EndSplineSet
EndChar

StartChar: logicalnot
Encoding: 172 172 108
Width: 486
GlyphClass: 2
Flags: MW
LayerCount: 2
Back
SplineSet
30.150390625 295.900390625 m 5
 30.150390625 364.099609375 l 5
 455.849609375 364.099609375 l 5
 455.849609375 295.900390625 l 5
 30.150390625 295.900390625 l 5
EndSplineSet
Fore
SplineSet
415 296 m 1
 0 296 l 1
 0 364 l 1
 486 364 l 1
 485.650390625 0.5 l 1
 415.189453125 0.5 l 1
 415 296 l 1
EndSplineSet
EndChar

StartChar: uni00AD
Encoding: 173 173 109
Width: 486
GlyphClass: 2
Flags: MW
LayerCount: 2
Back
SplineSet
30.150390625 295.900390625 m 5
 30.150390625 364.099609375 l 5
 455.849609375 364.099609375 l 5
 455.849609375 295.900390625 l 5
 30.150390625 295.900390625 l 5
EndSplineSet
Fore
SplineSet
66.349609375 296.5 m 5
 66.349609375 363.5 l 5
 419.650390625 363.5 l 1
 419.650390625 296.5 l 1
 66.349609375 296.5 l 5
EndSplineSet
EndChar

StartChar: registered
Encoding: 174 174 110
Width: 486
GlyphClass: 2
Flags: MW
LayerCount: 2
Fore
SplineSet
300.385742188 370.568359375 m 0
 300.385742188 384.0546875 296.204101562 409.424804688 237.913085938 409.424804688 c 2
 198.952148438 409.424804688 l 1
 198.952148438 331.712890625 l 1
 240.733398438 331.712890625 l 2
 295.514648438 331.712890625 300.385742188 356.05859375 300.385742188 370.568359375 c 0
236.97265625 466.517578125 m 2
 282.627929688 466.517578125 356.958007812 453.74609375 356.958007812 370.568359375 c 0
 356.958007812 345.672851562 347.854492188 320.588867188 330.135742188 302.869140625 c 0
 323.295898438 296.029296875 315.18359375 290.317382812 305.87109375 286.193359375 c 1
 366.797851562 153.974609375 l 1
 307.948242188 144.235351562 l 1
 249.27734375 275.6640625 l 1
 198.952148438 275.6640625 l 1
 198.952148438 147.129882812 l 1
 141.442382812 147.129882812 l 1
 141.442382812 466.517578125 l 1
 236.97265625 466.517578125 l 2
55.4697265625 301.400390625 m 0
 55.4697265625 175.526367188 140.520507812 75.69921875 243.989257812 75.69921875 c 0
 345.369140625 75.69921875 432.51171875 178.756835938 432.51171875 302.5 c 0
 432.51171875 426.202148438 347.395507812 529.30078125 243.989257812 529.30078125 c 0
 140.518554688 529.30078125 55.4697265625 429.470703125 55.4697265625 301.400390625 c 0
486.078125 301.400390625 m 0
 486.078125 141.231445312 379.048828125 13.4013671875 242.010742188 13.4013671875 c 0
 105.911132812 13.4013671875 -0.078125 143.45703125 -0.078125 301.400390625 c 0
 -0.078125 460.435546875 106.896484375 590.499023438 243 590.499023438 c 0
 377.161132812 590.499023438 486.078125 460.404296875 486.078125 301.400390625 c 0
EndSplineSet
EndChar

StartChar: macron
Encoding: 175 175 111
Width: 486
GlyphClass: 2
Flags: MW
LayerCount: 2
Fore
SplineSet
92.76953125 586.5 m 1
 92.76953125 660.5 l 1
 393.23046875 660.5 l 1
 393.23046875 586.5 l 1
 92.76953125 586.5 l 1
EndSplineSet
EndChar

StartChar: degree
Encoding: 176 176 112
Width: 486
GlyphClass: 2
Flags: MW
LayerCount: 2
Fore
SplineSet
242.513671875 400.400390625 m 0
 175.3203125 400.400390625 118.013671875 462.244140625 118.013671875 555.799804688 c 0
 118.013671875 651.720703125 175.30078125 713.599609375 242.513671875 713.599609375 c 0
 309.705078125 713.599609375 367.986328125 651.750976562 367.986328125 555.799804688 c 0
 367.986328125 462.21484375 309.685546875 400.400390625 242.513671875 400.400390625 c 0
242.513671875 461.599609375 m 0
 283.975585938 461.599609375 313.38671875 500.279296875 313.38671875 555.799804688 c 0
 313.38671875 613.772460938 283.946289062 652.400390625 242.513671875 652.400390625 c 0
 202.083984375 652.400390625 172.61328125 613.79296875 172.61328125 555.799804688 c 0
 172.61328125 500.258789062 202.0546875 461.599609375 242.513671875 461.599609375 c 0
EndSplineSet
EndChar

StartChar: plusminus
Encoding: 177 177 113
Width: 486
GlyphClass: 2
Flags: MW
LayerCount: 2
Fore
SplineSet
-220 723 m 1049
30.150390625 -0.099609375 m 1
 30.150390625 68.099609375 l 1
 455.849609375 68.099609375 l 1
 455.849609375 -0.099609375 l 1
 30.150390625 -0.099609375 l 1
210.330078125 81.400390625 m 1
 210.330078125 295.900390625 l 1
 30.150390625 295.900390625 l 1
 30.150390625 364.099609375 l 1
 210.330078125 364.099609375 l 1
 210.330078125 578.599609375 l 1
 275.669921875 578.599609375 l 1
 275.669921875 364.099609375 l 1
 455.849609375 364.099609375 l 1
 455.849609375 295.900390625 l 1
 275.669921875 295.900390625 l 1
 275.669921875 81.400390625 l 1
 210.330078125 81.400390625 l 1
EndSplineSet
EndChar

StartChar: uni00B2
Encoding: 178 178 114
Width: 486
GlyphClass: 2
Flags: HMW
LayerCount: 2
Fore
SplineSet
238.577148438 998.424804688 m 0
 329.253602197 998.424804688 383.260742188 934.091281601 383.260742188 849.7734375 c 0
 383.260742188 754.770558012 330.527960706 678.619150345 178.216730587 523.65625 c 1
 394.639880506 523.65625 l 1
 386.570126586 462.602539062 l 1
 101.37890625 462.602539062 l 1
 101.37890625 519.2723848 l 1
 230.718889599 657.148996114 278.166897375 717.642605793 299.323700644 766.303982101 c 0
 310.474457043 791.952066209 316.044921875 818.991238806 316.044921875 847.50390625 c 0
 316.044921875 876.412475103 308.782674198 898.595711979 294.643072776 914.547034075 c 0
 280.525163152 930.47271915 261.167418405 938.50390625 235.85546875 938.50390625 c 0
 187.569620661 938.50390625 164.249796283 919.672936577 135.361792027 881.348060493 c 1
 90.6088086344 919.929096931 l 1
 122.344554841 962.837221937 162.551222543 998.424804688 238.577148438 998.424804688 c 0
EndSplineSet
EndChar

StartChar: uni00B3
Encoding: 179 179 115
Width: 486
GlyphClass: 2
Flags: HMW
LayerCount: 2
Fore
SplineSet
237.38671875 997.337890625 m 0
 328.062450232 997.337890625 384.791015625 936.250796346 384.791015625 863.805664062 c 0
 384.791015625 803.143396414 347.670920878 759.112738588 305.802024859 743.496789663 c 1
 352.5991274 733.060464207 399.759765625 692.821281743 399.759765625 615.08203125 c 0
 399.759765625 523.399613094 332.95853844 452.822265625 233.64453125 452.822265625 c 0
 205.75698428 452.822265625 134.07186124 459.535945201 86.9165422764 523.806657809 c 2
 85.0503486059 526.35020114 l 1
 128.652013558 565.792733565 l 1
 135.973647495 556.230584515 149.842847952 538.117228517 176.642509451 525.250883826 c 0
 194.571985289 516.642600509 213.086698905 512.364257812 232.283203125 512.364257812 c 0
 296.795334525 512.364257812 332.884765625 552.599653189 332.884765625 615.08203125 c 0
 332.884765625 679.255311385 302.372674367 710.239257812 239.427734375 710.239257812 c 2
 195.93192206 710.239257812 l 1
 204.071208759 767.514648437 l 1
 234.665039062 767.514648437 l 2
 275.411585947 767.514648437 320.297851562 792.084655092 320.297851562 854.734375 c 0
 320.297851562 912.906553524 279.176045601 939.686523438 235.345703125 939.686523438 c 0
 192.020647679 939.686523438 165.994141793 921.123580615 135.777912591 889.912299411 c 1
 99.7064899379 934.303185906 l 1
 118.437855752 953.877117513 162.409144021 997.337890625 237.38671875 997.337890625 c 0
EndSplineSet
EndChar

StartChar: acute
Encoding: 180 180 116
Width: 486
GlyphClass: 2
Flags: MW
LayerCount: 2
Fore
SplineSet
196.791992188 564.114257812 m 1
 158.80078125 608.836914062 l 1
 276.759765625 781.129882812 l 1
 327.19921875 721.0078125 l 1
 196.791992188 564.114257812 l 1
EndSplineSet
EndChar

StartChar: mu
Encoding: 181 181 117
Width: 486
GlyphClass: 2
Flags: MW
LayerCount: 2
Back
SplineSet
184.083007812 512 m 1052
320.198242188 360.690429688 m 0
 296.407226562 393.524414062 265.118164062 410.051757812 227.100585938 410.051757812 c 0
 192.280273438 410.051757812 167.891601562 407.266601562 144.651367188 397.879882812 c 1
 144.651367188 78.6337890625 l 1
 155.026367188 67.927734375 168.235351562 58.9853515625 186.471679688 50.53515625 c 0
 203.303710938 42.4541015625 220.807617188 38.3994140625 238.907226562 38.3994140625 c 0
 259.444335938 38.3994140625 277.282226562 43.1708984375 292.245117188 52.9248046875 c 0
 337.016601562 81.6591796875 357.586914062 142.7265625 357.586914062 223.154296875 c 0
 357.586914062 281.703125 345.225585938 327.759765625 320.198242188 360.690429688 c 0
381.041992188 40.5458984375 m 0
 351.698242188 -1.1552734375 307.883789062 -31.7685546875 247.995117188 -31.7685546875 c 0
 225.928710938 -31.7685546875 206.670898438 -28.599609375 190.215820312 -22.3662109375 c 0
 173.176757812 -16.044921875 160.120117188 -9.046875 151.784179688 -1.7666015625 c 2
 144.651367188 4.4599609375 l 1
 144.651367188 -212.66015625 l 1
 73.4990234375 -212.66015625 l 1
 73.4990234375 462.751953125 l 1
 90.1669921875 468.133789062 111.311523438 473.5546875 136.874023438 478.978515625 c 0
 163.836914062 484.619140625 193.995117188 487.458984375 227.100585938 487.458984375 c 0
 290.813476562 487.458984375 339.393554688 459.013671875 373.057617188 417.599609375 c 0
 408.329101562 374.216796875 430.666992188 309.622070312 430.666992188 227.298828125 c 0
 430.666992188 149.265625 411.999023438 84.5419921875 381.041992188 40.5458984375 c 0
EndSplineSet
Fore
SplineSet
417.083007812 460 m 1052
217.116210938 65.5 m 4
 250.223632812 65.5 298.38671875 78.8798828125 339.716796875 142.736328125 c 5
 339.716796875 486 l 5
 408.083007812 486 l 5
 409.083007812 311.5 413.083007812 34 413.083007812 -102 c 5
 350.39453125 -102 l 5
 349.39453125 -79 348.448242188 35.6005859375 348.083007812 56 c 5
 343.188476562 47.826171875 310.52734375 -11 235.083007812 -11 c 4
 190.872070312 -11 167.202148438 -1.091796875 144.083007812 31 c 5
 145.083007812 -217 l 5
 73.0830078125 -217 l 5
 72.9169921875 486.5 l 5
 146.516601562 486.5 l 5
 144.516601562 231 l 6
 144.516601562 121.673828125 149.740234375 65.5 217.116210938 65.5 c 4
EndSplineSet
EndChar

StartChar: paragraph
Encoding: 182 182 118
Width: 486
GlyphClass: 2
Flags: MW
LayerCount: 2
Fore
SplineSet
274.99609375 223.5 m 2
 159.560546875 223.5 73.234375 290.766601562 73.234375 443 c 0
 73.234375 601.2109375 156.375976562 658.5 266.083984375 658.5 c 2
 303.416015625 658.5 l 1
 303.416015625 223.5 l 1
 274.99609375 223.5 l 2
342.154296875 -82.5 m 1
 342.154296875 658.5 l 1
 412.765625 658.5 l 1
 412.765625 -82.5 l 1
 342.154296875 -82.5 l 1
EndSplineSet
EndChar

StartChar: periodcentered
Encoding: 183 183 119
Width: 486
GlyphClass: 2
Flags: MW
LayerCount: 2
Fore
SplineSet
243 260.5 m 0
 204.750976562 260.5 174.889648438 296.126953125 174.889648438 347 c 0
 174.889648438 398.8515625 204.739257812 434.5 243 434.5 c 0
 281.260742188 434.5 311.110351562 398.8515625 311.110351562 347 c 0
 311.110351562 296.126953125 281.249023438 260.5 243 260.5 c 0
EndSplineSet
EndChar

StartChar: cedilla
Encoding: 184 184 120
Width: 486
GlyphClass: 2
Flags: MW
LayerCount: 2
Fore
SplineSet
258.922851562 -136 m 0
 258.922851562 -106.479492188 236.17578125 -96.9697265625 195.751953125 -89.9658203125 c 1
 229.658203125 10.5 l 1
 231.453125 10.5 l 1
 275.194335938 10.5 l 1
 278.53125 10.5 l 1
 257.229492188 -62.32421875 l 1
 293.6328125 -73.625 315.763671875 -93.6416015625 315.763671875 -135 c 0
 315.763671875 -212.928710938 231.041992188 -225.509765625 177.506835938 -228.626953125 c 1
 170.236328125 -183.74609375 l 1
 232.96484375 -178.213867188 258.922851562 -167.244140625 258.922851562 -136 c 0
EndSplineSet
EndChar

StartChar: uni00B9
Encoding: 185 185 121
Width: 486
GlyphClass: 2
Flags: HMW
LayerCount: 2
Fore
SplineSet
237.660375814 989.069335938 m 1
 292.256835938 989.069335938 l 1
 292.256835938 520.349609375 l 1
 390.234375 520.349609375 l 1
 390.234375 461.563476562 l 1
 112.775390625 461.563476562 l 1
 112.775390625 520.349609375 l 1
 228.103515625 520.349609375 l 1
 228.103515625 910.18795081 l 1
 122.874054149 839.147262627 l 1
 94.6780094926 890.647454613 l 1
 237.660375814 989.069335938 l 1
EndSplineSet
EndChar

StartChar: ordmasculine
Encoding: 186 186 122
Width: 486
GlyphClass: 2
Flags: HMW
LayerCount: 2
Fore
SplineSet
243 387 m 4
 167.400390625 387 100.799804688 449 100.799804688 555 c 4
 100.799804688 663 167.400390625 724 243 724 c 4
 319.5 724 385.200195312 663 385.200195312 555 c 4
 385.200195312 449 319.5 387 243 387 c 4
243 439 m 4
 294.299804688 439 325.799804688 486 325.799804688 555 c 4
 325.799804688 625 294.299804688 672 243 672 c 4
 191.700195312 672 160.200195312 625 160.200195312 555 c 4
 160.200195312 486 191.700195312 439 243 439 c 4
EndSplineSet
EndChar

StartChar: guillemotright
Encoding: 187 187 123
Width: 486
GlyphClass: 2
Flags: MW
LayerCount: 2
Fore
SplineSet
304.650390625 67.099609375 m 1
 260.650390625 111.099609375 l 1
 401.44921875 265.099609375 l 1
 268.349609375 394.900390625 l 1
 311.25 440 l 1
 478.44921875 278.299804688 l 1
 478.44921875 253 l 1
 304.650390625 67.099609375 l 1
105.55078125 67.099609375 m 1
 61.55078125 111.099609375 l 1
 202.349609375 265.099609375 l 1
 69.25 394.900390625 l 1
 112.150390625 440 l 1
 278.25 278.299804688 l 1
 278.25 253 l 1
 105.55078125 67.099609375 l 1
EndSplineSet
EndChar

StartChar: questiondown
Encoding: 191 191 124
Width: 486
GlyphClass: 2
Flags: MW
LayerCount: 2
Fore
SplineSet
238.099609375 -110.890625 m 0
 128.506835938 -110.890625 61.681640625 -35.650390625 61.681640625 42.5595703125 c 0
 61.681640625 200.958984375 222.952148438 178.189453125 222.952148438 323.71875 c 2
 222.952148438 357.379882812 l 1
 297.795898438 357.379882812 l 1
 297.795898438 318.768554688 l 2
 297.795898438 158.388671875 140.090820312 159.379882812 140.090820312 47.509765625 c 0
 140.090820312 -8.9208984375 185.530273438 -41.5908203125 245.227539062 -41.5908203125 c 0
 287.10546875 -41.5908203125 334.327148438 -18.8203125 371.749023438 31.6689453125 c 1
 424.318359375 -12.880859375 l 1
 372.640625 -80.2001953125 309.379882812 -110.890625 238.099609375 -110.890625 c 0
257.702148438 460.338867188 m 0
 222.952148438 460.338867188 198.004882812 490.0390625 198.004882812 526.668945312 c 0
 198.004882812 564.2890625 222.952148438 593 257.702148438 593 c 0
 291.559570312 593 317.397460938 564.2890625 317.397460938 526.668945312 c 0
 317.397460938 490.0390625 291.559570312 460.338867188 257.702148438 460.338867188 c 0
EndSplineSet
EndChar

StartChar: Agrave
Encoding: 192 192 125
Width: 486
GlyphClass: 2
Flags: MW
LayerCount: 2
Fore
SplineSet
187.919921875 367 m 2
 162.810546875 267 l 1
 321.5703125 267 l 1
 296.459960938 367 l 2
 277.830078125 440 260.010742188 512 243.810546875 588 c 1
 240.5703125 588 l 1
 223.560546875 512 206.549804688 440 187.919921875 367 c 2
25.919921875 0 m 1
 204.9296875 656 l 1
 281.0703125 656 l 1
 460.080078125 0 l 1
 388.799804688 0 l 1
 338.580078125 200 l 1
 145.799804688 200 l 1
 94.76953125 0 l 1
 25.919921875 0 l 1
266.489257812 697 m 1
 143.370117188 812 l 1
 181.439453125 867 l 1
 295.650390625 739 l 1
 266.489257812 697 l 1
EndSplineSet
EndChar

StartChar: Aacute
Encoding: 193 193 126
Width: 486
GlyphClass: 2
Flags: MW
LayerCount: 2
Fore
SplineSet
187.919921875 367 m 2
 162.810546875 267 l 1
 321.5703125 267 l 1
 296.459960938 367 l 2
 277.830078125 440 260.010742188 512 243.810546875 588 c 1
 240.5703125 588 l 1
 223.560546875 512 206.549804688 440 187.919921875 367 c 2
25.919921875 0 m 1
 204.9296875 656 l 1
 281.0703125 656 l 1
 460.080078125 0 l 1
 388.799804688 0 l 1
 338.580078125 200 l 1
 145.799804688 200 l 1
 94.76953125 0 l 1
 25.919921875 0 l 1
219.510742188 697 m 1
 190.349609375 739 l 1
 304.560546875 867 l 1
 342.629882812 812 l 1
 219.510742188 697 l 1
EndSplineSet
EndChar

StartChar: Acircumflex
Encoding: 194 194 127
Width: 486
GlyphClass: 2
Flags: MW
LayerCount: 2
Fore
SplineSet
242.751953125 840.0703125 m 1
 361.634765625 727.790039062 l 1
 328.228515625 693.580078125 l 1
 242.751953125 762 l 1
 157.2734375 693.580078125 l 1
 123.869140625 727.790039062 l 1
 242.751953125 840.0703125 l 1
187.919921875 367 m 2
 162.810546875 267 l 1
 321.5703125 267 l 1
 296.459960938 367 l 2
 277.830078125 440 260.010742188 512 243.810546875 588 c 1
 240.5703125 588 l 1
 223.560546875 512 206.549804688 440 187.919921875 367 c 2
25.919921875 0 m 1
 204.9296875 656 l 1
 281.0703125 656 l 1
 460.080078125 0 l 1
 388.799804688 0 l 1
 338.580078125 200 l 1
 145.799804688 200 l 1
 94.76953125 0 l 1
 25.919921875 0 l 1
EndSplineSet
EndChar

StartChar: Atilde
Encoding: 195 195 128
Width: 486
GlyphClass: 2
Flags: MW
LayerCount: 2
Fore
SplineSet
187.919921875 367 m 2
 162.810546875 267 l 1
 321.5703125 267 l 1
 296.459960938 367 l 2
 277.830078125 440 260.010742188 512 243.810546875 588 c 1
 240.5703125 588 l 1
 223.560546875 512 206.549804688 440 187.919921875 367 c 2
25.919921875 0 m 1
 204.9296875 656 l 1
 281.0703125 656 l 1
 460.080078125 0 l 1
 388.799804688 0 l 1
 338.580078125 200 l 1
 145.799804688 200 l 1
 94.76953125 0 l 1
 25.919921875 0 l 1
303.75 709 m 0
 243 709 221.939453125 780 183.870117188 780 c 0
 163.620117188 780 148.23046875 757 144.989257812 714 c 1
 99.6298828125 718 l 1
 102.870117188 794 133.650390625 841 182.25 841 c 0
 243 841 264.060546875 770 302.129882812 770 c 0
 322.379882812 770 336.959960938 793 341.010742188 836 c 1
 386.370117188 832 l 1
 383.129882812 755 352.349609375 709 303.75 709 c 0
EndSplineSet
EndChar

StartChar: Adieresis
Encoding: 196 196 129
Width: 486
GlyphClass: 2
Flags: MW
LayerCount: 2
Fore
SplineSet
187.919921875 367 m 2
 162.810546875 267 l 1
 321.5703125 267 l 1
 296.459960938 367 l 2
 277.830078125 440 260.010742188 512 243.810546875 588 c 1
 240.5703125 588 l 1
 223.560546875 512 206.549804688 440 187.919921875 367 c 2
25.919921875 0 m 1
 204.9296875 656 l 1
 281.0703125 656 l 1
 460.080078125 0 l 1
 388.799804688 0 l 1
 338.580078125 200 l 1
 145.799804688 200 l 1
 94.76953125 0 l 1
 25.919921875 0 l 1
169.290039062 715 m 0
 145.799804688 715 127.98046875 736 127.98046875 766 c 0
 127.98046875 796 145.799804688 816 169.290039062 816 c 0
 192.780273438 816 209.790039062 796 209.790039062 766 c 0
 209.790039062 736 192.780273438 715 169.290039062 715 c 0
316.709960938 715 m 0
 293.219726562 715 276.209960938 736 276.209960938 766 c 0
 276.209960938 796 293.219726562 816 316.709960938 816 c 0
 340.200195312 816 358.01953125 796 358.01953125 766 c 0
 358.01953125 736 340.200195312 715 316.709960938 715 c 0
EndSplineSet
EndChar

StartChar: Aring
Encoding: 197 197 130
Width: 486
GlyphClass: 2
Flags: MW
LayerCount: 2
Fore
SplineSet
187.919921875 367 m 2
 162.810546875 267 l 1
 321.5703125 267 l 1
 296.459960938 367 l 2
 277.830078125 440 260.010742188 512 243.810546875 588 c 1
 240.5703125 588 l 1
 223.560546875 512 206.549804688 440 187.919921875 367 c 2
25.919921875 0 m 1
 204.9296875 656 l 1
 281.0703125 656 l 1
 460.080078125 0 l 1
 388.799804688 0 l 1
 338.580078125 200 l 1
 145.799804688 200 l 1
 94.76953125 0 l 1
 25.919921875 0 l 1
243 735 m 0
 264.870117188 735 284.310546875 754 284.310546875 789 c 0
 284.310546875 823 264.870117188 843 243 843 c 0
 219.510742188 843 200.879882812 823 200.879882812 789 c 0
 200.879882812 754 219.510742188 735 243 735 c 0
243 699 m 0
 197.639648438 699 164.4296875 735 164.4296875 789 c 0
 164.4296875 844 197.639648438 880 243 880 c 0
 287.549804688 880 321.5703125 844 321.5703125 789 c 0
 321.5703125 735 287.549804688 699 243 699 c 0
EndSplineSet
EndChar

StartChar: AE
Encoding: 198 198 131
Width: 486
GlyphClass: 2
Flags: MW
LayerCount: 2
Fore
SplineSet
187.110351562 377 m 6
 149.849609375 258 l 5
 256.76953125 258 l 5
 256.76953125 590 l 5
 254.33984375 590 l 5
 232.469726562 518 208.98046875 448 187.110351562 377 c 6
-0.810546875 0 m 5
 213.030273438 656 l 5
 471.419921875 656 l 5
 471.419921875 586 l 5
 318.330078125 586 l 5
 318.330078125 381 l 5
 437.400390625 381 l 5
 437.400390625 310 l 5
 318.330078125 310 l 5
 318.330078125 71 l 5
 478.709960938 71 l 5
 478.709960938 0 l 5
 256.76953125 0 l 5
 256.76953125 191 l 5
 128.790039062 191 l 5
 69.66015625 0 l 5
 -0.810546875 0 l 5
EndSplineSet
EndChar

StartChar: Ccedilla
Encoding: 199 199 132
Width: 486
GlyphClass: 2
Flags: MW
LayerCount: 2
Fore
SplineSet
213.030273438 -226 m 1
 206.549804688 -186 l 1
 274.58984375 -180 294.83984375 -165 294.83984375 -136 c 0
 294.83984375 -110 278.639648438 -96 232.469726562 -88 c 1
 258.389648438 -10 l 1
 140.129882812 5 52.650390625 128 52.650390625 328 c 0
 52.650390625 539 152.280273438 668 290.790039062 668 c 0
 353.969726562 668 405 630 435.780273438 588 c 1
 397.709960938 535 l 1
 370.169921875 571 335.33984375 595 290.790039062 595 c 0
 188.73046875 595 122.310546875 493 122.310546875 330 c 0
 122.310546875 165 188.73046875 61 290.790039062 61 c 0
 339.389648438 61 376.650390625 87 410.669921875 134 c 1
 448.739257812 83 l 1
 410.669921875 28 363.689453125 -5 302.939453125 -11 c 1
 287.549804688 -64 l 1
 324.810546875 -75 346.6796875 -94 346.6796875 -135 c 0
 346.6796875 -193 298.889648438 -221 213.030273438 -226 c 1
EndSplineSet
EndChar

StartChar: Egrave
Encoding: 200 200 133
Width: 486
GlyphClass: 2
Flags: MW
LayerCount: 2
Fore
SplineSet
92.33984375 0 m 1
 92.33984375 656 l 1
 421.200195312 656 l 1
 421.200195312 586 l 1
 160.379882812 586 l 1
 160.379882812 380 l 1
 380.700195312 380 l 1
 380.700195312 309 l 1
 160.379882812 309 l 1
 160.379882812 71 l 1
 429.299804688 71 l 1
 429.299804688 0 l 1
 92.33984375 0 l 1
291.599609375 697 m 1
 168.48046875 812 l 1
 206.549804688 867 l 1
 320.760742188 739 l 1
 291.599609375 697 l 1
EndSplineSet
EndChar

StartChar: Eacute
Encoding: 201 201 134
Width: 486
GlyphClass: 2
Flags: MW
LayerCount: 2
Fore
SplineSet
92.33984375 0 m 1
 92.33984375 656 l 1
 421.200195312 656 l 1
 421.200195312 586 l 1
 160.379882812 586 l 1
 160.379882812 380 l 1
 380.700195312 380 l 1
 380.700195312 309 l 1
 160.379882812 309 l 1
 160.379882812 71 l 1
 429.299804688 71 l 1
 429.299804688 0 l 1
 92.33984375 0 l 1
244.620117188 697 m 1
 215.459960938 739 l 1
 329.669921875 867 l 1
 367.739257812 812 l 1
 244.620117188 697 l 1
EndSplineSet
EndChar

StartChar: Ecircumflex
Encoding: 202 202 135
Width: 486
GlyphClass: 2
Flags: MW
LayerCount: 2
Fore
SplineSet
249.751953125 840.0703125 m 1
 368.634765625 727.790039062 l 1
 335.228515625 693.580078125 l 1
 249.751953125 762 l 1
 164.2734375 693.580078125 l 1
 130.869140625 727.790039062 l 1
 249.751953125 840.0703125 l 1
92.33984375 0 m 1
 92.33984375 656 l 1
 421.200195312 656 l 1
 421.200195312 586 l 1
 160.379882812 586 l 1
 160.379882812 380 l 1
 380.700195312 380 l 1
 380.700195312 309 l 1
 160.379882812 309 l 1
 160.379882812 71 l 1
 429.299804688 71 l 1
 429.299804688 0 l 1
 92.33984375 0 l 1
EndSplineSet
EndChar

StartChar: Edieresis
Encoding: 203 203 136
Width: 486
GlyphClass: 2
Flags: MW
LayerCount: 2
Fore
SplineSet
92.33984375 0 m 1
 92.33984375 656 l 1
 421.200195312 656 l 1
 421.200195312 586 l 1
 160.379882812 586 l 1
 160.379882812 380 l 1
 380.700195312 380 l 1
 380.700195312 309 l 1
 160.379882812 309 l 1
 160.379882812 71 l 1
 429.299804688 71 l 1
 429.299804688 0 l 1
 92.33984375 0 l 1
194.400390625 715 m 0
 170.91015625 715 153.08984375 736 153.08984375 766 c 0
 153.08984375 796 170.91015625 816 194.400390625 816 c 0
 217.889648438 816 234.900390625 796 234.900390625 766 c 0
 234.900390625 736 217.889648438 715 194.400390625 715 c 0
341.8203125 715 m 0
 318.330078125 715 301.3203125 736 301.3203125 766 c 0
 301.3203125 796 318.330078125 816 341.8203125 816 c 0
 365.310546875 816 383.129882812 796 383.129882812 766 c 0
 383.129882812 736 365.310546875 715 341.8203125 715 c 0
EndSplineSet
EndChar

StartChar: Igrave
Encoding: 204 204 137
Width: 486
GlyphClass: 2
Flags: MW
LayerCount: 2
Fore
SplineSet
76.9501953125 0 m 1
 76.9501953125 71 l 1
 208.98046875 71 l 1
 208.98046875 586 l 1
 76.9501953125 586 l 1
 76.9501953125 656 l 1
 409.049804688 656 l 1
 409.049804688 586 l 1
 277.01953125 586 l 1
 277.01953125 71 l 1
 409.049804688 71 l 1
 409.049804688 0 l 1
 76.9501953125 0 l 1
266.489257812 697 m 1
 143.370117188 812 l 1
 181.439453125 867 l 1
 295.650390625 739 l 1
 266.489257812 697 l 1
EndSplineSet
EndChar

StartChar: Iacute
Encoding: 205 205 138
Width: 486
GlyphClass: 2
Flags: MW
LayerCount: 2
Fore
SplineSet
76.9501953125 0 m 1
 76.9501953125 71 l 1
 208.98046875 71 l 1
 208.98046875 586 l 1
 76.9501953125 586 l 1
 76.9501953125 656 l 1
 409.049804688 656 l 1
 409.049804688 586 l 1
 277.01953125 586 l 1
 277.01953125 71 l 1
 409.049804688 71 l 1
 409.049804688 0 l 1
 76.9501953125 0 l 1
219.510742188 697 m 1
 190.349609375 739 l 1
 304.560546875 867 l 1
 342.629882812 812 l 1
 219.510742188 697 l 1
EndSplineSet
EndChar

StartChar: Icircumflex
Encoding: 206 206 139
Width: 486
GlyphClass: 2
Flags: MW
LayerCount: 2
Fore
SplineSet
242.751953125 840.0703125 m 1
 361.634765625 727.790039062 l 1
 328.228515625 693.580078125 l 1
 242.751953125 762 l 1
 157.2734375 693.580078125 l 1
 123.869140625 727.790039062 l 1
 242.751953125 840.0703125 l 1
76.9501953125 0 m 1
 76.9501953125 71 l 1
 208.98046875 71 l 1
 208.98046875 586 l 1
 76.9501953125 586 l 1
 76.9501953125 656 l 1
 409.049804688 656 l 1
 409.049804688 586 l 1
 277.01953125 586 l 1
 277.01953125 71 l 1
 409.049804688 71 l 1
 409.049804688 0 l 1
 76.9501953125 0 l 1
EndSplineSet
EndChar

StartChar: Idieresis
Encoding: 207 207 140
Width: 486
GlyphClass: 2
Flags: MW
LayerCount: 2
Fore
SplineSet
76.9501953125 0 m 1
 76.9501953125 71 l 1
 208.98046875 71 l 1
 208.98046875 586 l 1
 76.9501953125 586 l 1
 76.9501953125 656 l 1
 409.049804688 656 l 1
 409.049804688 586 l 1
 277.01953125 586 l 1
 277.01953125 71 l 1
 409.049804688 71 l 1
 409.049804688 0 l 1
 76.9501953125 0 l 1
169.290039062 715 m 0
 145.799804688 715 127.98046875 736 127.98046875 766 c 0
 127.98046875 796 145.799804688 816 169.290039062 816 c 0
 192.780273438 816 209.790039062 796 209.790039062 766 c 0
 209.790039062 736 192.780273438 715 169.290039062 715 c 0
316.709960938 715 m 0
 293.219726562 715 276.209960938 736 276.209960938 766 c 0
 276.209960938 796 293.219726562 816 316.709960938 816 c 0
 340.200195312 816 358.01953125 796 358.01953125 766 c 0
 358.01953125 736 340.200195312 715 316.709960938 715 c 0
EndSplineSet
EndChar

StartChar: Eth
Encoding: 208 208 141
Width: 486
GlyphClass: 2
Flags: MW
LayerCount: 2
Fore
SplineSet
70.4697265625 0 m 1
 70.4697265625 314 l 1
 9.7197265625 314 l 1
 9.7197265625 370 l 1
 70.4697265625 376 l 1
 70.4697265625 656 l 1
 201.689453125 656 l 2
 361.260742188 656 447.9296875 539 447.9296875 331 c 0
 447.9296875 122 361.260742188 0 204.9296875 0 c 2
 70.4697265625 0 l 1
137.700195312 68 m 1
 196.830078125 68 l 2
 317.51953125 68 377.459960938 165 377.459960938 331 c 0
 377.459960938 496 317.51953125 588 196.830078125 588 c 2
 137.700195312 588 l 1
 137.700195312 376 l 1
 254.33984375 376 l 1
 254.33984375 314 l 1
 137.700195312 314 l 1
 137.700195312 68 l 1
EndSplineSet
EndChar

StartChar: Ntilde
Encoding: 209 209 142
Width: 486
GlyphClass: 2
Flags: MW
LayerCount: 2
Fore
SplineSet
66.419921875 0 m 1
 66.419921875 656 l 1
 140.939453125 656 l 1
 311.040039062 244 l 1
 362.0703125 108 l 1
 363.689453125 108 l 1
 361.260742188 173 354.780273438 247 354.780273438 316 c 2
 354.780273438 656 l 1
 419.580078125 656 l 1
 419.580078125 0 l 1
 345.060546875 0 l 1
 174.959960938 412 l 1
 123.9296875 548 l 1
 122.310546875 548 l 1
 124.739257812 481 131.219726562 411 131.219726562 343 c 2
 131.219726562 0 l 1
 66.419921875 0 l 1
311.849609375 709 m 0
 251.099609375 709 230.040039062 780 191.969726562 780 c 0
 171.719726562 780 156.330078125 757 153.08984375 714 c 1
 107.73046875 718 l 1
 110.969726562 794 141.75 841 190.349609375 841 c 0
 251.099609375 841 272.16015625 770 310.23046875 770 c 0
 330.48046875 770 345.060546875 793 349.110351562 836 c 1
 394.469726562 832 l 1
 391.23046875 755 360.450195312 709 311.849609375 709 c 0
EndSplineSet
EndChar

StartChar: Ograve
Encoding: 210 210 143
Width: 486
GlyphClass: 2
Flags: MW
LayerCount: 2
Fore
SplineSet
243 -12 m 0
 123.120117188 -12 38.8798828125 116 38.8798828125 331 c 0
 38.8798828125 543 123.120117188 668 243 668 c 0
 362.879882812 668 447.120117188 543 447.120117188 331 c 0
 447.120117188 116 362.879882812 -12 243 -12 c 0
243 61 m 0
 324 61 377.459960938 163 377.459960938 331 c 0
 377.459960938 496 324 595 243 595 c 0
 162 595 108.540039062 496 108.540039062 331 c 0
 108.540039062 163 162 61 243 61 c 0
266.489257812 697 m 1
 143.370117188 812 l 1
 181.439453125 867 l 1
 295.650390625 739 l 1
 266.489257812 697 l 1
EndSplineSet
EndChar

StartChar: Oacute
Encoding: 211 211 144
Width: 486
GlyphClass: 2
Flags: MW
LayerCount: 2
Fore
SplineSet
243 -12 m 0
 123.120117188 -12 38.8798828125 116 38.8798828125 331 c 0
 38.8798828125 543 123.120117188 668 243 668 c 0
 362.879882812 668 447.120117188 543 447.120117188 331 c 0
 447.120117188 116 362.879882812 -12 243 -12 c 0
243 61 m 0
 324 61 377.459960938 163 377.459960938 331 c 0
 377.459960938 496 324 595 243 595 c 0
 162 595 108.540039062 496 108.540039062 331 c 0
 108.540039062 163 162 61 243 61 c 0
219.510742188 697 m 1
 190.349609375 739 l 1
 304.560546875 867 l 1
 342.629882812 812 l 1
 219.510742188 697 l 1
EndSplineSet
EndChar

StartChar: Ocircumflex
Encoding: 212 212 145
Width: 486
GlyphClass: 2
Flags: MW
LayerCount: 2
Fore
SplineSet
242.751953125 840.0703125 m 1
 361.634765625 727.790039062 l 1
 328.228515625 693.580078125 l 1
 242.751953125 762 l 1
 157.2734375 693.580078125 l 1
 123.869140625 727.790039062 l 1
 242.751953125 840.0703125 l 1
243 -12 m 0
 123.120117188 -12 38.8798828125 116 38.8798828125 331 c 0
 38.8798828125 543 123.120117188 668 243 668 c 0
 362.879882812 668 447.120117188 543 447.120117188 331 c 0
 447.120117188 116 362.879882812 -12 243 -12 c 0
243 61 m 0
 324 61 377.459960938 163 377.459960938 331 c 0
 377.459960938 496 324 595 243 595 c 0
 162 595 108.540039062 496 108.540039062 331 c 0
 108.540039062 163 162 61 243 61 c 0
EndSplineSet
EndChar

StartChar: Otilde
Encoding: 213 213 146
Width: 486
GlyphClass: 2
Flags: MW
LayerCount: 2
Fore
SplineSet
243 -12 m 0
 123.120117188 -12 38.8798828125 116 38.8798828125 331 c 0
 38.8798828125 543 123.120117188 668 243 668 c 0
 362.879882812 668 447.120117188 543 447.120117188 331 c 0
 447.120117188 116 362.879882812 -12 243 -12 c 0
243 61 m 0
 324 61 377.459960938 163 377.459960938 331 c 0
 377.459960938 496 324 595 243 595 c 0
 162 595 108.540039062 496 108.540039062 331 c 0
 108.540039062 163 162 61 243 61 c 0
303.75 709 m 0
 243 709 221.939453125 780 183.870117188 780 c 0
 163.620117188 780 148.23046875 757 144.989257812 714 c 1
 99.6298828125 718 l 1
 102.870117188 794 133.650390625 841 182.25 841 c 0
 243 841 264.060546875 770 302.129882812 770 c 0
 322.379882812 770 336.959960938 793 341.010742188 836 c 1
 386.370117188 832 l 1
 383.129882812 755 352.349609375 709 303.75 709 c 0
EndSplineSet
EndChar

StartChar: Odieresis
Encoding: 214 214 147
Width: 486
GlyphClass: 2
Flags: MW
LayerCount: 2
Fore
SplineSet
243 -12 m 0
 123.120117188 -12 38.8798828125 116 38.8798828125 331 c 0
 38.8798828125 543 123.120117188 668 243 668 c 0
 362.879882812 668 447.120117188 543 447.120117188 331 c 0
 447.120117188 116 362.879882812 -12 243 -12 c 0
243 61 m 0
 324 61 377.459960938 163 377.459960938 331 c 0
 377.459960938 496 324 595 243 595 c 0
 162 595 108.540039062 496 108.540039062 331 c 0
 108.540039062 163 162 61 243 61 c 0
169.290039062 715 m 0
 145.799804688 715 127.98046875 736 127.98046875 766 c 0
 127.98046875 796 145.799804688 816 169.290039062 816 c 0
 192.780273438 816 209.790039062 796 209.790039062 766 c 0
 209.790039062 736 192.780273438 715 169.290039062 715 c 0
316.709960938 715 m 0
 293.219726562 715 276.209960938 736 276.209960938 766 c 0
 276.209960938 796 293.219726562 816 316.709960938 816 c 0
 340.200195312 816 358.01953125 796 358.01953125 766 c 0
 358.01953125 736 340.200195312 715 316.709960938 715 c 0
EndSplineSet
EndChar

StartChar: multiply
Encoding: 215 215 148
Width: 486
GlyphClass: 2
Flags: MW
LayerCount: 2
Back
SplineSet
210.330078125 81.400390625 m 5
 210.330078125 295.900390625 l 5
 30.150390625 295.900390625 l 5
 30.150390625 364.099609375 l 5
 210.330078125 364.099609375 l 5
 210.330078125 578.599609375 l 5
 275.669921875 578.599609375 l 5
 275.669921875 364.099609375 l 5
 455.849609375 364.099609375 l 5
 455.849609375 295.900390625 l 5
 275.669921875 295.900390625 l 5
 275.669921875 81.400390625 l 5
 210.330078125 81.400390625 l 5
EndSplineSet
Fore
SplineSet
47.359375 139.291992188 m 5
 197.051757812 330.094726562 l 5
 47.357421875 519.703125 l 5
 93.3232421875 577.740234375 l 5
 243.000976562 386.952148438 l 5
 392.678710938 577.740234375 l 5
 438.64453125 519.703125 l 5
 288.950195312 330.094726562 l 5
 438.640625 139.291992188 l 5
 392.671875 81.251953125 l 5
 243 273.232421875 l 5
 93.328125 81.251953125 l 5
 47.359375 139.291992188 l 5
EndSplineSet
EndChar

StartChar: Oslash
Encoding: 216 216 149
Width: 486
GlyphClass: 2
Flags: MW
LayerCount: 2
Fore
SplineSet
25.16015625 6 m 1
 79.4296875 104 l 1
 51.080078125 161 38.8798828125 237 38.8798828125 331 c 0
 38.8798828125 543 123.120117188 668 243 668 c 0
 290.790039062 668 328.099609375 650 362.120117188 613 c 1
 404.239257812 690 l 1
 455.599609375 650 l 1
 403.760742188 556 l 1
 432.919921875 500 447.120117188 425 447.120117188 331 c 0
 447.120117188 116 362.879882812 -12 243 -12 c 0
 194.400390625 -12 154.280273438 7 120.260742188 46 c 1
 76.51953125 -34 l 1
 25.16015625 6 l 1
108.540039062 331 m 0
 108.540039062 272 111.01953125 224 123.169921875 183 c 1
 324.860351562 547 l 1
 302.1796875 579 277.01953125 595 243 595 c 0
 162 595 108.540039062 496 108.540039062 331 c 0
243 61 m 0
 324 61 377.459960938 163 377.459960938 331 c 0
 377.459960938 390 372.98046875 438 360.01953125 478 c 1
 157.51953125 113 l 1
 180.200195312 78 208.169921875 61 243 61 c 0
EndSplineSet
EndChar

StartChar: Ugrave
Encoding: 217 217 150
Width: 486
GlyphClass: 2
Flags: MW
LayerCount: 2
Fore
SplineSet
243.810546875 -12 m 0
 139.3203125 -12 63.9892578125 60 63.9892578125 248 c 2
 63.9892578125 656 l 1
 132.030273438 656 l 1
 132.030273438 246 l 2
 132.030273438 110 179.8203125 61 243.810546875 61 c 0
 307.799804688 61 356.400390625 110 356.400390625 246 c 2
 356.400390625 656 l 1
 422.010742188 656 l 1
 422.010742188 248 l 2
 422.010742188 60 347.489257812 -12 243.810546875 -12 c 0
266.489257812 697 m 1
 143.370117188 812 l 1
 181.439453125 867 l 1
 295.650390625 739 l 1
 266.489257812 697 l 1
EndSplineSet
EndChar

StartChar: Uacute
Encoding: 218 218 151
Width: 486
GlyphClass: 2
Flags: MW
LayerCount: 2
Fore
SplineSet
243.810546875 -12 m 0
 139.3203125 -12 63.9892578125 60 63.9892578125 248 c 2
 63.9892578125 656 l 1
 132.030273438 656 l 1
 132.030273438 246 l 2
 132.030273438 110 179.8203125 61 243.810546875 61 c 0
 307.799804688 61 356.400390625 110 356.400390625 246 c 2
 356.400390625 656 l 1
 422.010742188 656 l 1
 422.010742188 248 l 2
 422.010742188 60 347.489257812 -12 243.810546875 -12 c 0
219.510742188 697 m 1
 190.349609375 739 l 1
 304.560546875 867 l 1
 342.629882812 812 l 1
 219.510742188 697 l 1
EndSplineSet
EndChar

StartChar: Ucircumflex
Encoding: 219 219 152
Width: 486
GlyphClass: 2
Flags: MW
LayerCount: 2
Fore
SplineSet
242.751953125 840.0703125 m 1
 361.634765625 727.790039062 l 1
 328.228515625 693.580078125 l 1
 242.751953125 762 l 1
 157.2734375 693.580078125 l 1
 123.869140625 727.790039062 l 1
 242.751953125 840.0703125 l 1
243.810546875 -12 m 0
 139.3203125 -12 63.9892578125 60 63.9892578125 248 c 2
 63.9892578125 656 l 1
 132.030273438 656 l 1
 132.030273438 246 l 2
 132.030273438 110 179.8203125 61 243.810546875 61 c 0
 307.799804688 61 356.400390625 110 356.400390625 246 c 2
 356.400390625 656 l 1
 422.010742188 656 l 1
 422.010742188 248 l 2
 422.010742188 60 347.489257812 -12 243.810546875 -12 c 0
EndSplineSet
EndChar

StartChar: Udieresis
Encoding: 220 220 153
Width: 486
GlyphClass: 2
Flags: MW
LayerCount: 2
Fore
SplineSet
243.810546875 -12 m 0
 139.3203125 -12 63.9892578125 60 63.9892578125 248 c 2
 63.9892578125 656 l 1
 132.030273438 656 l 1
 132.030273438 246 l 2
 132.030273438 110 179.8203125 61 243.810546875 61 c 0
 307.799804688 61 356.400390625 110 356.400390625 246 c 2
 356.400390625 656 l 1
 422.010742188 656 l 1
 422.010742188 248 l 2
 422.010742188 60 347.489257812 -12 243.810546875 -12 c 0
169.290039062 715 m 0
 145.799804688 715 127.98046875 736 127.98046875 766 c 0
 127.98046875 796 145.799804688 816 169.290039062 816 c 0
 192.780273438 816 209.790039062 796 209.790039062 766 c 0
 209.790039062 736 192.780273438 715 169.290039062 715 c 0
316.709960938 715 m 0
 293.219726562 715 276.209960938 736 276.209960938 766 c 0
 276.209960938 796 293.219726562 816 316.709960938 816 c 0
 340.200195312 816 358.01953125 796 358.01953125 766 c 0
 358.01953125 736 340.200195312 715 316.709960938 715 c 0
EndSplineSet
EndChar

StartChar: Yacute
Encoding: 221 221 154
Width: 486
GlyphClass: 2
Flags: MW
LayerCount: 2
Fore
SplineSet
208.98046875 0 m 1
 208.98046875 234 l 1
 30.7802734375 656 l 1
 102.060546875 656 l 1
 182.25 461 l 2
 202.5 411 221.129882812 361 243 308 c 1
 246.239257812 308 l 1
 267.299804688 361 288.360351562 411 308.610351562 462 c 2
 385.560546875 656 l 1
 455.219726562 656 l 1
 277.01953125 234 l 1
 277.01953125 0 l 1
 208.98046875 0 l 1
219.510742188 697 m 1
 190.349609375 739 l 1
 304.560546875 867 l 1
 342.629882812 812 l 1
 219.510742188 697 l 1
EndSplineSet
EndChar

StartChar: Thorn
Encoding: 222 222 155
Width: 486
GlyphClass: 2
Flags: MW
LayerCount: 2
Fore
SplineSet
81.810546875 0 m 1
 81.810546875 656 l 1
 149.849609375 656 l 1
 149.849609375 546 l 1
 245.4296875 546 l 2
 362.879882812 546 441.450195312 496 441.450195312 353 c 0
 441.450195312 214 361.260742188 150 245.4296875 150 c 2
 149.849609375 150 l 1
 149.849609375 0 l 1
 81.810546875 0 l 1
149.849609375 218 m 1
 236.51953125 218 l 2
 329.669921875 218 374.219726562 259 374.219726562 353 c 0
 374.219726562 447 328.049804688 478 236.51953125 478 c 2
 149.849609375 478 l 1
 149.849609375 218 l 1
EndSplineSet
EndChar

StartChar: germandbls
Encoding: 223 223 156
Width: 486
GlyphClass: 2
Flags: MW
LayerCount: 2
Fore
SplineSet
324.810546875 -12 m 0
 279.450195312 -12 242.189453125 5 208.169921875 33 c 1
 234.900390625 91 l 1
 264.870117188 65 291.599609375 52 323.189453125 52 c 0
 368.549804688 52 393.66015625 89 393.66015625 130 c 0
 393.66015625 246 230.040039062 225 230.040039062 364 c 0
 230.040039062 455 302.939453125 486 302.939453125 571 c 0
 302.939453125 620 277.830078125 657 233.280273438 657 c 0
 174.150390625 657 137.700195312 606 137.700195312 507 c 2
 137.700195312 0 l 1
 71.2802734375 0 l 1
 71.2802734375 519 l 2
 71.2802734375 642 132.83984375 724 234.08984375 724 c 0
 319.950195312 724 366.9296875 655 366.9296875 576 c 0
 366.9296875 476 294.030273438 443 294.030273438 374 c 0
 294.030273438 277 456.83984375 295 456.83984375 137 c 0
 456.83984375 53 405 -12 324.810546875 -12 c 0
EndSplineSet
EndChar

StartChar: agrave
Encoding: 224 224 157
Width: 486
GlyphClass: 2
Flags: MW
LayerCount: 2
Fore
SplineSet
272.969726562 568 m 1
 145.799804688 721 l 1
 192.780273438 777 l 1
 307.799804688 609 l 1
 272.969726562 568 l 1
348.244140625 63.4892578125 m 1
 348.244140625 214.836914062 l 1
 325.0390625 222.736328125 293.314453125 227.599609375 261.548828125 227.599609375 c 0
 230.017578125 227.599609375 200.390625 222.59765625 179.208984375 210.381835938 c 0
 157.916015625 198.1015625 139.52734375 177.646484375 139.52734375 143.559570312 c 0
 139.52734375 111.232421875 149.8203125 87.4306640625 170.958984375 74.2197265625 c 0
 191.349609375 61.474609375 218.40625 55.3603515625 252.001953125 55.3603515625 c 0
 287.408203125 55.3603515625 321.19140625 57.9638671875 348.244140625 63.4892578125 c 1
124.130859375 416.48828125 m 1
 115.890625 478.766601562 l 1
 126.29296875 483.459960938 142.93359375 487.88671875 165.474609375 491.69140625 c 0
 190.359375 495.892578125 217.01953125 498 245.455078125 498 c 0
 278.166015625 498 305.494140625 493.4375 327.4140625 484.516601562 c 0
 368.9375 467.618164062 397.3125 438.208007812 409.056640625 390.353515625 c 0
 414.6640625 367.5 417.48828125 342.4921875 417.48828125 315.305664062 c 2
 416.3984375 6.921875 l 1
 398.494140625 3.5439453125 375.44921875 -0.4541015625 347.27734375 -5.068359375 c 0
 317.2734375 -9.9814453125 286.470703125 -12 254.8671875 -12 c 0
 230.947265625 -12 207.673828125 -10.1669921875 185.037109375 -5.6240234375 c 0
 139.1171875 3.58984375 104.5 25.962890625 84.11328125 64.607421875 c 0
 73.826171875 84.1142578125 68.51171875 109.352539062 68.51171875 140.545898438 c 0
 68.51171875 168.092773438 73.919921875 190.947265625 84.505859375 209.430664062 c 0
 105.759765625 246.548828125 139.955078125 269.877929688 184.69140625 280.381835938 c 0
 206.98046875 285.614257812 229.416015625 288.228515625 252.001953125 288.228515625 c 0
 284.830078125 288.228515625 317.576171875 283.202148438 348.244140625 275.224609375 c 1
 349.333984375 311.061523438 l 2
 349.333984375 391.4140625 312.6875 433.932617188 238.76953125 433.932617188 c 0
 194.68359375 433.932617188 154.771484375 427.126953125 124.130859375 416.48828125 c 1
EndSplineSet
EndChar

StartChar: aacute
Encoding: 225 225 158
Width: 486
GlyphClass: 2
Flags: MW
LayerCount: 2
Fore
SplineSet
238.950195312 568 m 1
 204.120117188 609 l 1
 319.139648438 777 l 1
 366.120117188 721 l 1
 238.950195312 568 l 1
348.244140625 63.4892578125 m 1
 348.244140625 214.836914062 l 1
 325.0390625 222.736328125 293.314453125 227.599609375 261.548828125 227.599609375 c 0
 230.017578125 227.599609375 200.390625 222.59765625 179.208984375 210.381835938 c 0
 157.916015625 198.1015625 139.52734375 177.646484375 139.52734375 143.559570312 c 0
 139.52734375 111.232421875 149.8203125 87.4306640625 170.958984375 74.2197265625 c 0
 191.349609375 61.474609375 218.40625 55.3603515625 252.001953125 55.3603515625 c 0
 287.408203125 55.3603515625 321.19140625 57.9638671875 348.244140625 63.4892578125 c 1
124.130859375 416.48828125 m 1
 115.890625 478.766601562 l 1
 126.29296875 483.459960938 142.93359375 487.88671875 165.474609375 491.69140625 c 0
 190.359375 495.892578125 217.01953125 498 245.455078125 498 c 0
 278.166015625 498 305.494140625 493.4375 327.4140625 484.516601562 c 0
 368.9375 467.618164062 397.3125 438.208007812 409.056640625 390.353515625 c 0
 414.6640625 367.5 417.48828125 342.4921875 417.48828125 315.305664062 c 2
 416.3984375 6.921875 l 1
 398.494140625 3.5439453125 375.44921875 -0.4541015625 347.27734375 -5.068359375 c 0
 317.2734375 -9.9814453125 286.470703125 -12 254.8671875 -12 c 0
 230.947265625 -12 207.673828125 -10.1669921875 185.037109375 -5.6240234375 c 0
 139.1171875 3.58984375 104.5 25.962890625 84.11328125 64.607421875 c 0
 73.826171875 84.1142578125 68.51171875 109.352539062 68.51171875 140.545898438 c 0
 68.51171875 168.092773438 73.919921875 190.947265625 84.505859375 209.430664062 c 0
 105.759765625 246.548828125 139.955078125 269.877929688 184.69140625 280.381835938 c 0
 206.98046875 285.614257812 229.416015625 288.228515625 252.001953125 288.228515625 c 0
 284.830078125 288.228515625 317.576171875 283.202148438 348.244140625 275.224609375 c 1
 349.333984375 311.061523438 l 2
 349.333984375 391.4140625 312.6875 433.932617188 238.76953125 433.932617188 c 0
 194.68359375 433.932617188 154.771484375 427.126953125 124.130859375 416.48828125 c 1
EndSplineSet
EndChar

StartChar: acircumflex
Encoding: 226 226 159
Width: 486
GlyphClass: 2
Flags: MW
LayerCount: 2
Fore
SplineSet
348.244140625 63.4892578125 m 1
 348.244140625 214.836914062 l 1
 325.0390625 222.736328125 293.314453125 227.599609375 261.548828125 227.599609375 c 0
 230.017578125 227.599609375 200.390625 222.59765625 179.208984375 210.381835938 c 0
 157.916015625 198.1015625 139.52734375 177.646484375 139.52734375 143.559570312 c 0
 139.52734375 111.232421875 149.8203125 87.4306640625 170.958984375 74.2197265625 c 0
 191.349609375 61.474609375 218.40625 55.3603515625 252.001953125 55.3603515625 c 0
 287.408203125 55.3603515625 321.19140625 57.9638671875 348.244140625 63.4892578125 c 1
124.130859375 416.48828125 m 1
 115.890625 478.766601562 l 1
 126.29296875 483.459960938 142.93359375 487.88671875 165.474609375 491.69140625 c 0
 190.359375 495.892578125 217.01953125 498 245.455078125 498 c 0
 278.166015625 498 305.494140625 493.4375 327.4140625 484.516601562 c 0
 368.9375 467.618164062 397.3125 438.208007812 409.056640625 390.353515625 c 0
 414.6640625 367.5 417.48828125 342.4921875 417.48828125 315.305664062 c 2
 416.3984375 6.921875 l 1
 398.494140625 3.5439453125 375.44921875 -0.4541015625 347.27734375 -5.068359375 c 0
 317.2734375 -9.9814453125 286.470703125 -12 254.8671875 -12 c 0
 230.947265625 -12 207.673828125 -10.1669921875 185.037109375 -5.6240234375 c 0
 139.1171875 3.58984375 104.5 25.962890625 84.11328125 64.607421875 c 0
 73.826171875 84.1142578125 68.51171875 109.352539062 68.51171875 140.545898438 c 0
 68.51171875 168.092773438 73.919921875 190.947265625 84.505859375 209.430664062 c 0
 105.759765625 246.548828125 139.955078125 269.877929688 184.69140625 280.381835938 c 0
 206.98046875 285.614257812 229.416015625 288.228515625 252.001953125 288.228515625 c 0
 284.830078125 288.228515625 317.576171875 283.202148438 348.244140625 275.224609375 c 1
 349.333984375 311.061523438 l 2
 349.333984375 391.4140625 312.6875 433.932617188 238.76953125 433.932617188 c 0
 194.68359375 433.932617188 154.771484375 427.126953125 124.130859375 416.48828125 c 1
258 707.169921875 m 1
 376.8828125 594.889648438 l 1
 343.477539062 560.6796875 l 1
 258 629.099609375 l 1
 172.522460938 560.6796875 l 1
 139.1171875 594.889648438 l 1
 258 707.169921875 l 1
EndSplineSet
EndChar

StartChar: atilde
Encoding: 227 227 160
Width: 486
GlyphClass: 2
Flags: MW
LayerCount: 2
Fore
SplineSet
301.3203125 577 m 0
 243.810546875 577 222.75 661 185.489257812 661 c 0
 161.189453125 661 149.849609375 629 147.419921875 582 c 1
 102.870117188 585 l 1
 105.299804688 663 128.790039062 721 184.6796875 721 c 0
 242.189453125 721 263.25 637 301.3203125 637 c 0
 324.810546875 637 336.150390625 670 338.580078125 716 c 1
 383.129882812 712 l 1
 380.700195312 635 357.209960938 577 301.3203125 577 c 0
348.244140625 63.4892578125 m 1
 348.244140625 214.836914062 l 1
 325.0390625 222.736328125 293.314453125 227.599609375 261.548828125 227.599609375 c 0
 230.017578125 227.599609375 200.390625 222.59765625 179.208984375 210.381835938 c 0
 157.916015625 198.1015625 139.52734375 177.646484375 139.52734375 143.559570312 c 0
 139.52734375 111.232421875 149.8203125 87.4306640625 170.958984375 74.2197265625 c 0
 191.349609375 61.474609375 218.40625 55.3603515625 252.001953125 55.3603515625 c 0
 287.408203125 55.3603515625 321.19140625 57.9638671875 348.244140625 63.4892578125 c 1
124.130859375 416.48828125 m 1
 115.890625 478.766601562 l 1
 126.29296875 483.459960938 142.93359375 487.88671875 165.474609375 491.69140625 c 0
 190.359375 495.892578125 217.01953125 498 245.455078125 498 c 0
 278.166015625 498 305.494140625 493.4375 327.4140625 484.516601562 c 0
 368.9375 467.618164062 397.3125 438.208007812 409.056640625 390.353515625 c 0
 414.6640625 367.5 417.48828125 342.4921875 417.48828125 315.305664062 c 2
 416.3984375 6.921875 l 1
 398.494140625 3.5439453125 375.44921875 -0.4541015625 347.27734375 -5.068359375 c 0
 317.2734375 -9.9814453125 286.470703125 -12 254.8671875 -12 c 0
 230.947265625 -12 207.673828125 -10.1669921875 185.037109375 -5.6240234375 c 0
 139.1171875 3.58984375 104.5 25.962890625 84.11328125 64.607421875 c 0
 73.826171875 84.1142578125 68.51171875 109.352539062 68.51171875 140.545898438 c 0
 68.51171875 168.092773438 73.919921875 190.947265625 84.505859375 209.430664062 c 0
 105.759765625 246.548828125 139.955078125 269.877929688 184.69140625 280.381835938 c 0
 206.98046875 285.614257812 229.416015625 288.228515625 252.001953125 288.228515625 c 0
 284.830078125 288.228515625 317.576171875 283.202148438 348.244140625 275.224609375 c 1
 349.333984375 311.061523438 l 2
 349.333984375 391.4140625 312.6875 433.932617188 238.76953125 433.932617188 c 0
 194.68359375 433.932617188 154.771484375 427.126953125 124.130859375 416.48828125 c 1
EndSplineSet
EndChar

StartChar: adieresis
Encoding: 228 228 161
Width: 486
GlyphClass: 2
Flags: MW
LayerCount: 2
Fore
SplineSet
177.389648438 588 m 0
 151.469726562 588 132.83984375 612 132.83984375 644 c 0
 132.83984375 675 151.469726562 700 177.389648438 700 c 0
 203.310546875 700 221.939453125 675 221.939453125 644 c 0
 221.939453125 612 203.310546875 588 177.389648438 588 c 0
334.530273438 588 m 0
 308.610351562 588 289.98046875 612 289.98046875 644 c 0
 289.98046875 675 308.610351562 700 334.530273438 700 c 0
 360.450195312 700 379.080078125 675 379.080078125 644 c 0
 379.080078125 612 360.450195312 588 334.530273438 588 c 0
348.244140625 63.4892578125 m 1
 348.244140625 214.836914062 l 1
 325.0390625 222.736328125 293.314453125 227.599609375 261.548828125 227.599609375 c 0
 230.017578125 227.599609375 200.390625 222.59765625 179.208984375 210.381835938 c 0
 157.916015625 198.1015625 139.52734375 177.646484375 139.52734375 143.559570312 c 0
 139.52734375 111.232421875 149.8203125 87.4306640625 170.958984375 74.2197265625 c 0
 191.349609375 61.474609375 218.40625 55.3603515625 252.001953125 55.3603515625 c 0
 287.408203125 55.3603515625 321.19140625 57.9638671875 348.244140625 63.4892578125 c 1
124.130859375 416.48828125 m 1
 115.890625 478.766601562 l 1
 126.29296875 483.459960938 142.93359375 487.88671875 165.474609375 491.69140625 c 0
 190.359375 495.892578125 217.01953125 498 245.455078125 498 c 0
 278.166015625 498 305.494140625 493.4375 327.4140625 484.516601562 c 0
 368.9375 467.618164062 397.3125 438.208007812 409.056640625 390.353515625 c 0
 414.6640625 367.5 417.48828125 342.4921875 417.48828125 315.305664062 c 2
 416.3984375 6.921875 l 1
 398.494140625 3.5439453125 375.44921875 -0.4541015625 347.27734375 -5.068359375 c 0
 317.2734375 -9.9814453125 286.470703125 -12 254.8671875 -12 c 0
 230.947265625 -12 207.673828125 -10.1669921875 185.037109375 -5.6240234375 c 0
 139.1171875 3.58984375 104.5 25.962890625 84.11328125 64.607421875 c 0
 73.826171875 84.1142578125 68.51171875 109.352539062 68.51171875 140.545898438 c 0
 68.51171875 168.092773438 73.919921875 190.947265625 84.505859375 209.430664062 c 0
 105.759765625 246.548828125 139.955078125 269.877929688 184.69140625 280.381835938 c 0
 206.98046875 285.614257812 229.416015625 288.228515625 252.001953125 288.228515625 c 0
 284.830078125 288.228515625 317.576171875 283.202148438 348.244140625 275.224609375 c 1
 349.333984375 311.061523438 l 2
 349.333984375 391.4140625 312.6875 433.932617188 238.76953125 433.932617188 c 0
 194.68359375 433.932617188 154.771484375 427.126953125 124.130859375 416.48828125 c 1
EndSplineSet
EndChar

StartChar: aring
Encoding: 229 229 162
Width: 486
GlyphClass: 2
Flags: MW
LayerCount: 2
Fore
SplineSet
343.259765625 640.279296875 m 0
 343.259765625 613.90625 334.963867188 593.206054688 318.372070312 578.1796875 c 0
 301.78125 563.153320312 282.323242188 555.639648438 260 555.639648438 c 0
 237.67578125 555.639648438 218.21875 563.153320312 201.626953125 578.1796875 c 0
 185.036132812 593.206054688 176.740234375 613.90625 176.740234375 640.279296875 c 0
 176.740234375 666.040039062 185.036132812 686.43359375 201.626953125 701.459960938 c 0
 218.21875 716.486328125 237.67578125 724 260 724 c 0
 282.323242188 724 301.78125 716.486328125 318.372070312 701.459960938 c 0
 334.963867188 686.43359375 343.259765625 666.040039062 343.259765625 640.279296875 c 0
302.53515625 640.279296875 m 0
 302.53515625 654.385742188 298.461914062 665.42578125 290.317382812 673.399414062 c 0
 282.172851562 681.373046875 272.06640625 685.359375 260 685.359375 c 0
 247.93359375 685.359375 237.827148438 681.373046875 229.682617188 673.399414062 c 0
 221.537109375 665.42578125 217.46484375 654.385742188 217.46484375 640.279296875 c 0
 217.46484375 625.559570312 221.537109375 614.212890625 229.682617188 606.239257812 c 0
 237.827148438 598.265625 247.93359375 594.279296875 260 594.279296875 c 0
 272.06640625 594.279296875 282.172851562 598.265625 290.317382812 606.239257812 c 0
 298.461914062 614.212890625 302.53515625 625.559570312 302.53515625 640.279296875 c 0
348.244140625 63.4892578125 m 1
 348.244140625 214.836914062 l 1
 325.0390625 222.736328125 293.314453125 227.599609375 261.548828125 227.599609375 c 0
 230.017578125 227.599609375 200.390625 222.59765625 179.208984375 210.381835938 c 0
 157.916015625 198.1015625 139.52734375 177.646484375 139.52734375 143.559570312 c 0
 139.52734375 111.232421875 149.8203125 87.4306640625 170.958984375 74.2197265625 c 0
 191.349609375 61.474609375 218.40625 55.3603515625 252.001953125 55.3603515625 c 0
 287.408203125 55.3603515625 321.19140625 57.9638671875 348.244140625 63.4892578125 c 1
124.130859375 416.48828125 m 1
 115.890625 478.766601562 l 1
 126.29296875 483.459960938 142.93359375 487.88671875 165.474609375 491.69140625 c 0
 190.359375 495.892578125 217.01953125 498 245.455078125 498 c 0
 278.166015625 498 305.494140625 493.4375 327.4140625 484.516601562 c 0
 368.9375 467.618164062 397.3125 438.208007812 409.056640625 390.353515625 c 0
 414.6640625 367.5 417.48828125 342.4921875 417.48828125 315.305664062 c 2
 416.3984375 6.921875 l 1
 398.494140625 3.5439453125 375.44921875 -0.4541015625 347.27734375 -5.068359375 c 0
 317.2734375 -9.9814453125 286.470703125 -12 254.8671875 -12 c 0
 230.947265625 -12 207.673828125 -10.1669921875 185.037109375 -5.6240234375 c 0
 139.1171875 3.58984375 104.5 25.962890625 84.11328125 64.607421875 c 0
 73.826171875 84.1142578125 68.51171875 109.352539062 68.51171875 140.545898438 c 0
 68.51171875 168.092773438 73.919921875 190.947265625 84.505859375 209.430664062 c 0
 105.759765625 246.548828125 139.955078125 269.877929688 184.69140625 280.381835938 c 0
 206.98046875 285.614257812 229.416015625 288.228515625 252.001953125 288.228515625 c 0
 284.830078125 288.228515625 317.576171875 283.202148438 348.244140625 275.224609375 c 1
 349.333984375 311.061523438 l 2
 349.333984375 391.4140625 312.6875 433.932617188 238.76953125 433.932617188 c 0
 194.68359375 433.932617188 154.771484375 427.126953125 124.130859375 416.48828125 c 1
EndSplineSet
EndChar

StartChar: ae
Encoding: 230 230 163
Width: 486
GlyphClass: 2
Flags: MW
LayerCount: 2
Fore
SplineSet
141.040039062 59.6552734375 m 4
 196.79296875 59.6552734375 197.766601562 107.075195312 197.780273438 213.334960938 c 5
 163.53515625 217.977539062 159.247070312 218.55859375 144.793945312 218.55859375 c 4
 126.358398438 218.55859375 107.569335938 215.567382812 92.0185546875 206.046875 c 4
 77.0791015625 196.901367188 65.8779296875 176.477539062 65.8779296875 144.102539062 c 4
 65.8779296875 113.14453125 73.0908203125 91.169921875 86.708984375 79.3759765625 c 4
 100.380859375 67.5361328125 118.764648438 59.6552734375 141.040039062 59.6552734375 c 4
345.141601562 415.64453125 m 4
 304.814453125 415.64453125 270.262695312 370.661132812 261.17578125 282.754882812 c 5
 423.186523438 282.754882812 l 5
 418.377929688 374.633789062 388.102539062 415.64453125 345.141601562 415.64453125 c 4
148.731445312 287.609375 m 4
 162.3671875 287.609375 178.568359375 286.568359375 197.909179688 283.833984375 c 5
 198.767578125 308.705078125 198.850585938 311.108398438 198.850585938 320.930664062 c 4
 198.850585938 373.02734375 190.263671875 424.888671875 131.765625 424.888671875 c 4
 118.330078125 424.888671875 87.5908203125 424.888671875 48.5849609375 405.859375 c 5
 48.5849609375 408.1484375 42.1513671875 477.431640625 42.1513671875 474.188476562 c 5
 47.134765625 477.348632812 55.7109375 482.872070312 79.71875 488.486328125 c 4
 97.1796875 492.569335938 116.168945312 498 136.346679688 498 c 4
 160.366210938 498 216.030273438 488.984375 240.670898438 421.385742188 c 5
 266.711914062 468.084960938 304.440429688 498 343.908203125 498 c 4
 427.873046875 498 474.833007812 398.419921875 474.833007812 263.858398438 c 4
 474.833007812 242.583007812 473.415039062 226.69140625 472.150390625 212.514648438 c 5
 256.853515625 212.514648438 l 5
 263.39453125 109.9921875 305.166992188 58.162109375 357.515625 58.162109375 c 4
 398.84765625 58.162109375 425.788085938 87.517578125 443.87890625 107.479492188 c 5
 443.87890625 105.651367188 464.168945312 41.4697265625 464.168945312 44.1552734375 c 5
 449.286132812 26.951171875 413.295898438 -11.6396484375 351.51171875 -11.6396484375 c 4
 306.16015625 -11.6396484375 267.17578125 12.98046875 240.296875 61.4931640625 c 5
 211.801757812 -1.130859375 160.334960938 -11.6396484375 137.16015625 -11.6396484375 c 4
 120.260742188 -11.6396484375 103.64453125 -8.826171875 87.5625 -4.3544921875 c 4
 54.28515625 5.029296875 34.7978515625 25.2841796875 20.3037109375 63.8896484375 c 4
 12.8994140625 83.6103515625 9.1669921875 108.81640625 9.1669921875 139.76953125 c 4
 9.1669921875 167.1796875 12.9853515625 190.090820312 20.6123046875 208.80078125 c 4
 35.6767578125 245.7578125 55.9052734375 270.934570312 93.09375 280.633789062 c 4
 104.491210938 283.606445312 121.890625 287.609375 148.731445312 287.609375 c 4
EndSplineSet
EndChar

StartChar: ccedilla
Encoding: 231 231 164
Width: 486
GlyphClass: 2
Flags: MW
LayerCount: 2
Fore
SplineSet
202.095703125 -226 m 1
 195.615234375 -186 l 1
 263.654296875 -180 283.904296875 -165 283.904296875 -136 c 0
 283.904296875 -110 267.705078125 -96 221.53515625 -88 c 1
 247.455078125 -11 l 1
 137.294921875 1 57.10546875 92 57.10546875 242 c 0
 57.10546875 405 157.544921875 498 276.615234375 498 c 0
 340.60546875 498 387.5859375 466 419.984375 427 c 1
 386.775390625 374 l 1
 354.375 409 320.35546875 430 279.044921875 430 c 0
 188.32421875 430 125.955078125 354 125.955078125 242 c 0
 125.955078125 131 186.705078125 56 277.42578125 56 c 0
 326.025390625 56 366.525390625 83 398.92578125 117 c 1
 428.89453125 64 l 1
 390.015625 21 343.03515625 -5 292.005859375 -11 c 1
 276.615234375 -64 l 1
 313.875 -75 335.744140625 -94 335.744140625 -135 c 0
 335.744140625 -193 287.955078125 -221 202.095703125 -226 c 1
EndSplineSet
EndChar

StartChar: egrave
Encoding: 232 232 165
Width: 486
GlyphClass: 2
Flags: MW
LayerCount: 2
Fore
SplineSet
255.150390625 433 m 0
 190.349609375 433 133.650390625 380 121.5 284 c 1
 372.599609375 284 l 1
 366.9296875 384 322.380859375 433 255.150390625 433 c 0
264.869140625 -12 m 0
 146.609375 -12 52.650390625 82 52.650390625 244 c 0
 52.650390625 402 148.23046875 498 253.529296875 498 c 0
 366.9296875 498 433.349609375 407 433.349609375 270 c 0
 433.349609375 251 431.73046875 233 430.109375 220 c 1
 119.880859375 220 l 1
 127.98046875 110 191.16015625 54 272.970703125 54 c 0
 319.94921875 54 357.208984375 72 392.849609375 100 c 1
 417.150390625 46 l 1
 378.26953125 14 328.05078125 -12 264.869140625 -12 c 0
270.5390625 568 m 1
 143.369140625 721 l 1
 190.349609375 777 l 1
 305.369140625 609 l 1
 270.5390625 568 l 1
EndSplineSet
EndChar

StartChar: eacute
Encoding: 233 233 166
Width: 486
GlyphClass: 2
Flags: MW
LayerCount: 2
Fore
SplineSet
255.150390625 433 m 0
 190.349609375 433 133.650390625 380 121.5 284 c 1
 372.599609375 284 l 1
 366.9296875 384 322.380859375 433 255.150390625 433 c 0
264.869140625 -12 m 0
 146.609375 -12 52.650390625 82 52.650390625 244 c 0
 52.650390625 402 148.23046875 498 253.529296875 498 c 0
 366.9296875 498 433.349609375 407 433.349609375 270 c 0
 433.349609375 251 431.73046875 233 430.109375 220 c 1
 119.880859375 220 l 1
 127.98046875 110 191.16015625 54 272.970703125 54 c 0
 319.94921875 54 357.208984375 72 392.849609375 100 c 1
 417.150390625 46 l 1
 378.26953125 14 328.05078125 -12 264.869140625 -12 c 0
236.51953125 568 m 1
 201.689453125 609 l 1
 316.708984375 777 l 1
 363.689453125 721 l 1
 236.51953125 568 l 1
EndSplineSet
EndChar

StartChar: ecircumflex
Encoding: 234 234 167
Width: 486
GlyphClass: 2
Flags: MW
LayerCount: 2
Fore
SplineSet
255.299804688 707.169921875 m 1
 374.182617188 594.889648438 l 1
 340.77734375 560.6796875 l 1
 255.299804688 629.099609375 l 1
 169.822265625 560.6796875 l 1
 136.416992188 594.889648438 l 1
 255.299804688 707.169921875 l 1
420.21484375 47.044921875 m 1
 380.868164062 14.66015625 330.365234375 -12 265.221679688 -12 c 0
 144.520507812 -12 49.9501953125 82.2041015625 49.9501953125 243.994140625 c 0
 49.9501953125 401.786132812 146.081054688 498 253.69921875 498 c 0
 369.130859375 498 436.049804688 406.564453125 436.049804688 269.724609375 c 0
 436.049804688 250.05078125 434.340820312 232.103515625 432.635742188 218.5 c 1
 119.999023438 218.5 l 1
 128.544921875 111.280273438 191.39453125 57 273.453125 57 c 0
 321.5703125 57 358.913085938 75.6142578125 394.704101562 103.733398438 c 1
 420.21484375 47.044921875 l 1
372.508789062 285.5 m 1
 366.489257812 382.89453125 322.482421875 430 255.345703125 430 c 0
 190.649414062 430 134.236328125 378.856445312 121.708007812 285.5 c 1
 372.508789062 285.5 l 1
EndSplineSet
EndChar

StartChar: edieresis
Encoding: 235 235 168
Width: 486
GlyphClass: 2
Flags: MW
LayerCount: 2
Fore
SplineSet
255.150390625 433 m 0
 190.349609375 433 133.650390625 380 121.5 284 c 1
 372.599609375 284 l 1
 366.9296875 384 322.380859375 433 255.150390625 433 c 0
264.869140625 -12 m 0
 146.609375 -12 52.650390625 82 52.650390625 244 c 0
 52.650390625 402 148.23046875 498 253.529296875 498 c 0
 366.9296875 498 433.349609375 407 433.349609375 270 c 0
 433.349609375 251 431.73046875 233 430.109375 220 c 1
 119.880859375 220 l 1
 127.98046875 110 191.16015625 54 272.970703125 54 c 0
 319.94921875 54 357.208984375 72 392.849609375 100 c 1
 417.150390625 46 l 1
 378.26953125 14 328.05078125 -12 264.869140625 -12 c 0
174.958984375 588 m 0
 149.0390625 588 130.41015625 612 130.41015625 644 c 0
 130.41015625 675 149.0390625 700 174.958984375 700 c 0
 200.880859375 700 219.509765625 675 219.509765625 644 c 0
 219.509765625 612 200.880859375 588 174.958984375 588 c 0
332.099609375 588 m 0
 306.1796875 588 287.55078125 612 287.55078125 644 c 0
 287.55078125 675 306.1796875 700 332.099609375 700 c 0
 358.01953125 700 376.650390625 675 376.650390625 644 c 0
 376.650390625 612 358.01953125 588 332.099609375 588 c 0
EndSplineSet
EndChar

StartChar: igrave
Encoding: 236 236 169
Width: 486
GlyphClass: 2
Flags: MW
LayerCount: 2
Fore
SplineSet
295.650390625 0 m 1
 295.650390625 419 l 1
 112.58984375 419 l 1
 112.58984375 486 l 1
 362.0703125 486 l 1
 362.0703125 0 l 1
 295.650390625 0 l 1
338.580078125 568 m 1
 211.41015625 721 l 1
 258.390625 777 l 1
 373.41015625 609 l 1
 338.580078125 568 l 1
EndSplineSet
EndChar

StartChar: iacute
Encoding: 237 237 170
Width: 486
GlyphClass: 2
Flags: MW
LayerCount: 2
Fore
SplineSet
266.490234375 0 m 1
 266.490234375 419 l 1
 83.4296875 419 l 1
 83.4296875 486 l 1
 332.91015625 486 l 1
 332.91015625 0 l 1
 266.490234375 0 l 1
275.400390625 568 m 1
 240.5703125 609 l 1
 355.58984375 777 l 1
 402.5703125 721 l 1
 275.400390625 568 l 1
EndSplineSet
EndChar

StartChar: icircumflex
Encoding: 238 238 171
Width: 486
GlyphClass: 2
Flags: MW
LayerCount: 2
Fore
SplineSet
276.108398438 707.169921875 m 1
 394.991210938 594.889648438 l 1
 361.5859375 560.6796875 l 1
 276.108398438 629.099609375 l 1
 190.630859375 560.6796875 l 1
 157.225585938 594.889648438 l 1
 276.108398438 707.169921875 l 1
274.068359375 0 m 1
 274.068359375 417 l 1
 91.0087890625 417 l 1
 91.0087890625 486 l 1
 342.288085938 486 l 1
 342.288085938 0 l 1
 274.068359375 0 l 1
EndSplineSet
EndChar

StartChar: idieresis
Encoding: 239 239 172
Width: 486
GlyphClass: 2
Flags: MW
LayerCount: 2
Fore
SplineSet
260.009765625 0 m 1
 260.009765625 419 l 1
 76.9501953125 419 l 1
 76.9501953125 486 l 1
 326.4296875 486 l 1
 326.4296875 0 l 1
 260.009765625 0 l 1
207.360351562 588 m 0
 181.439453125 588 162.810546875 612 162.810546875 644 c 0
 162.810546875 675 181.439453125 700 207.360351562 700 c 0
 233.280273438 700 251.91015625 675 251.91015625 644 c 0
 251.91015625 612 233.280273438 588 207.360351562 588 c 0
364.5 588 m 0
 338.580078125 588 319.950195312 612 319.950195312 644 c 0
 319.950195312 675 338.580078125 700 364.5 700 c 0
 390.419921875 700 409.049804688 675 409.049804688 644 c 0
 409.049804688 612 390.419921875 588 364.5 588 c 0
EndSplineSet
EndChar

StartChar: eth
Encoding: 240 240 173
Width: 486
GlyphClass: 2
Flags: MW
LayerCount: 2
Fore
SplineSet
112.58984375 222 m 0
 112.58984375 122 172.530273438 56 244.620117188 56 c 0
 330.48046875 56 371.790039062 138 371.790039062 254 c 0
 371.790039062 269 371.790039062 284 370.98046875 298 c 1
 332.91015625 360 286.740234375 383 244.620117188 383 c 0
 157.950195312 383 112.58984375 314 112.58984375 222 c 0
243 -12 m 0
 140.940429688 -12 50.2197265625 77 50.2197265625 222 c 0
 50.2197265625 358 127.98046875 447 234.900390625 447 c 0
 285.120117188 447 333.719726562 417 363.690429688 367 c 1
 349.109375 455 317.520507812 520 270.540039062 572 c 1
 147.419921875 494 l 1
 123.120117188 546 l 1
 228.419921875 612 l 1
 200.880859375 636 169.290039062 657 135.270507812 678 c 1
 166.049804688 730 l 1
 207.359375 706 247.049804688 679 282.690429688 646 c 1
 393.66015625 716 l 1
 417.959960938 666 l 1
 322.380859375 605 l 1
 390.419921875 524 435.780273438 415 435.780273438 257 c 0
 435.780273438 97 361.259765625 -12 243 -12 c 0
EndSplineSet
EndChar

StartChar: ntilde
Encoding: 241 241 174
Width: 486
GlyphClass: 2
Flags: MW
LayerCount: 2
Fore
SplineSet
301.3203125 577 m 0
 243.810546875 577 222.75 661 185.489257812 661 c 0
 161.189453125 661 149.849609375 629 147.419921875 582 c 1
 102.870117188 585 l 1
 105.299804688 663 128.790039062 721 184.6796875 721 c 0
 242.189453125 721 263.25 637 301.3203125 637 c 0
 324.810546875 637 336.150390625 670 338.580078125 716 c 1
 383.129882812 712 l 1
 380.700195312 635 357.209960938 577 301.3203125 577 c 0
364.255859375 449.563476562 m 0
 392.671875 417.658203125 407.4140625 365.755859375 407.4140625 292.919921875 c 2
 407.482421875 0 l 1
 339.73046875 0 l 1
 339.66015625 277.3203125 l 2
 339.66015625 308.8203125 337.1640625 334.536132812 332 354.614257812 c 0
 326.87890625 374.5390625 319.599609375 390.374023438 309.900390625 401.89453125 c 0
 292.384765625 422.6953125 266.576171875 432.080078125 232.201171875 432.080078125 c 0
 203.27734375 432.080078125 172.400390625 427.190429688 147.205078125 421.858398438 c 1
 147.2734375 0 l 1
 78.5859375 0 l 1
 78.517578125 475.145507812 l 1
 125.998046875 487.807617188 181.521484375 498 235.9453125 498 c 0
 293.23828125 498 335.72265625 481.600585938 364.255859375 449.563476562 c 0
EndSplineSet
EndChar

StartChar: ograve
Encoding: 242 242 175
Width: 486
GlyphClass: 2
Flags: MW
LayerCount: 2
Fore
SplineSet
243 -12 m 0
 139.3203125 -12 48.599609375 81 48.599609375 242 c 0
 48.599609375 405 139.3203125 498 243 498 c 0
 346.6796875 498 437.400390625 405 437.400390625 242 c 0
 437.400390625 81 346.6796875 -12 243 -12 c 0
243 56 m 0
 318.330078125 56 368.549804688 131 368.549804688 242 c 0
 368.549804688 354 318.330078125 430 243 430 c 0
 167.669921875 430 117.450195312 354 117.450195312 242 c 0
 117.450195312 131 167.669921875 56 243 56 c 0
260.010742188 568 m 1
 132.83984375 721 l 1
 179.8203125 777 l 1
 294.83984375 609 l 1
 260.010742188 568 l 1
EndSplineSet
EndChar

StartChar: oacute
Encoding: 243 243 176
Width: 486
GlyphClass: 2
Flags: MW
LayerCount: 2
Fore
SplineSet
243 -12 m 0
 139.3203125 -12 48.599609375 81 48.599609375 242 c 0
 48.599609375 405 139.3203125 498 243 498 c 0
 346.6796875 498 437.400390625 405 437.400390625 242 c 0
 437.400390625 81 346.6796875 -12 243 -12 c 0
243 56 m 0
 318.330078125 56 368.549804688 131 368.549804688 242 c 0
 368.549804688 354 318.330078125 430 243 430 c 0
 167.669921875 430 117.450195312 354 117.450195312 242 c 0
 117.450195312 131 167.669921875 56 243 56 c 0
225.989257812 568 m 1
 191.16015625 609 l 1
 306.1796875 777 l 1
 353.16015625 721 l 1
 225.989257812 568 l 1
EndSplineSet
EndChar

StartChar: ocircumflex
Encoding: 244 244 177
Width: 486
GlyphClass: 2
Flags: MW
LayerCount: 2
Fore
SplineSet
244.200195312 707.0703125 m 1
 363.083007812 594.790039062 l 1
 329.677734375 560.580078125 l 1
 244.200195312 629 l 1
 158.72265625 560.580078125 l 1
 125.317382812 594.790039062 l 1
 244.200195312 707.0703125 l 1
439.200195312 242.00390625 m 0
 439.200195312 81.1865234375 348.127929688 -12 243 -12 c 0
 137.872070312 -12 46.7998046875 81.1865234375 46.7998046875 242.00390625 c 0
 46.7998046875 404.807617188 137.869140625 498 243 498 c 0
 348.131835938 498 439.200195312 404.807617188 439.200195312 242.00390625 c 0
117.450195312 242.005859375 m 0
 117.450195312 131.880859375 167.579101562 58 243 58 c 0
 318.420898438 58 368.549804688 131.880859375 368.549804688 242.005859375 c 0
 368.549804688 353.1328125 318.412109375 428 243 428 c 0
 167.587890625 428 117.450195312 353.1328125 117.450195312 242.005859375 c 0
EndSplineSet
EndChar

StartChar: otilde
Encoding: 245 245 178
Width: 486
GlyphClass: 2
Flags: MW
LayerCount: 2
Fore
SplineSet
243 -12 m 0
 139.3203125 -12 48.599609375 81 48.599609375 242 c 0
 48.599609375 405 139.3203125 498 243 498 c 0
 346.6796875 498 437.400390625 405 437.400390625 242 c 0
 437.400390625 81 346.6796875 -12 243 -12 c 0
243 56 m 0
 318.330078125 56 368.549804688 131 368.549804688 242 c 0
 368.549804688 354 318.330078125 430 243 430 c 0
 167.669921875 430 117.450195312 354 117.450195312 242 c 0
 117.450195312 131 167.669921875 56 243 56 c 0
301.3203125 577 m 0
 243.810546875 577 222.75 661 185.489257812 661 c 0
 161.189453125 661 149.849609375 629 147.419921875 582 c 1
 102.870117188 585 l 1
 105.299804688 663 128.790039062 721 184.6796875 721 c 0
 242.189453125 721 263.25 637 301.3203125 637 c 0
 324.810546875 637 336.150390625 670 338.580078125 716 c 1
 383.129882812 712 l 1
 380.700195312 635 357.209960938 577 301.3203125 577 c 0
EndSplineSet
EndChar

StartChar: odieresis
Encoding: 246 246 179
Width: 486
GlyphClass: 2
Flags: MW
LayerCount: 2
Fore
SplineSet
243 -12 m 0
 139.3203125 -12 48.599609375 81 48.599609375 242 c 0
 48.599609375 405 139.3203125 498 243 498 c 0
 346.6796875 498 437.400390625 405 437.400390625 242 c 0
 437.400390625 81 346.6796875 -12 243 -12 c 0
243 56 m 0
 318.330078125 56 368.549804688 131 368.549804688 242 c 0
 368.549804688 354 318.330078125 430 243 430 c 0
 167.669921875 430 117.450195312 354 117.450195312 242 c 0
 117.450195312 131 167.669921875 56 243 56 c 0
164.4296875 588 m 0
 138.510742188 588 119.879882812 612 119.879882812 644 c 0
 119.879882812 675 138.510742188 700 164.4296875 700 c 0
 190.349609375 700 208.98046875 675 208.98046875 644 c 0
 208.98046875 612 190.349609375 588 164.4296875 588 c 0
321.5703125 588 m 0
 295.650390625 588 277.01953125 612 277.01953125 644 c 0
 277.01953125 675 295.650390625 700 321.5703125 700 c 0
 347.489257812 700 366.120117188 675 366.120117188 644 c 0
 366.120117188 612 347.489257812 588 321.5703125 588 c 0
EndSplineSet
EndChar

StartChar: divide
Encoding: 247 247 180
Width: 486
GlyphClass: 2
Flags: MW
LayerCount: 2
Fore
SplineSet
243 437.275390625 m 0
 209.1015625 437.275390625 183.952148438 466.974609375 183.952148438 510.174804688 c 0
 183.952148438 552.025390625 209.1015625 581.724609375 243 581.724609375 c 0
 276.8984375 581.724609375 302.047851562 552.025390625 302.047851562 510.174804688 c 0
 302.047851562 466.974609375 276.8984375 437.275390625 243 437.275390625 c 0
243 77.275390625 m 0
 209.1015625 77.275390625 183.952148438 106.974609375 183.952148438 150.174804688 c 0
 183.952148438 192.025390625 209.1015625 221.724609375 243 221.724609375 c 0
 276.8984375 221.724609375 302.047851562 192.025390625 302.047851562 150.174804688 c 0
 302.047851562 106.974609375 276.8984375 77.275390625 243 77.275390625 c 0
7.4345703125 295.900390625 m 1
 7.4345703125 364.099609375 l 1
 478.565429688 364.099609375 l 1
 478.565429688 295.900390625 l 1
 7.4345703125 295.900390625 l 1
EndSplineSet
EndChar

StartChar: oslash
Encoding: 248 248 181
Width: 486
GlyphClass: 2
Flags: MW
LayerCount: 2
Fore
SplineSet
117.450195312 242 m 0
 117.450195312 202 123.9296875 166 136.080078125 136 c 1
 317.51953125 399 l 1
 298.080078125 420 272.16015625 432 243 432 c 0
 167.669921875 432 117.450195312 354 117.450195312 242 c 0
87.48046875 -30 m 1
 50.2197265625 12 l 1
 93.150390625 74 l 1
 65.6103515625 116 48.599609375 173 48.599609375 242 c 0
 48.599609375 405 139.3203125 498 243 498 c 0
 284.310546875 498 324 483 356.400390625 455 c 1
 398.51953125 516 l 1
 435.780273438 474 l 1
 392.849609375 412 l 1
 420.389648438 370 437.400390625 312 437.400390625 242 c 0
 437.400390625 81 346.6796875 -12 243 -12 c 0
 201.689453125 -12 162 3 129.599609375 31 c 1
 87.48046875 -30 l 1
243 54 m 0
 318.330078125 54 368.549804688 131 368.549804688 242 c 0
 368.549804688 283 362.0703125 320 349.919921875 349 c 1
 167.669921875 86 l 1
 187.919921875 66 213.83984375 54 243 54 c 0
EndSplineSet
EndChar

StartChar: ugrave
Encoding: 249 249 182
Width: 486
GlyphClass: 2
Flags: MW
LayerCount: 2
Fore
SplineSet
266.76171875 568 m 1
 139.591796875 721 l 1
 186.572265625 777 l 1
 301.591796875 609 l 1
 266.76171875 568 l 1
145.3828125 486 m 1
 145.3828125 227.138671875 l 2
 145.3828125 166.5078125 153.30078125 122.793945312 170.314453125 96.103515625 c 0
 187.47265625 69.1904296875 216.146484375 56.1748046875 254.818359375 56.1748046875 c 0
 271.4609375 56.1748046875 289.638671875 57.822265625 304.5390625 59.890625 c 0
 317.23046875 61.654296875 330.58984375 63.662109375 339.671875 67.0244140625 c 1
 339.583984375 486.000976562 l 1
 409.048828125 486.000976562 l 1
 409.13671875 12.541015625 l 1
 392.7109375 7.9599609375 371.392578125 3.044921875 345.244140625 -2.1787109375 c 0
 317.541015625 -7.712890625 284.86328125 -10.5029296875 247.25390625 -10.5029296875 c 0
 214.287109375 -10.5029296875 187.173828125 -5.125 165.880859375 5.3515625 c 0
 144.4375 15.904296875 127.130859375 30.771484375 113.7421875 50.046875 c 0
 87.396484375 87.966796875 76.86328125 141.85546875 76.86328125 208.231445312 c 2
 76.86328125 486 l 1
 145.3828125 486 l 1
EndSplineSet
EndChar

StartChar: uacute
Encoding: 250 250 183
Width: 486
GlyphClass: 2
Flags: MW
LayerCount: 2
Fore
SplineSet
232.740234375 568 m 1
 197.912109375 609 l 1
 312.931640625 777 l 1
 359.912109375 721 l 1
 232.740234375 568 l 1
145.3828125 486 m 1
 145.3828125 227.138671875 l 2
 145.3828125 166.5078125 153.30078125 122.793945312 170.314453125 96.103515625 c 0
 187.47265625 69.1904296875 216.146484375 56.1748046875 254.818359375 56.1748046875 c 0
 271.4609375 56.1748046875 289.638671875 57.822265625 304.5390625 59.890625 c 0
 317.23046875 61.654296875 330.58984375 63.662109375 339.671875 67.0244140625 c 1
 339.583984375 486.000976562 l 1
 409.048828125 486.000976562 l 1
 409.13671875 12.541015625 l 1
 392.7109375 7.9599609375 371.392578125 3.044921875 345.244140625 -2.1787109375 c 0
 317.541015625 -7.712890625 284.86328125 -10.5029296875 247.25390625 -10.5029296875 c 0
 214.287109375 -10.5029296875 187.173828125 -5.125 165.880859375 5.3515625 c 0
 144.4375 15.904296875 127.130859375 30.771484375 113.7421875 50.046875 c 0
 87.396484375 87.966796875 76.86328125 141.85546875 76.86328125 208.231445312 c 2
 76.86328125 486 l 1
 145.3828125 486 l 1
EndSplineSet
EndChar

StartChar: ucircumflex
Encoding: 251 251 184
Width: 486
GlyphClass: 2
Flags: MW
LayerCount: 2
Fore
SplineSet
252.751953125 707.0703125 m 1
 371.634765625 594.790039062 l 1
 338.228515625 560.580078125 l 1
 252.751953125 629 l 1
 167.2734375 560.580078125 l 1
 133.869140625 594.790039062 l 1
 252.751953125 707.0703125 l 1
145.3828125 486 m 1
 145.3828125 227.138671875 l 2
 145.3828125 166.5078125 153.30078125 122.793945312 170.314453125 96.103515625 c 0
 187.47265625 69.1904296875 216.146484375 56.1748046875 254.818359375 56.1748046875 c 0
 271.4609375 56.1748046875 289.638671875 57.822265625 304.5390625 59.890625 c 0
 317.23046875 61.654296875 330.58984375 63.662109375 339.671875 67.0244140625 c 1
 339.583984375 486.000976562 l 1
 409.048828125 486.000976562 l 1
 409.13671875 12.541015625 l 1
 392.7109375 7.9599609375 371.392578125 3.044921875 345.244140625 -2.1787109375 c 0
 317.541015625 -7.712890625 284.86328125 -10.5029296875 247.25390625 -10.5029296875 c 0
 214.287109375 -10.5029296875 187.173828125 -5.125 165.880859375 5.3515625 c 0
 144.4375 15.904296875 127.130859375 30.771484375 113.7421875 50.046875 c 0
 87.396484375 87.966796875 76.86328125 141.85546875 76.86328125 208.231445312 c 2
 76.86328125 486 l 1
 145.3828125 486 l 1
EndSplineSet
EndChar

StartChar: udieresis
Encoding: 252 252 185
Width: 486
GlyphClass: 2
Flags: MW
LayerCount: 2
Fore
SplineSet
171.181640625 588 m 0
 145.26171875 588 126.630859375 612 126.630859375 644 c 0
 126.630859375 675 145.26171875 700 171.181640625 700 c 0
 197.1015625 700 215.732421875 675 215.732421875 644 c 0
 215.732421875 612 197.1015625 588 171.181640625 588 c 0
328.322265625 588 m 0
 302.40234375 588 283.771484375 612 283.771484375 644 c 0
 283.771484375 675 302.40234375 700 328.322265625 700 c 0
 354.240234375 700 372.87109375 675 372.87109375 644 c 0
 372.87109375 612 354.240234375 588 328.322265625 588 c 0
145.3828125 486 m 1
 145.3828125 227.138671875 l 2
 145.3828125 166.5078125 153.30078125 122.793945312 170.314453125 96.103515625 c 0
 187.47265625 69.1904296875 216.146484375 56.1748046875 254.818359375 56.1748046875 c 0
 271.4609375 56.1748046875 289.638671875 57.822265625 304.5390625 59.890625 c 0
 317.23046875 61.654296875 330.58984375 63.662109375 339.671875 67.0244140625 c 1
 339.583984375 486.000976562 l 1
 409.048828125 486.000976562 l 1
 409.13671875 12.541015625 l 1
 392.7109375 7.9599609375 371.392578125 3.044921875 345.244140625 -2.1787109375 c 0
 317.541015625 -7.712890625 284.86328125 -10.5029296875 247.25390625 -10.5029296875 c 0
 214.287109375 -10.5029296875 187.173828125 -5.125 165.880859375 5.3515625 c 0
 144.4375 15.904296875 127.130859375 30.771484375 113.7421875 50.046875 c 0
 87.396484375 87.966796875 76.86328125 141.85546875 76.86328125 208.231445312 c 2
 76.86328125 486 l 1
 145.3828125 486 l 1
EndSplineSet
EndChar

StartChar: yacute
Encoding: 253 253 186
Width: 486
GlyphClass: 2
Flags: MW
LayerCount: 2
Fore
SplineSet
106.110351562 -209 m 0
 87.48046875 -209 68.0400390625 -205 54.26953125 -199 c 1
 68.0400390625 -134 l 1
 78.5703125 -138 91.5302734375 -141 103.6796875 -141 c 0
 158.760742188 -141 191.969726562 -97 211.41015625 -37 c 2
 223.560546875 -1 l 1
 39.689453125 486 l 1
 106.919921875 486 l 1
 203.310546875 217 l 2
 218.700195312 174 235.709960938 123 251.91015625 76 c 1
 255.150390625 76 l 1
 268.919921875 122 284.310546875 173 297.26953125 217 c 2
 383.129882812 486 l 1
 446.310546875 486 l 1
 272.969726562 -40 l 2
 243.810546875 -136 195.209960938 -209 106.110351562 -209 c 0
229.23046875 568 m 1
 194.400390625 609 l 1
 309.419921875 777 l 1
 356.400390625 721 l 1
 229.23046875 568 l 1
EndSplineSet
EndChar

StartChar: thorn
Encoding: 254 254 187
Width: 486
GlyphClass: 2
Flags: MW
LayerCount: 2
Fore
SplineSet
368.766601562 56.43359375 m 0
 341.743164062 18.484375 300.1171875 -11 238.950195312 -11 c 0
 216.977539062 -11 197.762695312 -8.0283203125 181.290039062 -2.1455078125 c 0
 164.661132812 3.79296875 152.327148438 10.3681640625 144.291015625 17.3828125 c 2
 134.999023438 20.9990234375 l 1
 134.999023438 -165.000976562 l 1
 70.44921875 -165.000976562 l 1
 70.44921875 685.999023438 l 1
 134.999023438 685.999023438 l 1
 134.999023438 443.408203125 l 1
 152.782226562 453.701171875 176.647460938 462.387695312 193.696289062 466.98046875 c 0
 209.705078125 471.29296875 225.385742188 473.442382812 240.75 473.442382812 c 0
 265.578125 473.442382812 288.571289062 467.994140625 309.818359375 457.096679688 c 0
 331.0625 446.200195312 349.508789062 430.360351562 365.206054688 409.48046875 c 0
 397.239257812 366.868164062 415.549804688 306.081054688 415.549804688 230.213867188 c 0
 415.549804688 158.91015625 398.465820312 98.1396484375 368.766601562 56.43359375 c 0
312.541992188 361.44140625 m 0
 295.416015625 385.659179688 269.40234375 404.5 231.75 404.5 c 0
 215.821289062 404.5 200.627929688 401.431640625 186.22265625 395.301757812 c 0
 171.629882812 389.092773438 150.874023438 379.806640625 134.999023438 368.274414062 c 1
 134.999023438 96.9892578125 l 1
 144.119140625 87.580078125 161.612304688 79.3759765625 178.51953125 71.72265625 c 0
 195.026367188 64.2509765625 212.188476562 60.501953125 229.94921875 60.501953125 c 0
 250.1171875 60.501953125 267.55078125 64.923828125 282.10546875 73.8701171875 c 0
 326.522460938 101.172851562 344.048828125 159.077148438 344.048828125 231.000976562 c 0
 344.048828125 285.038085938 334.1640625 330.862304688 312.541992188 361.44140625 c 0
EndSplineSet
EndChar

StartChar: ydieresis
Encoding: 255 255 188
Width: 486
GlyphClass: 2
Flags: MW
LayerCount: 2
Fore
SplineSet
106.110351562 -209 m 0
 87.48046875 -209 68.0400390625 -205 54.26953125 -199 c 1
 68.0400390625 -134 l 1
 78.5703125 -138 91.5302734375 -141 103.6796875 -141 c 0
 158.760742188 -141 191.969726562 -97 211.41015625 -37 c 2
 223.560546875 -1 l 1
 39.689453125 486 l 1
 106.919921875 486 l 1
 203.310546875 217 l 2
 218.700195312 174 235.709960938 123 251.91015625 76 c 1
 255.150390625 76 l 1
 268.919921875 122 284.310546875 173 297.26953125 217 c 2
 383.129882812 486 l 1
 446.310546875 486 l 1
 272.969726562 -40 l 2
 243.810546875 -136 195.209960938 -209 106.110351562 -209 c 0
167.669921875 588 m 0
 141.75 588 123.120117188 612 123.120117188 644 c 0
 123.120117188 675 141.75 700 167.669921875 700 c 0
 193.58984375 700 212.219726562 675 212.219726562 644 c 0
 212.219726562 612 193.58984375 588 167.669921875 588 c 0
324.810546875 588 m 0
 298.889648438 588 280.260742188 612 280.260742188 644 c 0
 280.260742188 675 298.889648438 700 324.810546875 700 c 0
 350.73046875 700 369.360351562 675 369.360351562 644 c 0
 369.360351562 612 350.73046875 588 324.810546875 588 c 0
EndSplineSet
EndChar

StartChar: Amacron
Encoding: 256 256 189
Width: 486
GlyphClass: 2
Flags: MW
LayerCount: 2
Fore
SplineSet
107 673 m 1
 107 734 l 1
 382 734 l 1
 382 673 l 1
 107 673 l 1
187.919921875 367 m 2
 162.810546875 267 l 1
 321.5703125 267 l 1
 296.459960938 367 l 2
 277.830078125 440 260.010742188 512 243.810546875 588 c 1
 240.5703125 588 l 1
 223.560546875 512 206.549804688 440 187.919921875 367 c 2
25.919921875 0 m 1
 204.9296875 656 l 1
 281.0703125 656 l 1
 460.080078125 0 l 1
 388.799804688 0 l 1
 338.580078125 200 l 1
 145.799804688 200 l 1
 94.76953125 0 l 1
 25.919921875 0 l 1
EndSplineSet
EndChar

StartChar: amacron
Encoding: 257 257 190
Width: 486
GlyphClass: 2
Flags: MW
LayerCount: 2
Fore
SplineSet
119 599 m 1
 119 660 l 1
 394 660 l 1
 394 599 l 1
 119 599 l 1
348.244140625 63.4892578125 m 1
 348.244140625 214.836914062 l 1
 325.0390625 222.736328125 293.314453125 227.599609375 261.548828125 227.599609375 c 0
 230.017578125 227.599609375 200.390625 222.59765625 179.208984375 210.381835938 c 0
 157.916015625 198.1015625 139.52734375 177.646484375 139.52734375 143.559570312 c 0
 139.52734375 111.232421875 149.8203125 87.4306640625 170.958984375 74.2197265625 c 0
 191.349609375 61.474609375 218.40625 55.3603515625 252.001953125 55.3603515625 c 0
 287.408203125 55.3603515625 321.19140625 57.9638671875 348.244140625 63.4892578125 c 1
124.130859375 416.48828125 m 1
 115.890625 478.766601562 l 1
 126.29296875 483.459960938 142.93359375 487.88671875 165.474609375 491.69140625 c 0
 190.359375 495.892578125 217.01953125 498 245.455078125 498 c 0
 278.166015625 498 305.494140625 493.4375 327.4140625 484.516601562 c 0
 368.9375 467.618164062 397.3125 438.208007812 409.056640625 390.353515625 c 0
 414.6640625 367.5 417.48828125 342.4921875 417.48828125 315.305664062 c 2
 416.3984375 6.921875 l 1
 398.494140625 3.5439453125 375.44921875 -0.4541015625 347.27734375 -5.068359375 c 0
 317.2734375 -9.9814453125 286.470703125 -12 254.8671875 -12 c 0
 230.947265625 -12 207.673828125 -10.1669921875 185.037109375 -5.6240234375 c 0
 139.1171875 3.58984375 104.5 25.962890625 84.11328125 64.607421875 c 0
 73.826171875 84.1142578125 68.51171875 109.352539062 68.51171875 140.545898438 c 0
 68.51171875 168.092773438 73.919921875 190.947265625 84.505859375 209.430664062 c 0
 105.759765625 246.548828125 139.955078125 269.877929688 184.69140625 280.381835938 c 0
 206.98046875 285.614257812 229.416015625 288.228515625 252.001953125 288.228515625 c 0
 284.830078125 288.228515625 317.576171875 283.202148438 348.244140625 275.224609375 c 1
 349.333984375 311.061523438 l 2
 349.333984375 391.4140625 312.6875 433.932617188 238.76953125 433.932617188 c 0
 194.68359375 433.932617188 154.771484375 427.126953125 124.130859375 416.48828125 c 1
EndSplineSet
EndChar

StartChar: Abreve
Encoding: 258 258 191
Width: 486
GlyphClass: 2
Flags: MW
LayerCount: 2
Fore
SplineSet
238.265625 698 m 0
 221.599609375 698 205.93359375 700.833007812 191.265625 706.5 c 0
 176.599609375 712.166992188 163.765625 720.166992188 152.765625 730.5 c 0
 141.765625 740.833007812 133.265625 753.666992188 127.265625 769 c 0
 121.265625 784.333007812 118.599609375 802 119.265625 822 c 1
 173.265625 822 l 1
 173.93359375 815.333007812 175.265625 808.166992188 177.265625 800.5 c 0
 179.265625 792.833007812 182.765625 785.833007812 187.765625 779.5 c 0
 192.765625 773.166992188 199.265625 768 207.265625 764 c 0
 215.265625 760 225.599609375 758 238.265625 758 c 0
 250.93359375 758 261.43359375 760 269.765625 764 c 0
 278.099609375 768 284.599609375 773.166992188 289.265625 779.5 c 0
 293.93359375 785.833007812 297.265625 792.833007812 299.265625 800.5 c 0
 301.265625 808.166992188 302.599609375 815.333007812 303.265625 822 c 1
 357.265625 822 l 1
 357.93359375 802 355.265625 784.333007812 349.265625 769 c 0
 343.265625 753.666992188 334.765625 740.833007812 323.765625 730.5 c 0
 312.765625 720.166992188 299.93359375 712.166992188 285.265625 706.5 c 0
 270.599609375 700.833007812 254.93359375 698 238.265625 698 c 0
243.10546875 586 m 1
 241.26953125 586 l 1
 224.2109375 510.508789062 207.14453125 438.958984375 188.458984375 366.41796875 c 2
 163.517578125 268 l 1
 320.8671875 268 l 1
 294.083984375 373.6796875 266.626953125 476.786132812 243.10546875 586 c 1
23.806640625 0 m 1
 204.03125 656 l 1
 281.982421875 656 l 1
 462.193359375 0 l 1
 389.015625 0 l 1
 338.48828125 199 l 1
 145.89453125 199 l 1
 94.55078125 0 l 1
 23.806640625 0 l 1
EndSplineSet
EndChar

StartChar: abreve
Encoding: 259 259 192
Width: 486
GlyphClass: 2
Flags: MW
LayerCount: 2
Fore
SplineSet
259 545 m 0
 242.333007812 545 226.66796875 547.833007812 212.000976562 553.5 c 0
 197.333984375 559.166992188 184.500976562 567.166992188 173.500976562 577.5 c 0
 162.500976562 587.833007812 154.000976562 600.666015625 148.000976562 615.999023438 c 0
 142.000976562 631.33203125 139.333984375 648.999023438 140.000976562 668.999023438 c 1
 194.000976562 668.999023438 l 1
 194.66796875 662.33203125 196.000976562 655.165039062 198.000976562 647.498046875 c 0
 200.000976562 639.831054688 203.500976562 632.831054688 208.500976562 626.498046875 c 0
 213.500976562 620.165039062 220.000976562 614.998046875 228.000976562 610.998046875 c 0
 236.000976562 606.998046875 246.333984375 604.998046875 259.000976562 604.998046875 c 0
 271.66796875 604.998046875 282.16796875 606.998046875 290.500976562 610.998046875 c 0
 298.833984375 614.998046875 305.333984375 620.165039062 310.000976562 626.498046875 c 0
 314.66796875 632.831054688 318.000976562 639.831054688 320.000976562 647.498046875 c 0
 322.000976562 655.165039062 323.333984375 662.33203125 324.000976562 668.999023438 c 1
 378.000976562 668.999023438 l 1
 378.66796875 648.999023438 376.000976562 631.33203125 370.000976562 615.999023438 c 0
 364.000976562 600.666015625 355.500976562 587.833007812 344.500976562 577.5 c 0
 333.500976562 567.166992188 320.66796875 559.166992188 306.000976562 553.5 c 0
 291.333984375 547.833007812 275.666992188 545 259 545 c 0
348.24609375 63.4892578125 m 1
 348.24609375 214.836914062 l 1
 325.041015625 222.736328125 293.31640625 227.599609375 261.55078125 227.599609375 c 0
 230.01953125 227.599609375 200.392578125 222.59765625 179.2109375 210.381835938 c 0
 157.91796875 198.1015625 139.529296875 177.646484375 139.529296875 143.559570312 c 0
 139.529296875 111.232421875 149.822265625 87.4306640625 170.9609375 74.2197265625 c 0
 191.3515625 61.474609375 218.408203125 55.3603515625 252.00390625 55.3603515625 c 0
 287.41015625 55.3603515625 321.193359375 57.9638671875 348.24609375 63.4892578125 c 1
124.1328125 416.48828125 m 1
 115.892578125 478.766601562 l 1
 126.294921875 483.459960938 142.935546875 487.88671875 165.4765625 491.69140625 c 0
 190.361328125 495.892578125 217.021484375 498 245.45703125 498 c 0
 278.16796875 498 305.49609375 493.4375 327.416015625 484.516601562 c 0
 368.939453125 467.618164062 397.314453125 438.208007812 409.05859375 390.353515625 c 0
 414.666015625 367.5 417.490234375 342.4921875 417.490234375 315.305664062 c 2
 416.400390625 6.921875 l 1
 398.49609375 3.5439453125 375.451171875 -0.4541015625 347.279296875 -5.068359375 c 0
 317.275390625 -9.9814453125 286.47265625 -12 254.869140625 -12 c 0
 230.94921875 -12 207.67578125 -10.1669921875 185.0390625 -5.6240234375 c 0
 139.119140625 3.58984375 104.501953125 25.962890625 84.115234375 64.607421875 c 0
 73.828125 84.1142578125 68.513671875 109.352539062 68.513671875 140.545898438 c 0
 68.513671875 168.092773438 73.921875 190.947265625 84.5078125 209.430664062 c 0
 105.76171875 246.548828125 139.95703125 269.877929688 184.693359375 280.381835938 c 0
 206.982421875 285.614257812 229.41796875 288.228515625 252.00390625 288.228515625 c 0
 284.83203125 288.228515625 317.578125 283.202148438 348.24609375 275.224609375 c 1
 349.3359375 311.061523438 l 2
 349.3359375 391.4140625 312.689453125 433.932617188 238.771484375 433.932617188 c 0
 194.685546875 433.932617188 154.7734375 427.126953125 124.1328125 416.48828125 c 1
EndSplineSet
EndChar

StartChar: aogonek
Encoding: 261 261 193
Width: 486
GlyphClass: 2
Flags: MW
LayerCount: 2
Fore
SplineSet
589 29 m 1049
417.48828125 315.305664062 m 2
 416.3984375 6.921875 l 1
 369.873046875 -38.9658203125 l 2
 363.312428348 -45.7995871827 341.373046875 -68.6524047381 341.373046875 -87.890625 c 0
 341.373046875 -104.357421875 352.45703125 -112.590820312 374.623046875 -112.590820312 c 0
 388.380749353 -112.590820312 407.251437559 -107.578571718 409.7734375 -106.890625 c 1
 415.473632812 -158.190429688 l 1
 401.540039062 -164.524414062 382.857421875 -167.690429688 359.423828125 -167.690429688 c 0
 287.38104734 -167.690429688 266.323242188 -137.910467402 266.323242188 -103.090820312 c 0
 266.323242188 -80.0182664625 273.771778395 -69.5197231625 316 -10 c 1
 291 -13 281.022373945 -12 254.8671875 -12 c 0
 162.25341301 -12 68.51171875 14.6105917624 68.51171875 140.545898438 c 0
 68.51171875 279.166318989 213.966724349 288.228515625 252.001953125 288.228515625 c 0
 284.830078125 288.228515625 317.576171875 283.202148438 348.244140625 275.224609375 c 1
 349.333984375 311.061523438 l 1
 349.333984375 391.4140625 312.6875 433.932617188 238.76953125 433.932617188 c 0
 194.68359375 433.932617188 154.771484375 427.126953125 124.130859375 416.48828125 c 1
 115.890625 478.766601562 l 5
 158.093228804 497.807693744 244.145235725 498 245.455078125 498 c 0
 396.918903639 498 417.48828125 396.880475167 417.48828125 315.305664062 c 2
139.52734375 143.559570312 m 0
 139.52734375 119.796503051 140.652728021 55.3603515625 252.001953125 55.3603515625 c 0
 287.408203125 55.3603515625 321.19140625 57.9638671875 348.244140625 63.4892578125 c 1
 348.244140625 214.836914062 l 1
 325.0390625 222.736328125 293.314453125 227.599609375 261.548828125 227.599609375 c 0
 151.305457919 227.599609375 139.52734375 168.722122613 139.52734375 143.559570312 c 0
EndSplineSet
EndChar

StartChar: Cacute
Encoding: 262 262 194
Width: 486
GlyphClass: 2
Flags: MW
LayerCount: 2
Fore
SplineSet
276.615234375 -12 m 0
 145.39453125 -12 44.955078125 114 44.955078125 328 c 0
 44.955078125 539 144.5859375 668 283.095703125 668 c 0
 346.275390625 668 397.3046875 630 428.0859375 588 c 1
 390.015625 535 l 1
 362.474609375 571 327.64453125 595 283.095703125 595 c 0
 181.03515625 595 114.615234375 493 114.615234375 330 c 0
 114.615234375 165 181.03515625 61 283.095703125 61 c 0
 331.6953125 61 368.955078125 87 402.974609375 134 c 1
 441.044921875 83 l 1
 398.92578125 23 347.0859375 -12 276.615234375 -12 c 0
249.07421875 697 m 1
 219.916015625 739 l 1
 334.125 867 l 1
 372.1953125 812 l 1
 249.07421875 697 l 1
EndSplineSet
EndChar

StartChar: cacute
Encoding: 263 263 195
Width: 486
GlyphClass: 2
Flags: MW
LayerCount: 2
Fore
SplineSet
272.56640625 -12 m 0
 149.4453125 -12 57.10546875 81 57.10546875 242 c 0
 57.10546875 405 157.544921875 498 276.615234375 498 c 0
 340.60546875 498 387.5859375 466 419.984375 427 c 1
 386.775390625 374 l 1
 354.375 409 320.35546875 430 279.044921875 430 c 0
 188.32421875 430 125.955078125 354 125.955078125 242 c 0
 125.955078125 131 186.705078125 56 277.42578125 56 c 0
 326.025390625 56 366.525390625 83 398.92578125 117 c 1
 428.89453125 64 l 1
 385.154296875 16 330.884765625 -12 272.56640625 -12 c 0
255.5546875 568 m 1
 220.724609375 609 l 1
 335.744140625 777 l 1
 382.724609375 721 l 1
 255.5546875 568 l 1
EndSplineSet
EndChar

StartChar: Ccircumflex
Encoding: 264 264 196
Width: 486
GlyphClass: 2
Flags: MW
LayerCount: 2
Fore
SplineSet
283 839 m 1
 401.8828125 726.719726562 l 1
 368.4765625 692.509765625 l 1
 283 760.9296875 l 1
 197.521484375 692.509765625 l 1
 164.1171875 726.719726562 l 1
 283 839 l 1
276.615234375 -12 m 0
 145.39453125 -12 44.955078125 114 44.955078125 328 c 0
 44.955078125 539 144.5859375 668 283.095703125 668 c 0
 346.275390625 668 397.3046875 630 428.0859375 588 c 1
 390.015625 535 l 1
 362.474609375 571 327.64453125 595 283.095703125 595 c 0
 181.03515625 595 114.615234375 493 114.615234375 330 c 0
 114.615234375 165 181.03515625 61 283.095703125 61 c 0
 331.6953125 61 368.955078125 87 402.974609375 134 c 1
 441.044921875 83 l 1
 398.92578125 23 347.0859375 -12 276.615234375 -12 c 0
EndSplineSet
EndChar

StartChar: ccircumflex
Encoding: 265 265 197
Width: 486
GlyphClass: 2
Flags: MW
LayerCount: 2
Fore
SplineSet
252.751953125 707.0703125 m 1
 371.634765625 594.790039062 l 1
 338.228515625 560.580078125 l 1
 252.751953125 629 l 1
 167.2734375 560.580078125 l 1
 133.869140625 594.790039062 l 1
 252.751953125 707.0703125 l 1
272.56640625 -12 m 0
 149.4453125 -12 57.10546875 81 57.10546875 242 c 0
 57.10546875 405 157.544921875 498 276.615234375 498 c 0
 340.60546875 498 387.5859375 466 419.984375 427 c 1
 386.775390625 374 l 1
 354.375 409 320.35546875 430 279.044921875 430 c 0
 188.32421875 430 125.955078125 354 125.955078125 242 c 0
 125.955078125 131 186.705078125 56 277.42578125 56 c 0
 326.025390625 56 366.525390625 83 398.92578125 117 c 1
 428.89453125 64 l 1
 385.154296875 16 330.884765625 -12 272.56640625 -12 c 0
EndSplineSet
EndChar

StartChar: Cdotaccent
Encoding: 266 266 198
Width: 486
GlyphClass: 2
Flags: MW
LayerCount: 2
Fore
SplineSet
276.615234375 -12 m 0
 145.39453125 -12 44.955078125 114 44.955078125 328 c 0
 44.955078125 539 144.5859375 668 283.095703125 668 c 0
 346.275390625 668 397.3046875 630 428.0859375 588 c 1
 390.015625 535 l 1
 362.474609375 571 327.64453125 595 283.095703125 595 c 0
 181.03515625 595 114.615234375 493 114.615234375 330 c 0
 114.615234375 165 181.03515625 61 283.095703125 61 c 0
 331.6953125 61 368.955078125 87 402.974609375 134 c 1
 441.044921875 83 l 1
 398.92578125 23 347.0859375 -12 276.615234375 -12 c 0
272.56640625 714 m 0
 245.8359375 714 224.775390625 737 224.775390625 771 c 0
 224.775390625 804 245.8359375 827 272.56640625 827 c 0
 299.294921875 827 320.35546875 804 320.35546875 771 c 0
 320.35546875 737 299.294921875 714 272.56640625 714 c 0
EndSplineSet
EndChar

StartChar: cdotaccent
Encoding: 267 267 199
Width: 486
GlyphClass: 2
Flags: MW
LayerCount: 2
Fore
SplineSet
272.56640625 -12 m 0
 149.4453125 -12 57.10546875 81 57.10546875 242 c 0
 57.10546875 405 157.544921875 498 276.615234375 498 c 0
 340.60546875 498 387.5859375 466 419.984375 427 c 1
 386.775390625 374 l 1
 354.375 409 320.35546875 430 279.044921875 430 c 0
 188.32421875 430 125.955078125 354 125.955078125 242 c 0
 125.955078125 131 186.705078125 56 277.42578125 56 c 0
 326.025390625 56 366.525390625 83 398.92578125 117 c 1
 428.89453125 64 l 1
 385.154296875 16 330.884765625 -12 272.56640625 -12 c 0
272.56640625 588 m 0
 242.595703125 588 219.10546875 613 219.10546875 652 c 0
 219.10546875 690 242.595703125 716 272.56640625 716 c 0
 302.53515625 716 326.025390625 690 326.025390625 652 c 0
 326.025390625 613 302.53515625 588 272.56640625 588 c 0
EndSplineSet
EndChar

StartChar: Ccaron
Encoding: 268 268 200
Width: 486
GlyphClass: 2
Flags: MW
LayerCount: 2
Fore
SplineSet
280 702.509765625 m 1
 161.1171875 814.790039062 l 1
 194.5234375 849 l 1
 280 780.580078125 l 1
 365.478515625 849 l 1
 398.8828125 814.790039062 l 1
 280 702.509765625 l 1
276.615234375 -12 m 0
 145.39453125 -12 44.955078125 114 44.955078125 328 c 0
 44.955078125 539 144.5859375 668 283.095703125 668 c 0
 346.275390625 668 397.3046875 630 428.0859375 588 c 1
 390.015625 535 l 1
 362.474609375 571 327.64453125 595 283.095703125 595 c 0
 181.03515625 595 114.615234375 493 114.615234375 330 c 0
 114.615234375 165 181.03515625 61 283.095703125 61 c 0
 331.6953125 61 368.955078125 87 402.974609375 134 c 1
 441.044921875 83 l 1
 398.92578125 23 347.0859375 -12 276.615234375 -12 c 0
EndSplineSet
EndChar

